<svg xmlns="http://www.w3.org/2000/svg" viewBox="0 0 375.075 177.333" enable-background="new 0 0 375.075 177.333"><path fill="#12100B" d="M372.327 148.806l-.262-2.487-131.181 13.788-10.757-102.357 128.694-13.527 11.019 104.844 2.487-.261-.262-2.487.262 2.487 2.486-.262-11.543-109.816-138.639 14.571 11.804 112.305 138.64-14.574-.262-2.486z"/><g fill="#12100B"><path d="M176.704 164.895l-2.176.229-.111 2.282 2.159-.226-.068 1.361-2.176.229-.222 3.42-1.444.152.221-3.422-2.733.289-.222 3.419-1.445.153.221-3.422-2.176.23.068-1.361 2.176-.23.13-2.285-2.177.23.071-1.346 2.193-.23.207-3.384 1.446-.151-.208 3.383 2.734-.287.207-3.382 1.445-.153-.208 3.385 2.177-.23-.089 1.347zm-6.354.669l-.129 2.283 2.75-.289.113-2.283-2.734.289zM178.447 160.014l7.033-.739.202 1.914-4.944.52.302 2.872 4.509-.476.202 1.917-4.509.473.313 2.977 4.944-.52.201 1.917-7.033.738-1.22-11.593zM187.746 159.036l5.901-.621c1.063-.11 2.004.652 2.115 1.715l.347 3.291c.11 1.062-.65 2.002-1.715 2.114l-3.812.401.47 4.475-2.088.219-1.218-11.594zm5.976 1.765c-.027-.26-.257-.431-.518-.403l-3.169.333.346 3.292 3.169-.334c.262-.028.449-.24.421-.503l-.249-2.385zM197.949 165.673c-.105-1.011.475-1.354 1.338-1.849l2.61-1.452c.232-.131.375-.287.349-.548l-.209-1.985c-.027-.261-.258-.431-.518-.402l-1.724.181c-.263.027-.45.242-.423.503l.107 1.026-2.038-.138-.12-1.131c-.105-1.01.609-1.913 1.619-2.02l3.013-.316c1.026-.108 1.931.626 2.036 1.636l.302 2.872c.083.782-.247 1.169-1.007 1.637l-2.932 1.751c-.23.146-.378.251-.35.513l.174 1.653 4.752-.499.191 1.827-6.754.71-.416-3.969zM207.283 166.856l-.836-7.938c-.105-1.01.608-1.913 1.617-2.018l3.362-.353c1.025-.108 1.931.624 2.038 1.633l.832 7.938c.107 1.01-.626 1.914-1.653 2.023l-3.36.352c-1.009.107-1.896-.627-2-1.637zm4.225-8.012c-.026-.26-.257-.431-.519-.403l-2.07.217c-.262.029-.451.243-.424.503l.74 7.033c.027.261.256.431.518.402l2.072-.218c.261-.026.449-.24.422-.501l-.739-7.033zM219.626 155.686l1.219 11.594-2.004.211-1.008-9.593-2.857 1.268-.211-2.002 2.857-1.269 2.004-.209zM221.933 162.553l3.979-7.528 2.002-.211.74 7.033 1.863-.196.043 1.757-1.723.181.295 2.82-2.002.21-.295-2.819-4.719.495-.183-1.742zm4.719-.495l-.42-3.986-2.123 4.252 2.543-.266z"/></g><path fill="#12100B" d="M224.18 2.688l-224.18 23.562 13.356 126.327 224.181-23.561-13.357-126.328zm-218.543 28.127l213.98-22.488 12.283 116.124-213.98 22.49-12.283-116.126zM14.306 53.334l13.948-1.465.398 3.798-9.805 1.029.598 5.696 8.941-.94.398 3.799-8.941.938.62 5.904 9.805-1.029.399 3.797-13.947 1.465-2.414-22.992zm5.911-2.541l-2.017-1.918 3.951-4.254 2.055 1.949-3.989 4.223zM31.708 51.506l4.144-.434 2.015 19.195 9.391-.986.398 3.797-13.533 1.422-2.415-22.994zM48.007 49.795l13.948-1.464.398 3.798-9.805 1.029.598 5.695 8.941-.938.398 3.797-8.941.939.62 5.903 9.805-1.029.399 3.798-13.947 1.464-2.414-22.992zM77.999 61.83l4.215.256.366 3.486c.222 2.105-1.293 3.976-3.398 4.196l-7.769.815c-2.105.221-3.939-1.297-4.161-3.402l-1.616-15.396c-.222-2.107 1.259-3.973 3.364-4.193l7.769-.816c2.105-.221 3.974 1.293 4.195 3.4l.344 3.279-4.069 1.125-.323-3.072c-.054-.518-.508-.854-1.025-.8l-5.179.544c-.518.055-.893.477-.839.994l1.429 13.604c.054.518.508.854 1.026.799l5.179-.543c.518-.055.892-.478.838-.995l-.346-3.281zM82.124 46.214l16.641-1.747.398 3.798-6.249.655 2.015 19.195-4.144.436-2.015-19.195-6.248.656-.398-3.798zM107.567 66.789l-4.144.435-2.413-22.994 4.144-.435 2.413 22.994zM111.138 62.574l-1.616-15.396c-.222-2.107 1.26-3.973 3.365-4.193l8.113-.852c2.106-.222 3.975 1.293 4.196 3.398l1.616 15.398c.222 2.105-1.293 3.975-3.399 4.195l-8.113.852c-2.105.221-3.941-1.296-4.162-3.402zm10.01-15.711c-.054-.518-.509-.854-1.026-.799l-5.524.58c-.518.055-.892.477-.839.994l1.429 13.604c.054.518.508.854 1.026.799l5.523-.579c.518-.054.893-.477.839-.995l-1.428-13.604zM147.895 62.555l-4.006.421-10.262-13.967 1.562 14.88-4.004.42-2.413-22.992 4.004-.42 10.27 14.035-1.569-14.949 4.006-.42 2.412 22.992zM154.503 51.006c-2.101-.408-3.864-1.234-4.086-3.34l-.496-4.73c-.222-2.105 1.26-3.972 3.365-4.193l7.319-.768c2.105-.221 3.974 1.293 4.195 3.398l.282 2.693-4.07 1.125-.262-2.486c-.054-.518-.507-.854-1.025-.799l-4.73.496c-.518.055-.892.479-.838.996l.301 2.865c.055.518.505.819 1.037.902 2.099.374 3.871.642 6.468 1.102 2.026.346 3.762 1.246 3.982 3.351l.54 5.145c.222 2.105-1.259 3.972-3.364 4.192l-7.458.783c-2.105.222-3.975-1.294-4.196-3.399l-.275-2.623 4.071-1.126.254 2.417c.054.518.508.854 1.026.8l4.867-.511c.518-.055.893-.479.839-.996l-.349-3.314c-.054-.518-.467-.788-1.034-.869-2.699-.449-3.728-.619-6.363-1.111zM17.687 85.541l13.948-1.465.398 3.797-9.805 1.029.599 5.697 8.941-.939.398 3.798-8.941.938.619 5.904 9.805-1.029.399 3.797-13.948 1.465-2.413-22.992zM46.034 82.564l4.143-.435 2.016 19.194c.221 2.105-1.293 3.977-3.398 4.197l-7.769.814c-2.106.222-3.94-1.297-4.162-3.402l-2.015-19.195 4.143-.434 1.921 18.297c.055.518.508.854 1.026.799l5.179-.543c.518-.055.893-.479.838-.996l-1.922-18.296zM64.058 94.947l-4.351.457.932 8.873-4.144.436-2.414-22.993 12.05-1.265c2.105-.221 3.975 1.293 4.195 3.398l.686 6.524c.188 1.796-.864 3.407-2.478 3.995l5.362 8.513-4.559.479-5.279-8.417zm2.221-9.761c-.055-.518-.509-.854-1.026-.799l-6.629.695.686 6.524 6.629-.696c.518-.054.892-.477.837-.994l-.497-4.73zM76.02 98.822l-1.616-15.397c-.221-2.106 1.26-3.972 3.365-4.193l8.112-.852c2.107-.221 3.977 1.293 4.197 3.398l1.616 15.398c.222 2.106-1.292 3.975-3.399 4.196l-8.112.852c-2.105.223-3.941-1.296-4.163-3.402zm10.01-15.71c-.055-.518-.509-.854-1.026-.8l-5.523.58c-.519.055-.893.477-.838.996l1.427 13.602c.055.518.508.854 1.026.8l5.523-.579c.518-.055.893-.479.838-.996l-1.427-13.603zM93.583 77.572l11.703-1.229c2.106-.221 3.977 1.293 4.197 3.398l.685 6.525c.221 2.106-1.294 3.975-3.4 4.195l-7.56.794.932 8.874-4.144.435-2.413-22.992zM111.608 75.681l13.947-1.464.398 3.797-9.805 1.029.599 5.696 8.941-.939.398 3.797-8.941.939.619 5.903 9.805-1.029.399 3.798-13.947 1.465-2.413-22.992zm5.911-2.54l-2.018-1.918 3.952-4.256 2.054 1.949-3.988 4.225zM128.942 73.861l13.947-1.465.398 3.797-9.804 1.029.598 5.697 8.941-.939.398 3.797-8.94.939.619 5.904 9.804-1.029.399 3.797-13.947 1.465-2.413-22.992zM165.399 93.279l-4.005.42-10.263-13.967 1.562 14.881-4.005.42-2.414-22.992 4.005-.42 10.27 14.035-1.569-14.949 4.005-.42 2.414 22.992zM186.185 91.098l-4.005.42-10.263-13.967 1.562 14.881-4.005.42-2.414-22.992 4.005-.421 10.269 14.035-1.569-14.948 4.005-.421 2.415 22.993zM187.848 67.676l13.948-1.464.398 3.798-9.805 1.029.598 5.695 8.941-.938.398 3.797-8.94.938.619 5.903 9.805-1.029.399 3.799-13.948 1.464-2.413-22.992zM210.058 77.734c-2.101-.407-3.864-1.234-4.085-3.34l-.497-4.729c-.221-2.106 1.26-3.972 3.365-4.192l7.319-.769c2.105-.222 3.975 1.292 4.195 3.399l.283 2.691-4.07 1.127-.261-2.486c-.055-.519-.509-.854-1.026-.801l-4.73.498c-.518.054-.892.477-.838.994l.301 2.866c.054.519.504.819 1.037.903 2.098.373 3.871.641 6.468 1.101 2.025.347 3.761 1.246 3.982 3.352l.54 5.145c.222 2.105-1.258 3.972-3.363 4.192l-7.458.783c-2.106.221-3.976-1.293-4.197-3.399l-.275-2.625 4.071-1.125.254 2.417c.055.518.508.854 1.026.8l4.867-.512c.519-.055.894-.478.839-.995l-.348-3.314c-.055-.518-.467-.788-1.034-.868-2.7-.45-3.73-.62-6.365-1.113zM22.172 132.918c-.21-2.002.94-2.682 2.652-3.664 2.073-1.195 3.104-1.688 5.178-2.881.461-.26.743-.568.689-1.086l-.413-3.937c-.055-.518-.509-.854-1.026-.8l-3.418.359c-.519.055-.892.478-.838.995l.214 2.038-4.042-.273-.236-2.246c-.21-2.002 1.208-3.79 3.21-4l5.973-.627c2.037-.215 3.829 1.238 4.04 3.24l.598 5.695c.163 1.555-.489 2.321-1.997 3.247-1.509.927-3.386 1.997-5.813 3.474-.459.292-.751.496-.696 1.016l.344 3.279 9.426-.989.381 3.624-13.396 1.406-.83-7.87zM38.884 131.164c-.211-2.002.941-2.682 2.652-3.664 2.073-1.195 3.103-1.688 5.178-2.882.461-.259.742-.567.688-1.085l-.413-3.938c-.054-.518-.508-.854-1.025-.799l-3.419.358c-.517.055-.891.478-.837.995l.214 2.039-4.042-.274-.236-2.245c-.21-2.002 1.208-3.791 3.21-4.001l5.973-.627c2.037-.214 3.83 1.237 4.04 3.239l.598 5.697c.163 1.555-.489 2.32-1.997 3.246-1.509.927-3.386 1.996-5.814 3.475-.458.291-.751.496-.696 1.014l.345 3.281 9.426-.99.38 3.625-13.396 1.406-.829-7.87zM54.319 129.195l-.363-3.453 8.562-.899.363 3.453-8.562.899zM65.713 128.348c-.21-2.002.94-2.682 2.652-3.664l5.178-2.883c.461-.258.742-.566.688-1.084l-.413-3.938c-.054-.518-.508-.854-1.025-.799l-3.418.358c-.519.054-.892.478-.838.995l.214 2.038-4.043-.273-.235-2.245c-.211-2.002 1.207-3.791 3.21-4.001l5.972-.627c2.038-.214 3.83 1.237 4.041 3.239l.598 5.697c.163 1.555-.489 2.32-1.997 3.246-1.509.927-3.386 1.996-5.814 3.474-.458.292-.75.497-.695 1.015l.344 3.281 9.426-.99.381 3.624-13.396 1.407-.83-7.87zM93.888 110.102l.381 3.623-8.803.925.608 5.801c1.966-.555 3.982-.978 5.673-1.154 2.348-.247 3.829 1.239 4.04 3.241l.721 6.871c.21 2.002-1.241 3.794-3.278 4.008l-6.249.656c-2.002.21-3.761-1.246-3.971-3.248l-.119-1.139 3.897-1.107.098.932c.054.519.508.855 1.025.801l3.695-.389c.518-.054.891-.477.837-.996l-.519-4.936c-.058-.553-.439-.861-1.025-.801-.863.092-2.647.383-3.527.649-.676.211-.866.72-.812 1.237l.098.932-4.015.004-1.529-14.569 12.774-1.341zM109.466 117.82l1.442 13.74-4.004.42-2.414-22.992 4.004-.42 7.624 13.439 4.667-14.73 4.005-.42 2.414 22.992-4.005.42-1.442-13.74-3.354 10.266-3.522.37-5.415-9.345zM148.752 127.587l-4.179.439-2.182-4.83-7.768.815-1.062 5.172-4.178.439 5.354-23.808 3.833-.402 10.182 22.175zm-13.272-7.402l5.316-.558-3.579-8.49-1.737 9.048zM155.073 126.924l-4.143.435-2.414-22.992 4.143-.435 2.414 22.992zM164.295 117.998c-.21-2.002.939-2.682 2.652-3.664l5.177-2.883c.462-.258.743-.566.688-1.084l-.413-3.938c-.054-.518-.508-.854-1.025-.799l-3.419.358c-.518.054-.891.477-.837.995l.214 2.038-4.043-.273-.235-2.245c-.211-2.002 1.207-3.791 3.21-4.001l5.972-.627c2.038-.214 3.83 1.237 4.04 3.239l.598 5.697c.163 1.555-.488 2.32-1.996 3.246-1.51.927-3.386 1.996-5.814 3.474-.458.292-.751.497-.696 1.015l.344 3.281 9.426-.99.381 3.624-13.395 1.407-.829-7.87zM181.763 120.457l-1.652-15.744c-.211-2.002 1.207-3.791 3.21-4l6.663-.7c2.037-.214 3.83 1.237 4.041 3.239l1.652 15.744c.211 2.002-1.242 3.795-3.279 4.009l-6.663.7c-2.003.209-3.761-1.246-3.972-3.248zm8.385-15.891c-.054-.518-.509-.854-1.026-.799l-4.108.432c-.518.054-.892.477-.838.994l1.465 13.949c.054.518.508.854 1.025.801l4.108-.432c.518-.055.893-.479.839-.996l-1.465-13.949zM205.211 98.414l2.414 22.992-3.97.416-1.997-19.022-5.67 2.516-.417-3.971 5.67-2.516 3.97-.415zM208.75 112.144l7.891-14.929 3.971-.418 1.465 13.947 3.694-.387.085 3.48-3.417.359.587 5.592-3.971.418-.587-5.594-9.355.982-.363-3.45zm9.356-.982l-.83-7.906-4.21 8.435 5.04-.529z"/><path fill="#FEE900" d="M98.579 90.322l3.735-3.286 4.328 2.471-2.069-4.516 3.778-3.414-4.999.569-1.974-4.405-1.026 4.701-5.021.516 4.345 2.541z"/><g fill="#12100B"><path d="M54.169 154.971l1.748-.184 2.824 7.344.373-7.68 1.963-.205-.784 11.29-1.997.21-2.934-7.754-1.244 8.192-1.997.21-3.111-10.882 1.963-.207 1.959 7.436 1.237-7.77zM67.802 153.539l1.749-.183 2.824 7.343.373-7.679 1.963-.206-.784 11.29-1.997.21-2.935-7.753-1.243 8.191-1.997.21-3.112-10.882 1.964-.207 1.958 7.436 1.237-7.77zM81.438 152.108l1.748-.184 2.824 7.344.372-7.68 1.963-.206-.784 11.29-1.997.21-2.935-7.753-1.243 8.191-1.998.21-3.111-10.882 1.964-.206 1.959 7.434 1.238-7.768zM93.891 150.801l6.725-.706.192 1.832-4.728.495.288 2.747 4.312-.453.193 1.831-4.313.453.299 2.846 4.728-.496.192 1.831-6.725.705-1.163-11.085zM102.931 149.852l1.997-.21.971 9.256 4.528-.476.192 1.83-6.525.686-1.163-11.086zM111.438 148.958l6.725-.705.192 1.831-4.728.496.289 2.747 4.311-.452.193 1.83-4.311.453.299 2.846 4.728-.496.192 1.831-6.725.706-1.165-11.087zM126.547 154.692l2.032.123.176 1.682c.107 1.016-.623 1.917-1.639 2.023l-3.745.393c-1.016.107-1.899-.624-2.005-1.641l-.78-7.423c-.106-1.016.606-1.915 1.622-2.022l3.745-.393c1.016-.107 1.916.624 2.023 1.639l.166 1.581-1.962.543-.156-1.481c-.026-.25-.246-.412-.495-.385l-2.497.262c-.249.026-.43.23-.403.479l.688 6.558c.027.251.245.412.495.387l2.497-.263c.249-.025.431-.23.404-.48l-.166-1.582zM129.185 147.096l8.023-.843.192 1.831-3.013.316.971 9.254-1.997.211-.972-9.255-3.013.316-.191-1.83zM142.101 156.947l-1.997.21-1.163-11.087 1.997-.209 1.163 11.086zM144.473 154.848l-.779-7.425c-.107-1.015.607-1.915 1.622-2.021l3.913-.41c1.015-.106 1.916.623 2.022 1.639l.779 7.424c.107 1.017-.624 1.916-1.639 2.023l-3.912.411c-1.016.106-1.899-.626-2.006-1.641zm4.825-7.575c-.027-.25-.244-.412-.495-.386l-2.664.28c-.249.025-.431.229-.404.479l.688 6.559c.026.249.246.412.495.385l2.664-.278c.251-.026.43-.23.404-.481l-.688-6.558zM162.843 154.77l-1.931.202-4.947-6.732.753 7.174-1.932.202-1.163-11.086 1.932-.202 4.95 6.767-.756-7.207 1.931-.203 1.163 11.085zM166.68 149.134c-1.014-.197-1.864-.596-1.97-1.611l-.239-2.28c-.106-1.017.606-1.915 1.622-2.021l3.529-.37c1.016-.107 1.917.623 2.023 1.639l.136 1.298-1.961.543-.125-1.199c-.027-.249-.246-.411-.496-.385l-2.281.238c-.249.027-.431.231-.404.48l.145 1.382c.027.25.244.396.5.436l3.12.531c.976.166 1.813.6 1.919 1.616l.261 2.479c.107 1.017-.607 1.915-1.623 2.021l-3.595.377c-1.016.107-1.917-.623-2.023-1.638l-.133-1.265 1.962-.543.122 1.164c.027.25.246.413.496.386l2.347-.246c.249-.026.43-.23.403-.48l-.167-1.597c-.026-.25-.226-.381-.499-.419-1.302-.217-1.799-.3-3.069-.536zM174.415 149.719c-.102-.967.453-1.294 1.278-1.768l2.496-1.39c.224-.124.359-.273.333-.522l-.199-1.897c-.027-.25-.246-.412-.496-.386l-1.648.173c-.249.026-.431.23-.404.48l.104.982-1.95-.132-.114-1.082c-.102-.965.583-1.828 1.548-1.93l2.88-.303c.981-.103 1.846.598 1.947 1.563l.288 2.747c.079.748-.235 1.118-.962 1.564-.728.446-1.632.962-2.804 1.674-.219.142-.36.241-.334.489l.166 1.582 4.543-.478.183 1.748-6.458.678-.397-3.792zM183.486 150.836l-.797-7.591c-.102-.965.583-1.828 1.548-1.93l3.213-.337c.982-.102 1.846.598 1.948 1.562l.797 7.591c.102.965-.599 1.829-1.581 1.933l-3.212.337c-.966.102-1.814-.6-1.916-1.565zm4.043-7.661c-.027-.25-.245-.411-.495-.386l-1.982.208c-.249.026-.43.23-.404.48l.706 6.725c.027.25.245.411.495.386l1.982-.208c.249-.026.43-.231.404-.48l-.706-6.725zM195.443 140.14l1.163 11.086-1.914.2-.963-9.172-2.733 1.213-.201-1.914 2.734-1.212 1.914-.201zM197.796 146.691l3.807-7.199 1.914-.2.705 6.725 1.781-.187.042 1.679-1.648.173.283 2.696-1.915.201-.283-2.696-4.51.473-.176-1.665zm4.512-.474l-.4-3.811-2.03 4.066 2.43-.255zM207.694 150.061l-.239-2.28 2.164-.228.239 2.28-2.164.228zM211.258 138.479l6.725-.705.192 1.831-4.729.496.289 2.747 4.311-.452.193 1.83-4.311.453.298 2.846 4.729-.497.191 1.831-6.725.706-1.163-11.086zM225.608 136.973l1.997-.21.971 9.255c.107 1.016-.623 1.917-1.639 2.023l-3.745.394c-1.017.106-1.899-.625-2.007-1.642l-.971-9.254 1.997-.21.926 8.821c.027.251.246.412.495.387l2.497-.263c.249-.026.431-.23.404-.48l-.925-8.821z"/></g><path fill="#12100B" d="M325.326 108.412l-2.865.303-1.499-3.314-5.328.561-.727 3.551-2.867.301 3.668-16.334 2.628-.277 6.99 15.209zm-9.109-5.076l3.648-.383-2.458-5.822-1.19 6.205zM330.623 99.377l5.588-.588.609 5.777c.152 1.445-.888 2.727-2.331 2.881l-5.329.56c-1.443.15-2.702-.891-2.854-2.334l-1.114-10.562c-.151-1.443.863-2.723 2.308-2.877l5.328-.561c1.445-.154 2.728.885 2.881 2.33l.185 1.754-2.793.77-.169-1.609c-.039-.354-.35-.584-.705-.549l-3.552.375c-.356.037-.612.328-.575.684l.983 9.332c.038.355.349.584.705.549l3.551-.375c.355-.037.612-.328.576-.684l-.281-2.654-2.748.289-.263-2.508zM342.305 106.623l-2.841.301-1.663-15.775 2.843-.299 1.661 15.773zM350.213 99.635l-2.984.316.642 6.086-2.841.299-1.663-15.773 8.265-.871c1.445-.15 2.729.885 2.88 2.328l.472 4.477c.13 1.232-.591 2.34-1.699 2.742l3.681 5.84-3.126.328-3.627-5.772zm1.522-6.697c-.038-.355-.35-.588-.705-.549l-4.548.479.472 4.477 4.549-.479c.355-.039.611-.328.575-.684l-.343-3.244zM358.623 104.902l-.341-3.244 3.077-.326.342 3.246-3.078.324zM295.085 125.012l-2.984.311.641 6.088-2.844.299-1.66-15.773 8.265-.871c1.445-.15 2.73.887 2.88 2.332l.473 4.477c.129 1.232-.593 2.336-1.698 2.742l3.679 5.838-3.126.33-3.626-5.773zm1.52-6.701c-.037-.352-.348-.584-.704-.547l-4.548.48.473 4.477 4.548-.481c.354-.037.611-.326.574-.684l-.343-3.245zM301.948 114.492l9.568-1.008.275 2.605-6.727.707.412 3.91 6.134-.646.275 2.604-6.135.648.428 4.049 6.726-.711.275 2.606-9.567 1.01-1.664-15.774zm4.055-1.742l-1.383-1.316 2.709-2.92 1.41 1.336-2.736 2.9zM327.365 127.762l-2.865.303-1.5-3.314-5.328.562-.727 3.547-2.865.303 3.667-16.336 2.628-.275 6.99 15.21zm-9.108-5.076l3.647-.383-2.457-5.824-1.19 6.207zM332.662 118.727l5.589-.588.609 5.777c.152 1.447-.886 2.729-2.33 2.879l-5.329.564c-1.443.15-2.704-.891-2.855-2.334l-1.113-10.564c-.152-1.443.861-2.725 2.307-2.877l5.327-.561c1.447-.152 2.729.885 2.881 2.33l.186 1.754-2.793.771-.171-1.607c-.035-.359-.348-.59-.702-.551l-3.552.373c-.357.037-.613.328-.576.685l.984 9.332c.036.355.349.584.704.547l3.553-.373c.355-.039.609-.33.573-.684l-.279-2.654-2.746.289-.267-2.508zM344.344 125.975l-2.842.299-1.662-15.775 2.841-.299 1.663 15.775zM352.251 118.986l-2.983.314.641 6.086-2.842.299-1.661-15.771 8.264-.873c1.445-.152 2.729.887 2.881 2.33l.47 4.477c.13 1.232-.59 2.338-1.696 2.742l3.68 5.838-3.126.33-3.628-5.772zm1.523-6.701c-.038-.354-.351-.584-.704-.547l-4.549.481.473 4.476 4.548-.48c.354-.037.612-.328.574-.683l-.342-3.247zM360.662 124.254l-.342-3.246 3.078-.324.341 3.244-3.077.326zM263.167 154.094l-2.866.301-1.499-3.314-5.328.562-.728 3.549-2.867.303 3.668-16.338 2.628-.273 6.992 15.21zm-9.109-5.076l3.648-.383-2.457-5.824-1.191 6.207zM271.518 147.68l2.891.176.253 2.391c.152 1.445-.887 2.727-2.332 2.881l-5.327.562c-1.445.15-2.705-.891-2.857-2.334l-1.112-10.564c-.151-1.441.862-2.725 2.308-2.877l5.328-.562c1.444-.15 2.725.889 2.88 2.334l.237 2.248-2.792.773-.223-2.107c-.036-.354-.35-.586-.703-.549l-3.553.375c-.356.037-.613.328-.576.682l.984 9.334c.038.354.35.584.704.547l3.553-.373c.355-.037.611-.328.574-.684l-.237-2.253zM284.4 146.324l2.894.172.251 2.395c.152 1.443-.887 2.727-2.33 2.877l-5.329.562c-1.444.152-2.704-.887-2.857-2.332l-1.112-10.564c-.151-1.443.862-2.725 2.307-2.875l5.329-.562c1.446-.15 2.728.887 2.879 2.328l.238 2.254-2.792.771-.223-2.107c-.037-.355-.35-.588-.704-.549l-3.552.375c-.356.037-.611.328-.576.684l.983 9.33c.038.355.35.586.705.549l3.553-.375c.355-.037.61-.326.573-.684l-.237-2.249zM289.911 148.639l-1.112-10.561c-.152-1.447.863-2.727 2.308-2.879l5.566-.586c1.444-.152 2.727.887 2.879 2.33l1.112 10.562c.152 1.447-.885 2.729-2.33 2.879l-5.565.586c-1.445.155-2.705-.886-2.858-2.331zm6.863-10.782c-.038-.354-.349-.582-.705-.547l-3.788.398c-.358.037-.612.33-.577.686l.985 9.332c.038.354.35.584.705.547l3.789-.398c.356-.039.612-.328.574-.684l-.983-9.334zM305.296 140.121l.994 9.428-2.747.287-1.662-15.771 2.746-.291 5.234 9.221 3.197-10.107 2.747-.289 1.664 15.773-2.748.291-.994-9.428-2.299 7.041-2.415.256-3.717-6.411zM318.529 132.311l8.029-.846c1.444-.154 2.728.885 2.88 2.328l.472 4.477c.152 1.445-.887 2.729-2.331 2.881l-5.186.547.641 6.086-2.841.301-1.664-15.774zm8.131 2.398c-.037-.355-.349-.586-.704-.549l-4.312.455.474 4.477 4.311-.455c.355-.037.611-.326.573-.684l-.342-3.244zM330.821 131.014l2.841-.301 1.388 13.17 6.442-.68.274 2.607-9.284.977-1.661-15.773zM346.382 145.322l-2.84.301-1.663-15.773 2.841-.299 1.662 15.771zM354.29 138.336l-2.983.314.643 6.086-2.842.299-1.663-15.773 8.266-.871c1.444-.152 2.728.889 2.879 2.332l.473 4.475c.129 1.232-.591 2.336-1.699 2.74l3.68 5.842-3.126.328-3.628-5.772zm1.523-6.701c-.036-.352-.351-.584-.704-.547l-4.548.482.473 4.473 4.546-.479c.356-.037.611-.326.576-.684l-.343-3.245zM362.701 143.604l-.343-3.244 3.078-.326.344 3.246-3.079.324z"/><path fill="#9C9896" d="M289.397 78.74l-.027-.007c-.118-.028-.195.049-.244.115-.273-.269-.566-.098-.765.022-.176.106-.266.151-.34.101l-.001-.001-.093.141c-.013-.085-.055-.188-.114-.302l-.029-.056-.561-.089-.032.099c-.097.293-.31.287-.676.253-.248-.025-.522-.042-.719.128l-.343.074c-.387.097-.65.145-.845-.04l-.091-.107-.015-.009-.125.111c-.201.029-.408.076-.608.128-.475.121-.939.089-1.311-.095l-.193-.097.019.218-.026.051-.037.009c-.566.143-1.101.275-1.387-.213l-.223.095.017.026-.002.001.017.024.089.146.076.119-.005.008-.096.001c-.145.008-.193.005-.235-.064l-.039-.063-.087.006-.302.022c-.246.004-.525.014-.782.24-2.589.3-4.82.515-6.977.723l-.931.091.073.679c.369-.087.732-.126 1.109.017l.177.067-.011-.146c.752-.16 1.501-.223 2.225-.28l1.221-.11.027-.05c.041-.061.046-.065.173.011.085.053.191.119.31.079.064-.019.111-.074.154-.146.354.093.701.048 1.039-.008.302-.049.584-.097.827-.019l.172.054-.012-.16 2.737-.306.048-.039c.269-.216.441-.303.584-.133l.118.141.068-.141.084-.162.039-.085.023.003.079.097-.005.009.028.068.011.01.044.22.107-.141.077-.015.006-.092.002-.001.012.011.19.155.053-.053c.471-.259 1.366-.494 1.999-.107l.162.101.046-.405c.592.065 1.097.039 1.647-.099l.079-.019.012-.081.062-.128c.073-.051.226-.023.347.001.157.029.307.056.392-.058l.038-.091.094.033c.154.061.332.094.573.072l.064-.004.032-.058.078-.1.125.086c.086.073.192.164.328.152l.074-.007.027-.069.016-.092-.018-.05.333-.203-.256-.217zm-42.139-1.189c.515.223.86.459 1.025.703l.267.396-.078-.829-.015-.026c-.201-.321-.619-.459-.924-.56l-.056-.019c-.375-.412-1.089-.652-1.572-.811l-.023-.008-.029.004c-.144.013-.308.042-.45.122-.235-.192-.512-.172-.78-.145-.204.023-.414.044-.619-.022l-.03-.009-.033.005c-.144.03-.245.113-.335.184-.123.099-.204.162-.367.12l-.03-.009-.03.009c-.192.047-.261.153-.282.233-.06.206.123.45.286.617l.059.062.078-.035c.689-.315 1.083-.325 1.72-.32l.01.001.011-.002c.539-.093.998.035 1.484.169.227.065.465.129.713.17m42.491 1.47l-.026.237.169.051.112-.21-.108-.091-.147.013zm.941-.083l-.105-.069-.05-.033.193-.23-.739.066.011.122.035.38.121-.011.19.046c.132.045.375.129.469-.106l.071-.184-.196.019zm-39.841 3.792c-.551.103-1.071.2-1.586.043l-.075-.021-.054.06c-.055.066-.121.095-.195.13-.084.038-.183.084-.26.188-.309-.25-.604-.099-.85.027-.256.132-.425.204-.616.052l-.101.043-.096.075c.049.256.243.276.357.289.106.011.144.017.173.083l.043.101.091-.029.391-.122c.223-.082.452-.167.585-.087l.051.032.057-.019c.437-.163.938-.163 1.468-.159.522.002 1.063 0 1.577-.161l-.069-.646c-.303.014-.6.068-.891.121m18.024-12.145c-.265-.317-.587-.507-.9-.69-.277-.16-.538-.315-.75-.548l-.002-.012.107-.109c.085-.053.202-.125.249-.267l.051-.161h-.167c-.725.003-1.407.005-2.002-.345l-.023-.013-.025-.004c-.278-.033-.329-.194-.392-.379-.041-.132-.091-.28-.234-.348-.105-.048-.247-.032-.423.025-.18-.245-.443-.322-.682-.384-.283-.071-.444-.123-.5-.338l-.056-.207-.151.149c-.123.127-.152.102-.282-.013l-.166-.122.011.001.018-.243h-.017v-.001l-.327-.035c-.205-.032-.437-.063-.697-.001-.151.002-.276-.077-.406-.16-.182-.117-.406-.252-.685-.086l-.063-.048c.135-.295.413-.481.683-.66.256-.169.523-.344.65-.613l-.197-.14c-.189.195-.409.335-.645.485-.225.142-.455.287-.668.489l-.178-.019c-.093-.025-.21-.056-.314.006l-.1.108-.115-.074-.153-.093c-.147-.222-.405-.229-.64-.224-.313.004-.583.009-.727-.379l-.011-.024-.017-.019c-.083-.088-.196-.116-.31-.074-.109.036-.19.139-.234.252l-.026.004c.003-.055.052-.164.084-.202l.156-.178-.226-.023-.228-.023c-.277-.031-.537-.053-.802.11l-.036-.009c-.143-.035-.194-.056-.2-.114l.009-.081.023-.098-.095-.04c-.187-.08-.387-.052-.564-.027-.283.04-.314.02-.333-.085l-.022-.131-.127.033c-.25.064-.506-.014-.757-.091-.311-.096-.635-.194-.928.001l.016-.01c-.145.064-.175.022-.275-.144-.052-.087-.107-.184-.202-.248l-.069-.047-.374.267c-.143-.087-.296-.153-.446-.212l-.363-.155-.056.02c-.175.083-.386.027-.607-.03-.204-.053-.428-.098-.646-.047l-.004-.04-.711.067c-.392-.189-.773-.157-1.142-.122-.398.038-.772.074-1.127-.189l-.128-.096-.058.15c-.028.073-.073.085-.205.102l-.161.031.007-.002c-.155.044-.29.017-.399-.084-.13-.119-.202-.331-.172-.492l.081-.397-.285.287c-.105.104-.129.233-.152.349-.025.135-.052.215-.143.274l-1.095.156c-1.206.165-2.456.334-3.657.752l-.036.014-.023.031c-.188.265-.239.475-.222.638.014.132.074.235.142.308l.04.047 2.562-.243c.266.012.515-.028.757-.065.378-.059.707-.104 1.061.06-.221 1.058-.523 1.996-.88 2.711l-.018.036.007.04.01.076c.05.457-.144.924-.332 1.376-.143.34-.288.69-.325 1.031-.05.207-.07.437-.09.659-.037.406-.071.791-.277 1.129l-.037.058.033.061.036.134c.023.224-.084.53-.141.692l-.037.113-.058.308c-.043.222-.095.474-.072.702.02.173.084.335.229.455l.092.074.076-.085c.196-.215.249-.498.3-.771.04-.233.082-.454.202-.63l.042-.061-.035-.065-.057-.178c-.017-.163.062-.31.148-.472.082-.159.169-.317.149-.493l-.017-.072c-.003-.205.068-.419.139-.628.07-.211.136-.43.127-.64.116-.211.155-.454.188-.69.028-.211.057-.409.141-.555l.013-.021.001-.026c.062-.536.212-1.053.356-1.553.146-.506.296-1.03.362-1.581.036-.104.044-.222.051-.336.018-.27.045-.362.167-.385l.103-.021-.004-.14-.003-.066-.041-.12.101-.122c1.774-.065 3.694.189 5.39.416l.081.011c.801.085 1.61.227 2.396.366.796.141 1.551.27 2.294.348l.006.07.636.052c.246.175.527.229.799.28.237.044.462.09.647.212-.132.105-.205.268-.231.431-.476.21-1.094.617-1.459 1.097-.024.041-.084.044-.169.047-.124 0-.385.002-.388.305v.027c-.164.016-.219.152-.251.235l-.044.091c-.081-.036-.164-.034-.221-.024l-.108.016-.035.049c-.265.439-.735.749-1.189 1.048-.474.312-.961.638-1.234 1.116-.748.32-1.289.787-1.81 1.241-.401.351-.817.713-1.334 1.013l.09.223c.52-.118 1.189-.594 1.46-1.037l.001-.003.013-.025.023.01.268.062.008-.057c.383-.43.704-.728 1.21-.975l.017-.006.015-.015c.523-.496 1.082-.912 1.625-1.313.617-.459 1.199-.891 1.722-1.428l.144-.145-.069-.02c.212-.074.438-.235.645-.382.148-.105.372-.265.439-.259l.032-.094c.304-.122.51-.338.703-.551l.049-.051.005-.003.069-.029.003-.05c.112-.115.225-.223.36-.293l.125-.064.266.028c.336.021.752.047 1 .351l.115.143.107-.198c.107 0 .185.019.242.083l.052.057.073-.02c.222-.064.397.008.599.093.186.077.395.163.641.123.52.35 1.195.542 1.738.669l.069.052c.062.045.148.106.153.148l.014.145.14-.04c.291-.083.677.181 1.017.431l.014.013.021.005c.118.04.246.044.369.047.224.008.36.025.44.152l-.034.043-.13-.05c-.087-.047-.197-.107-.314-.054-.1.046-.148.16-.174.261l-2.295 1.046c-3.414 1.547-6.646 3.013-9.798 5.24l3.477-.375c.191-.117.395-.188.647-.161l.056.007.042-.042c.223-.221.494-.36.779-.508.303-.157.613-.324.866-.592l.339.281.023-.226c.028-.272.192-.323.479-.389.216-.052.457-.109.596-.334.071-.07.12-.058.248-.009.086.031.183.066.297.057l.047-.005.104-.122c.081-.092.158-.193.21-.317.314-.099.62-.304.92-.507.398-.271.775-.525 1.069-.457l.105-.212-.13-.105.083-.006.232-.028.004-.014c.148-.104.287-.163.423-.219.224-.093.457-.196.683-.496.311-.048.522-.223.691-.371.094-.08.174-.149.246-.175l.85-.177.117-.023-.022-.116-.005-.031c-.013-.113.039-.143.274-.191l.233-.069.07.06.09.083-.001.002-.017.115.113.022c.422.084.823.339 1.212.586l.646.381.056-.041.091-.042.035.066c.042.092.119.259.336.238l.132-.013-.023-.13c-.054-.256-.229-.583-.776-.707m20.672 8.178c.035.055.116.183.326.092l.08-.035-.033-.372-.381.035-.034.234.042.046m-17.269-11.467l-.37.035.011.122.021.217.373-.034-.035-.34zm-2.231-.756l.008.013.01.009c.338.302.756.477 1.16.646l.523.233.118-.213-.719-.469c-.543-.36-1.103-.726-1.668-1.027l.007-.008-.198-.144-.038.048-.065-.053c-.062-.059-.168-.155-.301-.143-.166-.306-.509-.333-.77-.351-.171-.011-.333-.022-.396-.098l-.038-.105.002-.115-.233-.063-.133.308-.027.06.02-.098c.035-.195-.096-.304-.184-.374l-.09-.105.011-.133-.134.002c-.181.005-.299-.062-.436-.137-.167-.096-.356-.201-.656-.152l-.104.017-.012-.186-.017-.114-.115.011c-.416.04-.827-.31-1.157-.589l-.281-.23-.047.009-.268.026-.052-.061-.021-.019.035-.146-.451.042.012.128-.039.009c-.306-.454-.706-.407-1.066-.354-.217.031-.443.065-.658-.002-.061-.03-.088-.087-.132-.186l-.083-.168-.03-.007c-.348-.172-.737-.26-1.113-.345l-.493-.117-.002.007-.073-.04c-.172-.092-.357-.155-.537-.217-.262-.087-.511-.171-.666-.333l-.078-.08-.16.131c-.117.049-.219.057-.289.022-.055-.029-.095-.09-.112-.179l-.053-.255-.183.232-.12.091.034.02-.157-.081-.068-.03.04-.15-.141-.036-.132-.024c-.14-.028-.369-.072-.519.06l-.206-.284-.068.006c-.055.005-.2.02-.278.118l-.286.025c-.341.061-.494.06-.56-.112l-.081-.206-.132.179-.049.057-.061-.066c-.055-.072-.124-.156-.23-.201-.067-.062-.155-.122-.253-.1-.106.023-.148.125-.181.197-.048.114-.057.113-.106.098l-.022-.018.108-.274-.288.147c-.072.035-.225.005-.258-.025l.002.085-.144-.189c-.375.171-.761.059-1.168-.061-.268-.078-.544-.154-.817-.146l-.008-.077-.128.02c-.483.078-.883.048-1.258-.099l-.047-.017-.045.02c-.35.153-.788.106-1.213.06-.416-.045-.842-.087-1.214.049-.27-.284-.559-.131-.754-.02-.191.106-.271.124-.348.066l-.015-.151-1.248.065c-.629.043-1.28.085-1.924.067l-.025-.002-.005.004-.253.09c-.229.099-.375.149-.472.03l-.094-.115-.208.253c-.281.019-.687.105-1.118.197-.586.127-1.252.27-1.472.199l-.015-.004-.013-.001c-.525-.046-1.004.122-1.509.302-.342.121-.696.238-1.069.291l-.005-.012c-.129-.148-.477-.06-1.859.464l-.496.183c-.033-.145-.11-.261-.186-.356-.071-.092-.108-.147-.111-.196l.046-.117.14-.166-.228-.034-.036-.105-.013-.046-.06-.035-.11-.072c-.12-.086-.301-.218-.511-.091l-.096.055.484 1.101c.251.542.489 1.054.644 1.663l.004.014.009.014c.468.849.817 1.697 1.225 2.678l.084.205.254.684c.155.455.304.884.658 1.286.228.459.365.854.498 1.235.148.429.303.875.585 1.411.251.43.486.915.733 1.428.215.442.437.898.668 1.313l-.009.12c.028.258.263.397.454.515l.223.152.098.098.007.007c.049.062.088.127.096.212l.002.03h.242v-.016l-.002-.089c-.018-.165-.094-.243-.163-.307l-.099-.099-.03-.055.047-.175-.011-.044c-.037-.112-.147-.146-.245-.179l-.161-.082c.062.002.142-.001.203-.06l.089-.237-.04-.007c-.087-.136-.175-.179-.267-.226l-.061-.035.007-.008.004-.039-.003-.282c-.024-.234-.108-.479-.266-.625-.067-.061-.146-.094-.23-.113l.125-.248-.369-.217.014-.039-.001-.024-.006-.088c-.039-.362-.214-.687-.382-1.003-.125-.234-.241-.455-.299-.677l-.004-.01-.544-1.263c-.403-.96-.783-1.865-1.419-2.855l-.077-.335c-.036-.221-.079-.428-.295-.615l-.001-.158c-.044-.405-.279-.755-.508-1.095-.222-.329-.432-.642-.47-.986v-.139c.428-.202 1.02-.398 1.808-.599l.009-.002c.72-.241 1.344-.284 1.844-.32.461-.032.802-.062.987-.241l.099.042c.179.168.795.04 2.426-.404.464-.127.901-.246 1.165-.297l.013-.002.013-.005c.12-.054.278-.028.446-.005.251.04.556.073.802-.167l1.285.032c.882.032 1.792.063 2.725-.021.446.19.984.183 1.463.173.213-.005.409-.006.59.008l.006.074.213-.003c.098.001.23-.007.319-.089.473.123 1.052.162 1.615.197.371.022.72.044 1.022.09.448.332.929.324 1.396.309.428-.013.831-.026 1.217.214l.062.039.063-.038c.233-.138.338-.051.512.093.157.132.354.287.662.208.27.25.553.106.74.006.096-.052.197-.105.247-.083.022.009.079.054.137.257l.022.083.086.006.224.068c.159.06.337.13.444-.001l.065-.077-.074-.091.106-.129-.001.012c-.016.136.009.239.076.313.109.124.297.124.476.123.297-.001.479.012.529.283l.06.33.178-.322.063-.02.053.045.05.042-.005.106.096.04.683.2c.483.152.941.293 1.447.284.085.16.236.213.354.25.11.033.177.055.206.12l.043.086.093-.021c.21-.044.375.069.607.294l.064.061.077-.041c.07-.036.226.059.339.127.15.092.294.178.417.097l.065-.073.107.049c.359.168.811.42 1.334.75l.153.095.004-.027.516.257c.285.134.553.262.801.447l.025.019.032.004c.38.047.602.162.659.337l.021.062.048.011.275.08c.164.035.295.06.394.203m-7.917-1.989l-.372.035.011.12.02.22.373-.036-.032-.339z"/><path fill="#fff" d="M250.999 76.082l19.611-2.108 1.407 13.087-19.611 2.108z"/><path fill="#164194" d="M271.691 86.78l-19.047 2.048-1.346-12.519 19.047-2.048z"/><path fill="#FFED00" d="M259.98 85.268l-.196-.444-.096.475-.492.049.428.256-.104.487.361-.331.425.25-.203-.456.367-.341-.49.055zm-1.907-1.466l-.196-.442-.097.475-.492.05.426.256-.103.487.364-.332.425.25-.205-.455.367-.343-.489.054zm-.811-1.557l.425.248-.206-.454.37-.344-.489.057-.196-.444-.098.474-.49.052.426.255-.104.486.362-.33zm.333-3.161l-.099.474-.49.052.426.256-.104.488.362-.331.425.247-.203-.455.366-.342-.488.056-.195-.445zm.981-.342l.364-.332.425.251-.206-.456.37-.342-.489.057-.195-.444-.099.473-.491.052.427.256-.106.485zm3.516 6.912l-.195-.442-.099.475-.488.049.432.258-.105.485.363-.332.427.248-.206-.455.361-.341-.49.055zm1.981-.828l-.196-.442-.096.477-.49.047.433.258-.103.487.362-.335.424.246-.205-.452.364-.341-.493.055zm1.553-1.836l-.195-.444-.099.475-.487.052.431.256-.103.487.361-.332.423.244-.203-.452.36-.341-.488.055zm.747-2.211l-.489.055-.196-.442-.096.475-.49.049.432.258-.102.488.361-.334.425.245-.206-.453.361-.341zm-1.834-1.199l.362-.334.425.246-.206-.453.362-.342-.49.055-.196-.441-.097.475-.489.049.432.258-.103.487zm-1.306-2.579l-.096.477-.49.047.432.258-.102.488.361-.334.426.245-.205-.451.361-.342-.492.054-.195-.442zm-2.248-.327l-.1.474-.488.053.43.254-.104.487.362-.332.426.248-.204-.455.362-.338-.491.053-.193-.444z"/><path fill="#12100B" d="M252.914 90.955c.164-.055.387-.102.611-.127.352-.037.636-.018.849.148.197.135.305.379.333.637.035.328-.038.572-.179.756-.168.223-.459.346-.706.371l-.117.01.12 1.131-.59.062-.321-2.988zm.738 1.316l.101-.006c.296-.031.403-.256.374-.541-.03-.266-.16-.461-.434-.432l-.142.039.101.94zM255.508 92.998l-.06.709-.571.059.332-3.104.706-.076.916 2.971-.572.062-.204-.68-.547.059zm.443-.514l-.166-.623-.174-.68-.014.002-.034.703-.045.645.433-.047zM256.841 90.531c.181-.055.413-.104.637-.128.326-.034.624-.017.836.139.202.146.282.343.31.603.036.326-.096.637-.387.807l.001.012c.217.061.341.242.433.562.096.33.217.697.284.803l-.617.068c-.049-.084-.151-.381-.232-.715-.094-.367-.2-.465-.394-.445l-.09.01.13 1.211-.591.064-.32-2.991zm.733 1.262l.107-.012c.257-.027.379-.252.35-.518-.026-.262-.152-.43-.412-.41l-.144.033.099.907zM258.952 90.26l.589-.065.273 2.537.774-.086.053.5-1.364.148-.325-3.034zM262.123 91.639l-.689.076.087.818.779-.084.055.514-1.367.148-.327-3.035 1.319-.144.055.515-.73.078.077.697.687-.074.054.491zM264.5 91.656c-.049-.285-.108-.676-.14-1l-.01.002c-.019.33-.06.713-.093.951l-.148 1.115-.416.043-.365-1.039c-.085-.236-.206-.607-.293-.932h-.009l.064 1.021.059 1.059-.504.055-.109-3.059.626-.068.36 1.074c.122.373.235.701.326 1.039l.015-.002c.008-.342.038-.691.074-1.084l.125-1.122.622-.068.51 3.015-.526.058-.168-1.058zM266.758 91.141l-.686.074.087.82.779-.086.055.516-1.369.146-.325-3.035 1.318-.143.056.514-.73.078.076.697.688-.073.051.492zM267.397 92.42l-.327-3.035.541-.057.598 1.138c.118.222.305.601.419.853h.008c-.051-.318-.148-.842-.209-1.4l-.072-.67.519-.057.326 3.035-.54.059-.589-1.104c-.13-.246-.308-.619-.409-.881l-.009.002c.052.303.125.77.189 1.381l.074.682-.519.054zM269.78 89.646l-.536.057-.059-.545 1.666-.18.058.546-.54.058.268 2.49-.59.062-.267-2.488zM273.336 90.433l-.689.073.089.82.779-.082.055.512-1.368.146-.327-3.033 1.32-.143.055.513-.73.078.075.7.689-.074.052.49zM274.219 88.617l.212 1.971c.049.447.192.566.35.551.172-.021.28-.154.23-.613l-.211-1.971.589-.063.201 1.867c.084.78-.168 1.235-.748 1.296-.636.068-.93-.34-1.012-1.102l-.203-1.873.592-.063zM275.901 88.48c.181-.057.414-.103.639-.127.323-.035.623-.016.836.138.201.147.282.343.31.603.036.325-.096.635-.387.808l.001.009c.216.064.341.242.434.566.097.33.217.695.283.801l-.616.068c-.051-.082-.151-.381-.232-.713-.096-.369-.201-.469-.395-.445l-.09.008.131 1.211-.59.064-.324-2.991zm.732 1.261l.108-.011c.258-.029.378-.252.35-.519-.027-.261-.15-.429-.411-.408l-.143.032.096.906zM279.961 89.479c.123 1.144-.231 1.652-.809 1.713-.69.076-1.038-.625-1.128-1.459-.088-.83.163-1.58.838-1.652.73-.079 1.024.704 1.099 1.398zm-1.322.197c.073.689.241 1.025.48 1 .252-.026.298-.486.232-1.103-.057-.531-.191-1.004-.459-.976-.235.024-.323.425-.253 1.079zM280.181 88.021c.162-.054.385-.102.61-.124.351-.039.636-.018.85.145.195.139.304.383.332.639.034.328-.038.574-.179.756-.168.223-.46.346-.707.373l-.117.009.121 1.13-.59.062-.32-2.99zm.738 1.318l.099-.005c.298-.033.406-.261.374-.541-.028-.266-.159-.46-.433-.432l-.142.037.102.941zM283.693 89.317l-.689.074.088.819.779-.082.055.512-1.37.148-.325-3.033 1.319-.145.056.514-.729.08.075.697.688-.074.053.49zm-.155-2.381l-.495.568-.419.045.313-.549.601-.064zM285.465 89.128l-.688.073.088.82.779-.084.056.514-1.369.146-.326-3.034 1.318-.143.055.514-.73.078.077.699.689-.074.051.491zM286.102 90.407l-.325-3.035.54-.058.596 1.139c.121.223.306.602.419.852h.011c-.053-.318-.151-.842-.211-1.398l-.071-.671.517-.056.327 3.033-.542.059-.589-1.104c-.13-.242-.307-.617-.407-.879h-.009c.052.306.122.77.189 1.381l.072.682-.517.055zM90.371 162.389l-.24-2.294 2.176-.227.24 2.292-2.176.229z"/></svg>