<?xml version="1.0" encoding="utf-8"?>
<!-- Generator: Adobe Illustrator 17.1.0, SVG Export Plug-In . SVG Version: 6.00 Build 0)  -->
<!DOCTYPE svg PUBLIC "-//W3C//DTD SVG 1.1//EN" "http://www.w3.org/Graphics/SVG/1.1/DTD/svg11.dtd">
<svg version="1.1" xmlns="http://www.w3.org/2000/svg" xmlns:xlink="http://www.w3.org/1999/xlink" x="0px" y="0px"
	 viewBox="0 0 841.89 595.28" enable-background="new 0 0 841.89 595.28" xml:space="preserve">
<g id="Calque_2">
</g>
<g id="Calque_1">
	<g>
		<path fill="#FFFFFF" d="M396.628,468.742l-4.884,0.514l-0.249,5.122l4.846-0.507l-0.153,3.055l-4.884,0.514l-0.498,7.676
			l-3.241,0.341l0.496-7.681l-6.134,0.649l-0.498,7.674l-3.243,0.343l0.496-7.681l-4.884,0.516l0.153-3.055l4.884-0.516l0.292-5.129
			l-4.887,0.516l0.159-3.021l4.922-0.516l0.465-7.596l3.246-0.339l-0.467,7.593l6.137-0.644l0.465-7.591l3.243-0.343l-0.467,7.598
			l4.886-0.516L396.628,468.742z M382.366,470.243l-0.29,5.124l6.173-0.649l0.254-5.124L382.366,470.243L382.366,470.243z
			 M400.541,457.786l15.786-1.659l0.453,4.296l-11.097,1.167l0.678,6.446l10.121-1.068l0.453,4.303l-10.121,1.062l0.703,6.682
			l11.097-1.167l0.451,4.303l-15.786,1.657L400.541,457.786L400.541,457.786z M421.413,455.591l13.245-1.394
			c2.386-0.247,4.498,1.463,4.747,3.849l0.779,7.387c0.247,2.384-1.459,4.494-3.849,4.745l-8.556,0.9l1.055,10.045l-4.687,0.492
			L421.413,455.591L421.413,455.591z M434.827,459.552c-0.061-0.584-0.577-0.967-1.163-0.905l-7.113,0.747l0.777,7.389l7.113-0.75
			c0.588-0.063,1.008-0.539,0.945-1.129L434.827,459.552z M444.315,470.488c-0.236-2.269,1.066-3.039,3.003-4.15l5.858-3.259
			c0.521-0.294,0.842-0.644,0.783-1.23l-0.469-4.456c-0.061-0.586-0.579-0.967-1.163-0.902l-3.87,0.406
			c-0.59,0.061-1.01,0.543-0.949,1.129l0.24,2.303l-4.574-0.31l-0.269-2.539c-0.236-2.267,1.367-4.294,3.634-4.534l6.763-0.709
			c2.303-0.242,4.334,1.405,4.57,3.672l0.678,6.446c0.186,1.755-0.554,2.624-2.26,3.674l-6.581,3.93
			c-0.516,0.328-0.848,0.563-0.786,1.151l0.391,3.71l10.666-1.12l0.429,4.101l-15.16,1.594L444.315,470.488L444.315,470.488z
			 M465.266,473.143l-1.876-17.818c-0.236-2.267,1.365-4.294,3.63-4.53l7.546-0.792c2.301-0.242,4.334,1.401,4.574,3.665
			l1.868,17.818c0.24,2.267-1.405,4.296-3.71,4.541l-7.542,0.79C467.49,477.058,465.499,475.41,465.266,473.143z M474.749,455.16
			c-0.058-0.584-0.577-0.967-1.165-0.905l-4.646,0.487c-0.588,0.065-1.012,0.545-0.952,1.129l1.661,15.786
			c0.061,0.586,0.575,0.967,1.163,0.902l4.651-0.489c0.586-0.058,1.008-0.539,0.947-1.125L474.749,455.16L474.749,455.16z
			 M492.971,448.071l2.736,26.024l-4.498,0.474l-2.263-21.532l-6.413,2.846l-0.474-4.494l6.413-2.848L492.971,448.071z
			 M498.149,463.485l8.931-16.897l4.494-0.474l1.661,15.786l4.182-0.44l0.096,3.944l-3.867,0.406l0.662,6.33l-4.494,0.471
			l-0.662-6.328l-10.592,1.111L498.149,463.485L498.149,463.485z M508.741,462.374l-0.943-8.947l-4.765,9.544L508.741,462.374
			L508.741,462.374z"/>
	</g>
	<g>
		<polygon fill="#FFFFFF" points="54.333,203.151 49.72,198.776 40.852,208.324 45.379,212.63 		"/>
		<polygon fill="#FFFFFF" points="106.968,262.65 106.075,254.128 84.996,256.341 80.473,213.256 71.172,214.23 76.592,265.842 		
			"/>
		<polygon fill="#FFFFFF" points="67.939,258.13 45.931,260.439 44.539,247.187 64.608,245.082 63.715,236.555 43.646,238.664 
			42.304,225.879 64.312,223.57 63.419,215.045 32.111,218.333 37.53,269.941 68.835,266.652 		"/>
		<path fill="#FFFFFF" d="M59.686,405.561l-0.772-7.36c-0.123-1.167,0.532-1.625,1.562-2.281c5.448-3.315,9.661-5.717,13.048-7.798
			c3.385-2.078,4.848-3.798,4.482-7.288l-1.342-12.783c-0.474-4.494-4.496-7.755-9.068-7.272l-13.407,1.407
			c-4.494,0.471-7.677,4.485-7.205,8.978l0.53,5.041l9.073,0.613l-0.48-4.574c-0.121-1.16,0.716-2.11,1.881-2.233l7.672-0.806
			c1.16-0.121,2.18,0.633,2.303,1.796l0.927,8.837c0.121,1.163-0.512,1.854-1.547,2.438c-4.655,2.678-6.969,3.784-11.622,6.467
			c-3.843,2.204-6.424,3.731-5.953,8.224l1.863,17.665l30.069-3.156l-0.855-8.134L59.686,405.561z"/>
		<path fill="#FFFFFF" d="M97.198,401.624l-0.774-7.365c-0.123-1.163,0.534-1.623,1.562-2.276c5.45-3.32,9.663-5.719,13.05-7.8
			c3.385-2.078,4.848-3.796,4.482-7.286l-1.342-12.787c-0.471-4.494-4.496-7.751-9.068-7.27l-13.407,1.407
			c-4.494,0.471-7.676,4.487-7.205,8.981l0.53,5.039l9.073,0.615l-0.48-4.577c-0.121-1.16,0.718-2.11,1.879-2.233l7.674-0.804
			c1.16-0.123,2.179,0.631,2.301,1.793l0.927,8.839c0.121,1.163-0.51,1.854-1.544,2.435c-4.658,2.68-6.969,3.787-11.622,6.469
			c-3.841,2.204-6.426,3.731-5.953,8.224l1.861,17.665l30.069-3.156l-0.853-8.137L97.198,401.624z"/>
		<polygon fill="#FFFFFF" points="75.528,330.421 53.52,332.731 52.131,319.479 72.2,317.373 71.306,308.848 51.237,310.956 
			49.893,298.169 71.901,295.859 71.008,287.336 39.7,290.625 45.116,342.232 76.424,338.944 		"/>
		<polygon fill="#FFFFFF" points="39.7,290.625 39.7,290.625 39.7,290.625 		"/>
		<path fill="#FFFFFF" d="M92.087,337.296l17.438-1.827c4.725-0.494,8.123-4.696,7.627-9.421l-4.525-43.083l-9.299,0.976v0
			l4.314,41.067c0.123,1.16-0.718,2.112-1.881,2.236l-11.625,1.219c-1.163,0.123-2.18-0.631-2.303-1.793l-4.312-41.069l-9.299,0.974
			l4.523,43.085C83.243,334.385,87.359,337.795,92.087,337.296z"/>
		<polygon fill="#FFFFFF" points="71.172,214.23 71.172,214.23 71.172,214.23 		"/>
		<path fill="#FFFFFF" d="M249.459,239.073L249.459,239.073c0.496,4.727,4.617,8.132,9.342,7.636l18.21-1.912
			c4.727-0.494,8.128-4.691,7.629-9.416l-3.627-34.562c-0.496-4.725-4.691-8.125-9.418-7.627l-18.21,1.912
			c-4.725,0.494-8.051,4.682-7.553,9.412L249.459,239.073z M257.226,203.317l12.399-1.302c1.16-0.123,2.182,0.631,2.303,1.793
			l3.205,30.535c0.121,1.163-0.721,2.112-1.883,2.233l-12.397,1.3c-1.163,0.123-2.182-0.631-2.303-1.793l-3.208-30.535
			C255.223,204.387,256.063,203.44,257.226,203.317z"/>
		<polygon fill="#FFFFFF" points="144.48,258.711 143.584,250.186 121.576,252.496 120.184,239.246 140.253,237.138 139.36,228.615 
			119.291,230.721 117.949,217.938 139.957,215.628 139.064,207.103 107.756,210.389 113.174,261.997 		"/>
		<polygon fill="#FFFFFF" points="389.389,306.092 385.883,272.69 408.92,304.04 417.909,303.098 417.909,303.098 412.488,251.488 
			403.499,252.433 407.021,285.985 383.971,254.482 374.981,255.427 380.4,307.035 		"/>
		<polygon fill="#FFFFFF" points="421.642,250.525 421.642,250.525 421.642,250.525 		"/>
		<polygon fill="#FFFFFF" points="458.366,298.846 457.47,290.319 435.462,292.629 434.072,279.379 454.139,277.274 
			453.246,268.751 433.177,270.856 431.835,258.073 453.843,255.764 452.95,247.239 421.642,250.525 427.058,302.133 		"/>
		<path fill="#FFFFFF" d="M337.625,205.611c0.498,4.727,4.456,6.581,9.171,7.497h0c5.914,1.104,8.224,1.486,14.282,2.494
			c1.273,0.182,2.2,0.788,2.321,1.951l0.783,7.439c0.121,1.16-0.721,2.112-1.883,2.236l-10.924,1.147
			c-1.163,0.121-2.182-0.633-2.303-1.796l-0.57-5.425l-9.138,2.527l0.617,5.888c0.496,4.725,4.693,8.128,9.418,7.629l16.74-1.758
			c4.725-0.494,8.049-4.684,7.551-9.409l-1.212-11.548c-0.494-4.725-4.39-6.745-8.938-7.522c-5.829-1.033-9.807-1.634-14.518-2.474
			c-1.194-0.186-2.204-0.862-2.328-2.025l-0.676-6.431c-0.121-1.16,0.718-2.112,1.881-2.236l10.617-1.113
			c1.163-0.123,2.18,0.631,2.301,1.793l0.588,5.58l9.135-2.525l-0.633-6.045c-0.496-4.725-4.691-8.123-9.416-7.627l-16.428,1.724
			c-4.725,0.496-8.051,4.687-7.553,9.412L337.625,205.611z"/>
		<polygon fill="#FFFFFF" points="199.252,209.404 203.775,252.489 213.077,251.51 208.554,208.425 222.58,206.955 221.687,198.43 
			184.335,202.352 185.228,210.876 		"/>
		<polygon fill="#FFFFFF" points="263.782,262.792 272.734,253.308 268.123,248.934 259.253,258.487 		"/>
		<path fill="#FFFFFF" d="M150.953,249.414c0.498,4.725,4.615,8.132,9.34,7.636l17.438-1.829c4.725-0.494,8.125-4.693,7.627-9.418
			l-0.822-7.825l-9.461-0.575l0.777,7.365c0.121,1.16-0.718,2.11-1.881,2.233l-11.625,1.219c-1.163,0.123-2.182-0.631-2.303-1.793
			l-3.208-30.535c-0.121-1.16,0.721-2.108,1.883-2.231l11.625-1.221c1.16-0.121,2.18,0.633,2.301,1.796l0.725,6.895l9.133-2.525
			l-0.772-7.36c-0.496-4.729-4.691-8.128-9.416-7.632l-17.438,1.832c-4.725,0.494-8.049,4.682-7.551,9.412L150.953,249.414z"/>
		
			<rect x="208.137" y="218.54" transform="matrix(0.1044 0.9945 -0.9945 0.1044 431.6513 -32.887)" fill="#FFFFFF" width="51.896" height="9.353"/>
		<path fill="#FFFFFF" d="M378.689,372.072l-0.772-7.365c-0.123-1.163,0.534-1.623,1.562-2.278c5.45-3.318,9.661-5.717,13.05-7.798
			c3.385-2.078,4.846-3.796,4.48-7.286l-1.342-12.787c-0.471-4.494-4.494-7.751-9.068-7.27l-13.405,1.407
			c-4.496,0.471-7.679,4.487-7.205,8.981l0.527,5.039l9.075,0.613l-0.48-4.574c-0.121-1.163,0.716-2.112,1.879-2.233l7.674-0.804
			c1.16-0.123,2.18,0.631,2.301,1.793l0.927,8.839c0.123,1.163-0.507,1.854-1.544,2.433l-11.62,6.471
			c-3.845,2.204-6.424,3.731-5.953,8.224l1.861,17.665l30.066-3.158l-0.855-8.134L378.689,372.072z"/>
		
			<rect x="314.771" y="353.522" transform="matrix(-0.1044 -0.9945 0.9945 -0.1044 20.0552 734.4535)" fill="#FFFFFF" width="51.891" height="9.35"/>
		<path fill="#FFFFFF" d="M435.507,330.378c-0.474-4.494-4.498-7.751-9.07-7.27l-14.956,1.571c-4.496,0.469-7.679,4.485-7.205,8.978
			l3.708,35.339c0.474,4.494,4.42,7.76,8.916,7.29l14.956-1.571c4.572-0.48,7.834-4.505,7.36-8.999L435.507,330.378z
			 M428.21,366.873l-9.221,0.97c-1.16,0.119-2.179-0.635-2.301-1.798l-3.288-31.31c-0.121-1.16,0.718-2.11,1.881-2.231l9.221-0.97
			c1.16-0.123,2.182,0.631,2.303,1.793l3.288,31.31C430.214,365.798,429.372,366.75,428.21,366.873z"/>
		
			<rect x="127.229" y="374.064" transform="matrix(-0.1046 -0.9945 0.9945 -0.1046 -236.7872 554.2529)" fill="#FFFFFF" width="7.793" height="19.324"/>
		<polygon fill="#FFFFFF" points="348.075,383.513 348.075,383.512 348.075,383.512 		"/>
		<path fill="#FFFFFF" d="M841.89,437.621l-0.588-5.58l-25.909-246.492l-300.31,31.563l-11.89-112.458h0L0,157.541l29.979,283.552
			l492.211-51.73l8.511,80.971L841.89,437.621z M805.406,197.883l24.147,229.75l-288.867,30.362l-24.145-229.75L805.406,197.883z
			 M40.223,428.442l-27.57-260.655v0l480.298-50.476l27.57,260.651L40.223,428.442z"/>
		<path fill="#FFFFFF" d="M506.954,354.138l-0.191-7.811l-8.292,0.869l-3.288-31.305l-8.913,0.938l-17.712,33.51l0.815,7.744
			l20.998-2.204l1.318,12.556l8.913-0.938l-1.318-12.552L506.954,354.138z M489.559,348.133l-11.313,1.187l9.45-18.933
			L489.559,348.133L489.559,348.133z"/>
		<path fill="#FFFFFF" d="M302.429,336.129l-12.018,53.439l9.378-0.985l2.384-11.609l17.436-1.829l4.898,10.841l9.38-0.985
			l-22.854-49.774L302.429,336.129z M304.097,368.386l3.899-20.309l8.033,19.057L304.097,368.386z"/>
		<polygon fill="#FFFFFF" points="451.704,320.451 438.977,326.098 439.913,335.011 452.64,329.364 457.122,372.061 
			466.033,371.127 460.615,319.519 		"/>
		<path fill="#FFFFFF" d="M474.103,297.194l16.74-1.758c4.725-0.494,8.047-4.684,7.549-9.409l-1.212-11.548
			c-0.496-4.727-4.393-6.745-8.938-7.524c-5.829-1.033-9.809-1.634-14.518-2.471c-1.196-0.189-2.206-0.862-2.328-2.027l-0.676-6.433
			c-0.121-1.16,0.718-2.11,1.881-2.231l10.617-1.118c1.16-0.119,2.18,0.633,2.303,1.798l0.586,5.58l9.135-2.53l-0.635-6.04
			c-0.494-4.729-4.691-8.128-9.416-7.629l-16.428,1.726c-4.725,0.494-8.049,4.682-7.553,9.409l1.116,10.615
			c0.496,4.727,4.453,6.583,9.169,7.497c5.915,1.107,8.227,1.488,14.287,2.498c1.273,0.18,2.197,0.786,2.321,1.948l0.781,7.439
			c0.123,1.16-0.718,2.11-1.883,2.233l-10.924,1.149c-1.163,0.121-2.18-0.633-2.303-1.796l-0.57-5.425l-9.138,2.525l0.617,5.892
			C465.178,294.292,469.375,297.691,474.103,297.194z"/>
		<polygon fill="#FFFFFF" points="371.253,307.993 365.835,256.386 356.845,257.328 360.367,290.883 337.315,259.38 
			328.325,260.323 333.744,311.93 342.733,310.987 339.227,277.586 362.263,308.936 371.253,307.993 		"/>
		<path fill="#FFFFFF" d="M157.418,395.303l-0.772-7.365c-0.123-1.163,0.532-1.623,1.56-2.278c5.45-3.318,9.663-5.717,13.05-7.798
			c3.385-2.078,4.848-3.796,4.482-7.286l-1.342-12.787c-0.474-4.494-4.496-7.751-9.07-7.27l-13.405,1.407
			c-4.496,0.471-7.679,4.487-7.205,8.981l0.527,5.039l9.075,0.613l-0.48-4.574c-0.121-1.161,0.716-2.112,1.881-2.233l7.672-0.804
			c1.16-0.123,2.18,0.631,2.301,1.793l0.927,8.839c0.121,1.163-0.51,1.854-1.544,2.433l-11.622,6.471
			c-3.843,2.204-6.424,3.73-5.953,8.224v0l1.863,17.665l30.069-3.158l-0.855-8.134L157.418,395.303z"/>
		<path fill="#FFFFFF" d="M215.003,373.668c-0.474-4.494-3.798-7.829-9.068-7.275c-3.796,0.395-8.321,1.344-12.734,2.59
			l-1.365-13.021l19.759-2.076l-0.855-8.132v0l-28.672,3.01l3.432,32.701l9.012-0.009l-0.22-2.092
			c-0.121-1.16,0.305-2.303,1.823-2.777c1.975-0.597,5.98-1.25,7.917-1.457c1.315-0.135,2.171,0.557,2.301,1.798l1.165,11.079
			c0.121,1.165-0.716,2.114-1.879,2.236l-8.294,0.873c-1.16,0.121-2.18-0.633-2.301-1.798l-0.22-2.092l-8.747,2.485l0.267,2.557
			c0.471,4.494,4.42,7.762,8.913,7.29l14.026-1.472c4.572-0.48,7.829-4.503,7.358-8.996L215.003,373.668z"/>
		<path fill="#FFFFFF" d="M205.815,316.74l-3.627-34.562c-0.494-4.725-4.691-8.123-9.421-7.627l-18.208,1.912
			c-4.725,0.496-8.049,4.684-7.553,9.412l3.627,34.56c0.498,4.727,4.619,8.137,9.344,7.636l18.208-1.912
			C202.916,325.663,206.314,321.467,205.815,316.74z M194.424,317.941l-12.397,1.3c-1.163,0.121-2.18-0.633-2.303-1.796
			l-3.203-30.531c-0.123-1.165,0.716-2.112,1.881-2.236l12.397-1.302c1.16-0.121,2.18,0.633,2.303,1.796l3.203,30.533
			C196.429,316.866,195.587,317.818,194.424,317.941z"/>
		<polygon fill="#FFFFFF" points="326.144,312.727 325.248,304.204 303.242,306.514 301.853,293.262 321.919,291.154 
			321.026,282.632 300.957,284.739 299.615,271.952 321.621,269.642 320.727,261.119 289.422,264.408 294.838,316.015 		"/>
		<path fill="#FFFFFF" d="M165.866,329.555l-12.035-19.108c3.623-1.32,5.984-4.936,5.562-8.967l-1.54-14.644
			c-0.494-4.725-4.691-8.123-9.416-7.627l-27.047,2.839l5.418,51.61l9.302-0.979l-2.092-19.916l9.766-1.026l11.849,18.893
			L165.866,329.555z M148.006,302.676l-14.879,1.562l-1.54-14.644l14.879-1.56c1.16-0.123,2.18,0.631,2.303,1.793l1.116,10.617
			C150.008,301.605,149.169,302.555,148.006,302.676z"/>
		<polygon fill="#FFFFFF" points="264.332,310.597 262.943,297.347 283.012,295.239 282.118,286.717 262.049,288.824 
			260.705,276.039 282.713,273.729 281.82,265.207 250.514,268.493 255.931,320.101 287.236,316.812 286.34,308.287 		"/>
		<polygon fill="#FFFFFF" points="303.444,242.025 299.938,208.625 322.972,239.975 331.964,239.03 326.55,187.423 317.558,188.365 
			321.08,221.92 298.028,190.417 289.041,191.36 294.457,242.967 		"/>
		<polygon fill="#FFFFFF" points="271.113,339.413 260.637,372.476 243.525,342.311 234.537,343.253 239.956,394.861 
			248.943,393.918 245.706,363.078 257.861,384.053 265.766,383.223 273.295,360.18 276.531,391.021 285.521,390.078 
			280.103,338.47 		"/>
		<path fill="#FFFFFF" d="M239.651,301.668c4.727-0.494,8.128-4.689,7.632-9.416l-1.538-14.646
			c-0.494-4.725-4.693-8.123-9.421-7.627l-26.268,2.759l5.416,51.608l9.302-0.976l-2.092-19.919L239.651,301.668z"/>
	</g>
	<path fill="#FEE900" d="M221.27,301.356l8.384-7.376l9.715,5.546l-4.644-10.137l8.48-7.663l-11.221,1.277l-4.431-9.887
		l-2.303,10.552l-11.27,1.158l9.753,5.703L221.27,301.356z"/>
	<g>
		<path fill="#FFFFFF" d="M121.587,446.466l3.924-0.413l6.339,16.484l0.837-17.238l4.406-0.46l-1.76,25.341l-4.482,0.471
			l-6.586-17.405l-2.792,18.388l-4.482,0.471l-6.983-24.426l4.406-0.465l4.397,16.691L121.587,446.466z M152.188,443.252
			l3.926-0.411l6.339,16.482l0.837-17.236l4.406-0.462l-1.76,25.341l-4.482,0.471l-6.588-17.402l-2.79,18.385l-4.482,0.471
			l-6.985-24.426l4.408-0.465l4.395,16.691L152.188,443.252L152.188,443.252z M182.795,440.04l3.924-0.413l6.339,16.484
			l0.835-17.238l4.406-0.462l-1.76,25.341l-4.482,0.471l-6.588-17.402l-2.79,18.385l-4.485,0.471l-6.983-24.426l4.408-0.462
			l4.397,16.686L182.795,440.04L182.795,440.04z M210.747,437.107l15.095-1.585l0.431,4.112l-10.612,1.111l0.646,6.166l9.679-1.017
			l0.433,4.11l-9.681,1.017l0.671,6.388l10.612-1.113l0.431,4.11l-15.095,1.582L210.747,437.107L210.747,437.107z M231.038,434.976
			l4.482-0.471l2.18,20.776l10.163-1.068l0.431,4.108l-14.646,1.54L231.038,434.976z M250.133,432.97l15.095-1.582l0.431,4.11
			l-10.612,1.113l0.649,6.166l9.676-1.015l0.433,4.108l-9.676,1.017l0.671,6.388l10.612-1.113l0.431,4.11l-15.095,1.585
			L250.133,432.97L250.133,432.97z M284.046,445.84l4.561,0.276l0.395,3.775c0.24,2.281-1.398,4.303-3.679,4.541l-8.406,0.882
			c-2.281,0.24-4.262-1.401-4.5-3.683l-1.751-16.662c-0.238-2.281,1.36-4.298,3.641-4.539l8.406-0.882
			c2.281-0.24,4.301,1.401,4.541,3.679l0.373,3.549l-4.404,1.219l-0.35-3.324c-0.058-0.561-0.552-0.925-1.111-0.864l-5.605,0.588
			c-0.559,0.058-0.965,0.516-0.905,1.075l1.544,14.72c0.061,0.563,0.55,0.925,1.111,0.869l5.605-0.59
			c0.559-0.056,0.967-0.516,0.907-1.077L284.046,445.84L284.046,445.84z M289.967,428.79l18.008-1.892l0.431,4.11l-6.763,0.709
			l2.179,20.771l-4.482,0.474l-2.182-20.774l-6.763,0.709L289.967,428.79L289.967,428.79z M318.959,450.902l-4.482,0.471
			l-2.61-24.886l4.482-0.469L318.959,450.902z M324.283,446.19l-1.749-16.666c-0.24-2.278,1.362-4.298,3.641-4.536l8.783-0.92
			c2.278-0.238,4.301,1.398,4.539,3.679l1.749,16.664c0.24,2.283-1.401,4.301-3.679,4.541l-8.781,0.923
			C326.505,450.112,324.523,448.469,324.283,446.19L324.283,446.19z M335.113,429.188c-0.061-0.561-0.548-0.925-1.111-0.866
			l-5.98,0.628c-0.559,0.056-0.967,0.514-0.907,1.075l1.544,14.722c0.058,0.559,0.552,0.925,1.111,0.864l5.98-0.624
			c0.563-0.058,0.965-0.516,0.907-1.08L335.113,429.188z M365.516,446.015l-4.334,0.453l-11.104-15.111l1.69,16.103l-4.337,0.453
			l-2.61-24.884l4.337-0.453l11.111,15.189l-1.697-16.177l4.334-0.456L365.516,446.015z M374.128,433.365
			c-2.276-0.442-4.184-1.338-4.422-3.616l-0.536-5.118c-0.238-2.283,1.36-4.298,3.641-4.536l7.921-0.831
			c2.281-0.24,4.303,1.398,4.541,3.679l0.305,2.913l-4.402,1.219l-0.281-2.691c-0.061-0.559-0.552-0.923-1.113-0.864l-5.12,0.534
			c-0.559,0.061-0.967,0.518-0.907,1.077l0.325,3.102c0.061,0.561,0.548,0.889,1.122,0.979l7.003,1.192
			c2.191,0.373,4.069,1.347,4.307,3.627l0.586,5.564c0.24,2.283-1.362,4.298-3.643,4.536l-8.069,0.846
			c-2.281,0.24-4.303-1.398-4.541-3.677l-0.299-2.839l4.404-1.219l0.274,2.613c0.061,0.561,0.552,0.927,1.113,0.866l5.268-0.552
			c0.559-0.058,0.965-0.516,0.905-1.077l-0.375-3.585c-0.058-0.561-0.507-0.855-1.12-0.94
			C378.095,434.081,376.979,433.895,374.128,433.365L374.128,433.365z M391.49,434.678c-0.229-2.171,1.017-2.905,2.869-3.968
			l5.603-3.12c0.503-0.278,0.806-0.613,0.747-1.172l-0.447-4.258c-0.061-0.561-0.552-0.925-1.113-0.866l-3.699,0.388
			c-0.559,0.058-0.967,0.516-0.907,1.077l0.233,2.204l-4.377-0.296l-0.256-2.429c-0.229-2.166,1.309-4.103,3.475-4.332l6.464-0.68
			c2.202-0.231,4.144,1.342,4.37,3.508l0.646,6.166c0.177,1.679-0.527,2.509-2.159,3.511c-1.634,1.001-3.663,2.159-6.294,3.757
			c-0.492,0.319-0.808,0.541-0.75,1.098l0.373,3.551l10.197-1.073l0.411,3.924l-14.496,1.522L391.49,434.678L391.49,434.678z
			 M411.851,437.185l-1.789-17.039c-0.229-2.166,1.309-4.103,3.475-4.332l7.212-0.756c2.204-0.229,4.144,1.342,4.372,3.506
			l1.789,17.039c0.229,2.166-1.345,4.105-3.549,4.339l-7.21,0.756C413.983,440.927,412.08,439.351,411.851,437.185z
			 M420.926,419.989c-0.061-0.561-0.55-0.923-1.111-0.866l-4.449,0.467c-0.559,0.058-0.965,0.516-0.907,1.077l1.585,15.095
			c0.061,0.561,0.55,0.923,1.111,0.866l4.449-0.467c0.559-0.058,0.965-0.518,0.907-1.077L420.926,419.989z M438.69,413.177
			l2.61,24.884l-4.296,0.449l-2.162-20.587l-6.134,2.723l-0.451-4.296l6.137-2.72L438.69,413.177L438.69,413.177z M443.971,427.881
			l8.545-16.159l4.296-0.449l1.582,15.095l3.998-0.42l0.094,3.769l-3.699,0.388l0.635,6.051l-4.298,0.451l-0.635-6.051
			l-10.123,1.062L443.971,427.881L443.971,427.881z M454.099,426.817l-0.898-8.554l-4.557,9.126L454.099,426.817L454.099,426.817z
			 M466.188,435.446l-0.536-5.118l4.857-0.512l0.536,5.118L466.188,435.446z M474.188,409.449l15.095-1.582l0.431,4.11
			l-10.615,1.113l0.649,6.166l9.676-1.015l0.433,4.108l-9.676,1.017l0.669,6.388l10.615-1.116l0.429,4.11l-15.095,1.585
			L474.188,409.449L474.188,409.449z M506.398,406.068l4.482-0.471l2.18,20.774c0.24,2.281-1.398,4.303-3.679,4.541l-8.406,0.884
			c-2.283,0.238-4.262-1.403-4.505-3.686l-2.179-20.771l4.482-0.471l2.078,19.8c0.061,0.563,0.552,0.925,1.111,0.869l5.605-0.59
			c0.559-0.058,0.967-0.516,0.907-1.077L506.398,406.068L506.398,406.068z"/>
	</g>
	<path fill="#FFFFFF" d="M730.224,341.961l-6.431,0.68l-3.365-7.439l-11.959,1.259l-1.632,7.971l-6.435,0.676l8.233-36.663
		l5.899-0.622L730.224,341.961z M709.778,330.567l8.188-0.86l-5.517-13.068L709.778,330.567z M742.113,321.681l12.543-1.32
		l1.367,12.967c0.341,3.243-1.993,6.121-5.232,6.467l-11.961,1.257c-3.239,0.337-6.065-2-6.406-5.239l-2.5-23.707
		c-0.339-3.239,1.937-6.112,5.181-6.458l11.959-1.259c3.243-0.346,6.123,1.986,6.467,5.23l0.415,3.937l-6.269,1.728l-0.379-3.612
		c-0.088-0.795-0.786-1.311-1.582-1.232l-7.973,0.842c-0.799,0.083-1.374,0.736-1.291,1.535l2.206,20.947
		c0.085,0.797,0.783,1.311,1.582,1.232l7.971-0.842c0.797-0.083,1.374-0.736,1.293-1.535l-0.631-5.957l-6.168,0.649L742.113,321.681
		L742.113,321.681z M768.335,337.945l-6.377,0.676l-3.733-35.408l6.381-0.671L768.335,337.945z M786.085,322.26l-6.698,0.709
		l1.441,13.661l-6.377,0.671l-3.733-35.404l18.552-1.955c3.243-0.337,6.125,1.986,6.464,5.225l1.059,10.049
		c0.292,2.765-1.327,5.252-3.814,6.155l8.262,13.108l-7.017,0.736L786.085,322.26L786.085,322.26z M789.501,307.228
		c-0.085-0.797-0.786-1.32-1.582-1.232l-10.208,1.075l1.059,10.049l10.211-1.075c0.797-0.088,1.371-0.736,1.291-1.535
		L789.501,307.228L789.501,307.228z M804.962,334.082l-0.765-7.281l6.907-0.732l0.768,7.286L804.962,334.082z M662.345,379.221
		l-6.698,0.698l1.439,13.665l-6.384,0.671l-3.726-35.404l18.552-1.955c3.243-0.337,6.128,1.991,6.464,5.234l1.062,10.049
		c0.29,2.765-1.331,5.243-3.811,6.155l8.258,13.104l-7.017,0.741L662.345,379.221L662.345,379.221z M665.757,364.18
		c-0.083-0.79-0.781-1.311-1.58-1.228l-10.208,1.077l1.062,10.049l10.208-1.08c0.795-0.083,1.371-0.732,1.288-1.535L665.757,364.18z
		 M677.75,355.608l21.476-2.263l0.617,5.847l-15.099,1.587l0.925,8.776l13.768-1.45l0.617,5.845l-13.771,1.454l0.961,9.088
		l15.097-1.596l0.617,5.849l-21.474,2.267L677.75,355.608L677.75,355.608z M686.852,351.698l-3.104-2.954l6.081-6.554l3.165,2.999
		L686.852,351.698L686.852,351.698z M734.801,385.393l-6.431,0.68l-3.367-7.439l-11.959,1.261l-1.632,7.962l-6.431,0.68
		l8.231-36.668l5.899-0.617L734.801,385.393L734.801,385.393z M714.357,374l8.186-0.86l-5.515-13.072L714.357,374z M746.69,365.114
		l12.545-1.32l1.367,12.967c0.341,3.248-1.989,6.125-5.23,6.462l-11.961,1.266c-3.239,0.337-6.069-2-6.408-5.239l-2.498-23.712
		c-0.341-3.239,1.933-6.117,5.178-6.458l11.957-1.259c3.248-0.341,6.125,1.986,6.467,5.23l0.418,3.937l-6.269,1.731l-0.384-3.607
		c-0.079-0.806-0.781-1.324-1.576-1.237l-7.973,0.837c-0.801,0.083-1.376,0.736-1.293,1.538l2.209,20.947
		c0.081,0.797,0.783,1.311,1.58,1.228l7.975-0.837c0.797-0.088,1.367-0.741,1.286-1.535l-0.626-5.957l-6.164,0.649L746.69,365.114
		L746.69,365.114z M772.911,381.382l-6.379,0.671l-3.73-35.408l6.377-0.671L772.911,381.382z M790.659,365.695l-6.696,0.705
		l1.439,13.661l-6.379,0.671l-3.728-35.399l18.549-1.96c3.243-0.341,6.125,1.991,6.467,5.23l1.055,10.049
		c0.292,2.765-1.324,5.248-3.807,6.155l8.26,13.104l-7.017,0.741L790.659,365.695L790.659,365.695z M794.078,350.654
		c-0.085-0.795-0.788-1.311-1.58-1.228l-10.211,1.08l1.062,10.047l10.208-1.077c0.795-0.083,1.374-0.736,1.288-1.533
		L794.078,350.654L794.078,350.654z M809.539,377.519l-0.768-7.286l6.909-0.727l0.765,7.281L809.539,377.519z M590.702,444.498
		l-6.433,0.676l-3.365-7.439l-11.959,1.261l-1.634,7.966l-6.435,0.68l8.233-36.672l5.899-0.613L590.702,444.498z M570.256,433.104
		l8.188-0.86l-5.515-13.073L570.256,433.104z M609.447,430.101l6.489,0.395l0.568,5.367c0.341,3.243-1.991,6.121-5.234,6.467
		l-11.957,1.261c-3.243,0.337-6.072-2-6.413-5.239l-2.496-23.712c-0.339-3.234,1.935-6.117,5.181-6.458l11.959-1.261
		c3.241-0.337,6.117,1.995,6.464,5.239l0.532,5.046l-6.267,1.735l-0.501-4.729c-0.081-0.795-0.786-1.315-1.578-1.232l-7.975,0.842
		c-0.799,0.083-1.376,0.736-1.293,1.531l2.209,20.951c0.085,0.795,0.786,1.311,1.58,1.228l7.975-0.837
		c0.797-0.083,1.371-0.736,1.288-1.535L609.447,430.101L609.447,430.101z M638.362,427.058l6.496,0.386l0.563,5.376
		c0.341,3.239-1.991,6.121-5.23,6.458l-11.961,1.261c-3.241,0.341-6.069-1.991-6.413-5.234l-2.496-23.712
		c-0.339-3.239,1.935-6.117,5.178-6.453l11.961-1.261c3.246-0.337,6.123,1.991,6.462,5.225l0.534,5.059l-6.267,1.731l-0.501-4.729
		c-0.083-0.797-0.786-1.32-1.58-1.232l-7.973,0.842c-0.799,0.083-1.371,0.736-1.293,1.535l2.206,20.942
		c0.085,0.797,0.786,1.315,1.582,1.232l7.975-0.842c0.797-0.083,1.369-0.732,1.286-1.535L638.362,427.058L638.362,427.058z
		 M650.732,432.254l-2.496-23.705c-0.341-3.248,1.937-6.121,5.181-6.462l12.493-1.315c3.241-0.341,6.121,1.991,6.462,5.23
		l2.496,23.707c0.341,3.248-1.987,6.125-5.23,6.462l-12.491,1.315C653.903,437.834,651.075,435.497,650.732,432.254L650.732,432.254
		z M666.136,408.053c-0.085-0.795-0.783-1.306-1.582-1.228l-8.503,0.893c-0.804,0.083-1.374,0.741-1.295,1.54l2.211,20.947
		c0.085,0.795,0.786,1.311,1.582,1.228l8.505-0.893c0.799-0.088,1.374-0.736,1.288-1.535L666.136,408.053z M685.265,413.134
		l2.231,21.162l-6.166,0.644l-3.731-35.399l6.164-0.653l11.748,20.697l7.176-22.686l6.166-0.649l3.735,35.404l-6.168,0.653
		l-2.231-21.162l-5.16,15.804l-5.421,0.575L685.265,413.134z M714.967,395.604l18.022-1.899c3.241-0.346,6.123,1.986,6.464,5.225
		l1.059,10.049c0.341,3.243-1.991,6.125-5.232,6.467l-11.64,1.228l1.439,13.661l-6.377,0.676L714.967,395.604L714.967,395.604z
		 M733.218,400.987c-0.083-0.797-0.783-1.315-1.58-1.232l-9.679,1.021l1.064,10.049l9.676-1.021
		c0.797-0.083,1.371-0.732,1.286-1.535L733.218,400.987L733.218,400.987z M742.558,392.693l6.377-0.676l3.115,29.561l14.46-1.526
		l0.615,5.852l-20.839,2.193L742.558,392.693L742.558,392.693z M777.486,424.808l-6.375,0.676l-3.733-35.404l6.377-0.671
		L777.486,424.808z M795.236,409.128l-6.696,0.705l1.443,13.661l-6.379,0.671l-3.733-35.404l18.554-1.955
		c3.241-0.341,6.123,1.995,6.462,5.234l1.062,10.045c0.29,2.765-1.327,5.243-3.814,6.15l8.26,13.113l-7.017,0.736L795.236,409.128
		L795.236,409.128z M798.655,394.087c-0.081-0.79-0.788-1.311-1.58-1.228l-10.208,1.082l1.062,10.04l10.204-1.075
		c0.799-0.083,1.371-0.732,1.293-1.535L798.655,394.087L798.655,394.087z M814.115,420.952l-0.77-7.281l6.909-0.732l0.772,7.286
		L814.115,420.952z"/>
	<path fill="#9C9896" d="M649.578,275.359l-0.061-0.016c-0.265-0.063-0.438,0.11-0.548,0.258c-0.613-0.604-1.27-0.22-1.717,0.049
		c-0.395,0.238-0.597,0.339-0.763,0.227l-0.002-0.002l-0.209,0.316c-0.029-0.191-0.123-0.422-0.256-0.678l-0.065-0.126l-1.259-0.2
		l-0.072,0.222c-0.218,0.658-0.696,0.644-1.517,0.568c-0.557-0.056-1.172-0.094-1.614,0.287l-0.77,0.166
		c-0.869,0.218-1.459,0.325-1.897-0.09l-0.204-0.24l-0.034-0.02l-0.281,0.249c-0.451,0.065-0.916,0.171-1.365,0.287
		c-1.066,0.272-2.108,0.2-2.943-0.213l-0.433-0.218l0.043,0.489l-0.058,0.114l-0.083,0.02c-1.271,0.321-2.471,0.617-3.113-0.478
		l-0.5,0.213l0.038,0.058l-0.005,0.002l0.038,0.054l0.2,0.328l0.171,0.267l-0.011,0.018l-0.216,0.002
		c-0.325,0.018-0.433,0.011-0.527-0.144l-0.088-0.141l-0.195,0.013l-0.678,0.049c-0.552,0.009-1.178,0.031-1.755,0.539
		c-5.811,0.673-10.819,1.156-15.66,1.623l-2.09,0.204l0.164,1.524c0.828-0.195,1.643-0.283,2.489,0.038l0.397,0.15l-0.025-0.328
		c1.688-0.359,3.369-0.501,4.994-0.628l2.741-0.247l0.061-0.112c0.092-0.137,0.103-0.146,0.388,0.025
		c0.191,0.119,0.429,0.267,0.696,0.177c0.144-0.043,0.249-0.166,0.346-0.328c0.795,0.209,1.573,0.108,2.332-0.018
		c0.678-0.11,1.311-0.218,1.856-0.043l0.386,0.121l-0.027-0.359l6.143-0.687l0.108-0.088c0.604-0.485,0.99-0.68,1.311-0.299
		l0.265,0.316l0.153-0.316l0.189-0.364l0.088-0.191l0.052,0.007l0.177,0.218l-0.011,0.02l0.063,0.153l0.025,0.022l0.099,0.494
		l0.24-0.316l0.173-0.034l0.013-0.206l0.005-0.002l0.027,0.025l0.426,0.348l0.119-0.119c1.057-0.581,3.066-1.109,4.487-0.24
		l0.364,0.227l0.103-0.909c1.329,0.146,2.462,0.088,3.697-0.222l0.177-0.043l0.027-0.182l0.139-0.287
		c0.164-0.114,0.507-0.052,0.779,0.002c0.352,0.065,0.689,0.126,0.88-0.13l0.085-0.204l0.211,0.074
		c0.346,0.137,0.745,0.211,1.286,0.162l0.144-0.009l0.072-0.13l0.175-0.224l0.281,0.193c0.193,0.164,0.431,0.368,0.736,0.341
		l0.166-0.016l0.061-0.155l0.036-0.207l-0.04-0.112l0.747-0.456L649.578,275.359L649.578,275.359z M554.993,272.69
		c1.156,0.501,1.93,1.03,2.301,1.578l0.599,0.889l-0.175-1.861l-0.034-0.058c-0.451-0.721-1.389-1.03-2.074-1.257l-0.126-0.043
		c-0.842-0.925-2.444-1.464-3.529-1.82l-0.052-0.018l-0.065,0.009c-0.323,0.029-0.691,0.094-1.01,0.274
		c-0.527-0.431-1.149-0.386-1.751-0.325c-0.458,0.052-0.929,0.099-1.389-0.049l-0.067-0.02l-0.074,0.011
		c-0.323,0.067-0.55,0.254-0.752,0.413c-0.276,0.222-0.458,0.364-0.824,0.269l-0.067-0.02l-0.067,0.02
		c-0.431,0.105-0.586,0.343-0.633,0.523c-0.135,0.462,0.276,1.01,0.642,1.385l0.132,0.139l0.175-0.079
		c1.547-0.707,2.431-0.729,3.861-0.718l0.022,0.002l0.025-0.004c1.21-0.209,2.24,0.079,3.331,0.379
		C553.902,272.455,554.436,272.598,554.993,272.69 M650.368,275.99l-0.058,0.532l0.379,0.114l0.251-0.471l-0.242-0.204
		L650.368,275.99z M652.48,275.803l-0.236-0.155l-0.112-0.074l0.433-0.516l-1.659,0.148l0.025,0.274l0.079,0.853l0.272-0.025
		l0.426,0.103c0.296,0.101,0.842,0.29,1.053-0.238l0.159-0.413L652.48,275.803L652.48,275.803z M563.053,284.315
		c-1.237,0.231-2.404,0.449-3.56,0.097l-0.168-0.047l-0.121,0.135c-0.123,0.148-0.272,0.213-0.438,0.292
		c-0.189,0.085-0.411,0.189-0.584,0.422c-0.694-0.561-1.356-0.222-1.908,0.061c-0.575,0.296-0.954,0.458-1.383,0.117l-0.227,0.096
		l-0.215,0.168c0.11,0.575,0.545,0.62,0.801,0.649c0.238,0.025,0.323,0.038,0.388,0.186l0.096,0.227l0.204-0.065l0.878-0.274
		c0.501-0.184,1.015-0.375,1.313-0.195l0.115,0.072l0.128-0.043c0.981-0.366,2.105-0.366,3.295-0.357
		c1.172,0.004,2.386,0,3.54-0.361l-0.155-1.45C564.373,284.075,563.707,284.196,563.053,284.315 M603.51,257.054
		c-0.595-0.712-1.318-1.138-2.02-1.549c-0.622-0.359-1.208-0.707-1.683-1.23l-0.005-0.027l0.24-0.245
		c0.191-0.119,0.453-0.281,0.559-0.599l0.115-0.361h-0.375c-1.627,0.007-3.158,0.011-4.494-0.774l-0.052-0.029l-0.056-0.009
		c-0.624-0.074-0.738-0.435-0.88-0.851c-0.092-0.296-0.204-0.628-0.525-0.781c-0.236-0.108-0.554-0.072-0.95,0.056
		c-0.404-0.55-0.994-0.723-1.531-0.862c-0.635-0.159-0.997-0.276-1.122-0.759l-0.126-0.465l-0.339,0.334
		c-0.276,0.285-0.341,0.229-0.633-0.029l-0.373-0.274l0.025,0.002l0.04-0.545h-0.038v-0.002l-0.734-0.079
		c-0.46-0.072-0.981-0.141-1.565-0.002c-0.339,0.004-0.62-0.173-0.911-0.359c-0.409-0.263-0.911-0.566-1.538-0.193l-0.141-0.108
		c0.303-0.662,0.927-1.08,1.533-1.481c0.575-0.379,1.174-0.772,1.459-1.376l-0.442-0.314c-0.424,0.438-0.918,0.752-1.448,1.089
		c-0.505,0.319-1.021,0.644-1.499,1.098l-0.4-0.043c-0.209-0.056-0.471-0.126-0.705,0.013l-0.224,0.242l-0.258-0.166l-0.344-0.209
		c-0.33-0.498-0.909-0.514-1.437-0.503c-0.703,0.009-1.309,0.02-1.632-0.851l-0.025-0.054l-0.038-0.043
		c-0.186-0.198-0.44-0.26-0.696-0.166c-0.245,0.081-0.427,0.312-0.525,0.566l-0.058,0.009c0.007-0.123,0.117-0.368,0.189-0.453
		l0.35-0.4l-0.507-0.052l-0.512-0.052c-0.622-0.07-1.205-0.119-1.8,0.247l-0.081-0.02c-0.321-0.079-0.435-0.126-0.449-0.256
		l0.02-0.182l0.052-0.22l-0.213-0.09c-0.42-0.18-0.869-0.117-1.266-0.061c-0.635,0.09-0.705,0.045-0.747-0.191l-0.049-0.294
		l-0.285,0.074c-0.561,0.144-1.136-0.031-1.699-0.204c-0.698-0.215-1.425-0.435-2.083,0.002l0.036-0.022
		c-0.326,0.144-0.393,0.049-0.617-0.323c-0.117-0.195-0.24-0.413-0.453-0.557l-0.155-0.105l-0.839,0.599
		c-0.321-0.195-0.664-0.343-1.001-0.476l-0.815-0.348l-0.126,0.045c-0.393,0.186-0.866,0.061-1.362-0.067
		c-0.458-0.119-0.961-0.22-1.45-0.105l-0.009-0.09l-1.596,0.15c-0.88-0.424-1.735-0.352-2.563-0.274
		c-0.893,0.085-1.733,0.166-2.53-0.424l-0.287-0.215l-0.13,0.337c-0.063,0.164-0.164,0.191-0.46,0.229l-0.361,0.07l0.016-0.004
		c-0.348,0.099-0.651,0.038-0.896-0.189c-0.292-0.267-0.453-0.743-0.386-1.104l0.182-0.891l-0.64,0.644
		c-0.236,0.233-0.29,0.523-0.341,0.783c-0.056,0.303-0.117,0.483-0.321,0.615l-2.458,0.35c-2.707,0.37-5.513,0.75-8.208,1.688
		l-0.081,0.031l-0.052,0.07c-0.422,0.595-0.536,1.066-0.498,1.432c0.031,0.296,0.166,0.527,0.319,0.691l0.09,0.105l5.751-0.545
		c0.597,0.027,1.156-0.063,1.699-0.146c0.848-0.132,1.587-0.233,2.382,0.135c-0.496,2.375-1.174,4.48-1.975,6.085l-0.04,0.081
		l0.016,0.09l0.022,0.171c0.112,1.026-0.323,2.074-0.745,3.089c-0.321,0.763-0.646,1.549-0.729,2.314
		c-0.112,0.465-0.157,0.981-0.202,1.479c-0.083,0.911-0.159,1.775-0.622,2.534l-0.083,0.13l0.074,0.137l0.081,0.301
		c0.052,0.503-0.189,1.19-0.317,1.553l-0.083,0.254l-0.13,0.691c-0.096,0.498-0.213,1.064-0.162,1.576
		c0.045,0.388,0.189,0.752,0.514,1.021l0.206,0.166l0.171-0.191c0.44-0.483,0.559-1.118,0.673-1.731
		c0.09-0.523,0.184-1.019,0.453-1.414l0.094-0.137l-0.079-0.146l-0.128-0.4c-0.038-0.366,0.139-0.696,0.332-1.059
		c0.184-0.357,0.379-0.712,0.334-1.107l-0.038-0.162c-0.007-0.46,0.153-0.94,0.312-1.41c0.157-0.474,0.305-0.965,0.285-1.437
		c0.26-0.474,0.348-1.019,0.422-1.549c0.063-0.474,0.128-0.918,0.317-1.246l0.029-0.047l0.002-0.058
		c0.139-1.203,0.476-2.364,0.799-3.486c0.328-1.136,0.664-2.312,0.813-3.549c0.081-0.233,0.099-0.498,0.114-0.754
		c0.04-0.606,0.101-0.813,0.375-0.864l0.231-0.047l-0.009-0.314l-0.007-0.148l-0.092-0.269l0.227-0.274
		c3.982-0.146,8.292,0.424,12.098,0.934l0.182,0.025c1.798,0.191,3.614,0.51,5.378,0.822c1.787,0.316,3.481,0.606,5.149,0.781
		l0.013,0.157l1.428,0.117c0.552,0.393,1.183,0.514,1.793,0.628c0.532,0.099,1.037,0.202,1.452,0.476
		c-0.296,0.236-0.46,0.602-0.518,0.967c-1.068,0.471-2.456,1.385-3.275,2.462c-0.054,0.092-0.189,0.099-0.379,0.105
		c-0.278,0-0.864,0.004-0.871,0.685v0.061c-0.368,0.036-0.492,0.341-0.563,0.527l-0.099,0.204c-0.182-0.081-0.368-0.076-0.496-0.054
		l-0.242,0.036l-0.079,0.11c-0.595,0.985-1.65,1.681-2.669,2.352c-1.064,0.7-2.157,1.432-2.77,2.505
		c-1.679,0.718-2.893,1.766-4.063,2.786c-0.9,0.788-1.834,1.6-2.994,2.274l0.202,0.501c1.167-0.265,2.669-1.333,3.277-2.328
		l0.002-0.007l0.029-0.056l0.052,0.022l0.602,0.139l0.018-0.128c0.86-0.965,1.58-1.634,2.716-2.188l0.038-0.013l0.034-0.034
		c1.174-1.113,2.429-2.047,3.647-2.947c1.385-1.03,2.691-2,3.865-3.205l0.323-0.325l-0.155-0.045
		c0.476-0.166,0.983-0.527,1.448-0.857c0.332-0.236,0.835-0.595,0.985-0.581l0.072-0.211c0.682-0.274,1.145-0.759,1.578-1.237
		l0.11-0.114l0.011-0.007l0.155-0.065l0.007-0.112c0.251-0.258,0.505-0.501,0.808-0.658l0.281-0.144l0.597,0.063
		c0.754,0.047,1.688,0.105,2.245,0.788l0.258,0.321l0.24-0.444c0.24,0,0.415,0.043,0.543,0.186l0.117,0.128l0.164-0.045
		c0.498-0.144,0.891,0.018,1.344,0.209c0.418,0.173,0.887,0.366,1.439,0.276c1.167,0.786,2.682,1.217,3.901,1.502l0.155,0.117
		c0.139,0.101,0.332,0.238,0.344,0.332l0.031,0.325l0.314-0.09c0.653-0.186,1.52,0.406,2.283,0.967l0.031,0.029l0.047,0.011
		c0.265,0.09,0.552,0.099,0.828,0.105c0.503,0.018,0.808,0.056,0.988,0.341l-0.076,0.097l-0.292-0.112
		c-0.195-0.105-0.442-0.24-0.705-0.121c-0.224,0.103-0.332,0.359-0.391,0.586l-5.151,2.348c-7.663,3.472-14.918,6.763-21.993,11.762
		l7.804-0.842c0.429-0.263,0.887-0.422,1.452-0.361l0.126,0.016l0.094-0.094c0.501-0.496,1.109-0.808,1.749-1.14
		c0.68-0.352,1.376-0.727,1.944-1.329l0.761,0.631l0.052-0.507c0.063-0.611,0.431-0.725,1.075-0.873
		c0.485-0.117,1.026-0.245,1.338-0.75c0.159-0.157,0.269-0.13,0.557-0.02c0.193,0.07,0.411,0.148,0.667,0.128l0.105-0.011
		l0.233-0.274c0.182-0.207,0.355-0.433,0.471-0.712c0.705-0.222,1.392-0.682,2.065-1.138c0.893-0.608,1.74-1.178,2.399-1.026
		l0.236-0.476l-0.292-0.236l0.186-0.013l0.521-0.063l0.009-0.031c0.332-0.233,0.644-0.366,0.949-0.492
		c0.503-0.209,1.026-0.44,1.533-1.113c0.698-0.108,1.172-0.501,1.551-0.833c0.211-0.18,0.391-0.334,0.552-0.393l1.908-0.397
		l0.263-0.052l-0.049-0.26l-0.011-0.07c-0.029-0.254,0.088-0.321,0.615-0.429l0.523-0.155l0.157,0.135l0.202,0.186l-0.002,0.004
		l-0.038,0.258l0.254,0.049c0.947,0.189,1.847,0.761,2.72,1.315l1.45,0.855l0.126-0.092l0.204-0.094l0.079,0.148
		c0.094,0.207,0.267,0.581,0.754,0.534l0.296-0.029l-0.052-0.292C605.13,258.066,604.738,257.333,603.51,257.054 M649.91,275.41
		c0.079,0.123,0.26,0.411,0.732,0.207l0.18-0.079l-0.074-0.835l-0.855,0.079l-0.076,0.525L649.91,275.41 M611.148,249.672
		l-0.831,0.079l0.025,0.274l0.047,0.487l0.837-0.076L611.148,249.672L611.148,249.672z M606.14,247.975l0.018,0.029l0.023,0.02
		c0.759,0.678,1.697,1.071,2.604,1.45l1.174,0.523l0.265-0.478l-1.614-1.053c-1.219-0.808-2.476-1.63-3.744-2.305l0.016-0.018
		l-0.444-0.323l-0.085,0.108l-0.146-0.119c-0.139-0.132-0.377-0.348-0.676-0.321c-0.373-0.687-1.143-0.747-1.728-0.788
		c-0.384-0.025-0.747-0.049-0.889-0.22l-0.085-0.236l0.005-0.258l-0.523-0.141l-0.299,0.691l-0.061,0.135l0.045-0.22
		c0.079-0.438-0.215-0.682-0.413-0.839l-0.202-0.236l0.025-0.299l-0.301,0.004c-0.406,0.011-0.671-0.139-0.979-0.308
		c-0.375-0.215-0.799-0.451-1.472-0.341l-0.233,0.038l-0.027-0.417l-0.038-0.256l-0.258,0.025c-0.934,0.09-1.856-0.696-2.597-1.322
		l-0.631-0.516l-0.105,0.02l-0.602,0.058l-0.117-0.137l-0.047-0.043l0.079-0.328l-1.012,0.094l0.027,0.287l-0.088,0.02
		c-0.687-1.019-1.585-0.914-2.393-0.795c-0.487,0.07-0.994,0.146-1.477-0.004c-0.137-0.067-0.198-0.195-0.296-0.417l-0.186-0.377
		l-0.067-0.016c-0.781-0.386-1.654-0.584-2.498-0.774l-1.107-0.263l-0.005,0.016l-0.164-0.09c-0.386-0.206-0.801-0.348-1.205-0.487
		c-0.588-0.195-1.147-0.384-1.495-0.747l-0.175-0.18l-0.359,0.294c-0.263,0.11-0.492,0.128-0.649,0.049
		c-0.123-0.065-0.213-0.202-0.251-0.402l-0.119-0.572l-0.411,0.521l-0.269,0.204l0.076,0.045l-0.352-0.182l-0.153-0.067l0.09-0.337
		l-0.316-0.081l-0.296-0.054c-0.314-0.063-0.828-0.162-1.165,0.135l-0.462-0.637l-0.153,0.013c-0.123,0.011-0.449,0.045-0.624,0.265
		l-0.642,0.056c-0.765,0.137-1.109,0.135-1.257-0.251l-0.182-0.462l-0.296,0.402l-0.11,0.128l-0.137-0.148
		c-0.123-0.162-0.278-0.35-0.516-0.451c-0.15-0.139-0.348-0.274-0.568-0.224c-0.238,0.052-0.332,0.281-0.406,0.442
		c-0.108,0.256-0.128,0.254-0.238,0.22l-0.049-0.04l0.242-0.615l-0.646,0.33c-0.162,0.079-0.505,0.011-0.579-0.056l0.004,0.191
		l-0.323-0.424c-0.842,0.384-1.708,0.132-2.622-0.137c-0.602-0.175-1.221-0.346-1.834-0.328l-0.018-0.173l-0.287,0.045
		c-1.084,0.175-1.982,0.108-2.824-0.222l-0.106-0.038l-0.101,0.045c-0.786,0.343-1.769,0.238-2.723,0.135
		c-0.934-0.101-1.89-0.195-2.725,0.11c-0.606-0.637-1.255-0.294-1.692-0.045c-0.429,0.238-0.608,0.278-0.781,0.148l-0.034-0.339
		l-2.801,0.146c-1.412,0.097-2.873,0.191-4.319,0.15l-0.056-0.004l-0.011,0.009l-0.568,0.202c-0.514,0.222-0.842,0.334-1.059,0.067
		l-0.211-0.258l-0.467,0.568c-0.631,0.043-1.542,0.236-2.509,0.442c-1.315,0.285-2.81,0.606-3.304,0.447l-0.034-0.009l-0.029-0.002
		c-1.178-0.103-2.254,0.274-3.387,0.678c-0.768,0.272-1.562,0.534-2.399,0.653l-0.011-0.027c-0.29-0.332-1.071-0.135-4.173,1.041
		l-1.113,0.411c-0.074-0.325-0.247-0.586-0.418-0.799c-0.159-0.206-0.242-0.33-0.249-0.44l0.103-0.263l0.314-0.373l-0.512-0.076
		l-0.081-0.236l-0.029-0.103l-0.135-0.079l-0.247-0.162c-0.269-0.193-0.676-0.489-1.147-0.204l-0.215,0.123l1.086,2.471
		c0.563,1.217,1.098,2.366,1.446,3.733l0.009,0.031l0.02,0.031c1.05,1.906,1.834,3.809,2.75,6.011l0.189,0.46l0.57,1.535
		c0.348,1.021,0.682,1.984,1.477,2.887c0.512,1.03,0.819,1.917,1.118,2.772c0.332,0.963,0.68,1.964,1.313,3.167
		c0.563,0.965,1.091,2.054,1.645,3.205c0.483,0.992,0.981,2.016,1.499,2.947l-0.02,0.269c0.063,0.579,0.59,0.891,1.019,1.156
		l0.501,0.341l0.22,0.22l0.016,0.016c0.11,0.139,0.198,0.285,0.215,0.476l0.005,0.067h0.543v-0.036l-0.005-0.2
		c-0.04-0.37-0.211-0.545-0.366-0.689l-0.222-0.222l-0.067-0.123l0.105-0.393l-0.025-0.099c-0.083-0.251-0.33-0.328-0.55-0.402
		l-0.361-0.184c0.139,0.004,0.319-0.002,0.456-0.135l0.2-0.532l-0.09-0.016c-0.195-0.305-0.393-0.402-0.599-0.507l-0.137-0.079
		l0.016-0.018l0.009-0.088l-0.007-0.633c-0.054-0.525-0.242-1.075-0.597-1.403c-0.15-0.137-0.328-0.211-0.516-0.254l0.281-0.557
		l-0.828-0.487l0.031-0.088l-0.002-0.054l-0.013-0.198c-0.088-0.813-0.48-1.542-0.857-2.251c-0.281-0.525-0.541-1.021-0.671-1.52
		l-0.009-0.022l-1.221-2.835c-0.905-2.155-1.758-4.186-3.185-6.408l-0.173-0.752c-0.081-0.496-0.177-0.961-0.662-1.38l-0.002-0.355
		c-0.099-0.909-0.626-1.695-1.14-2.458c-0.498-0.738-0.97-1.441-1.055-2.213v-0.312c0.961-0.453,2.289-0.893,4.058-1.344l0.02-0.004
		c1.616-0.541,3.017-0.637,4.139-0.718c1.035-0.072,1.8-0.139,2.215-0.541l0.222,0.094c0.402,0.377,1.784,0.09,5.445-0.907
		c1.042-0.285,2.022-0.552,2.615-0.667l0.029-0.004l0.029-0.011c0.269-0.121,0.624-0.063,1.001-0.011
		c0.563,0.09,1.248,0.164,1.8-0.375l2.884,0.072c1.98,0.072,4.022,0.141,6.117-0.047c1.001,0.426,2.209,0.411,3.284,0.388
		c0.478-0.011,0.918-0.013,1.324,0.018l0.013,0.166l0.478-0.007c0.22,0.002,0.516-0.016,0.716-0.2
		c1.062,0.276,2.361,0.364,3.625,0.442c0.833,0.049,1.616,0.099,2.294,0.202c1.006,0.745,2.085,0.727,3.133,0.694
		c0.961-0.029,1.865-0.058,2.732,0.48l0.139,0.088l0.141-0.085c0.523-0.31,0.759-0.114,1.149,0.209
		c0.352,0.296,0.795,0.644,1.486,0.467c0.606,0.561,1.241,0.238,1.661,0.013c0.216-0.117,0.442-0.236,0.554-0.186
		c0.049,0.02,0.177,0.121,0.307,0.577l0.049,0.186l0.193,0.013l0.503,0.153c0.357,0.135,0.756,0.292,0.997-0.002l0.146-0.173
		l-0.166-0.204l0.238-0.29l-0.002,0.027c-0.036,0.305,0.02,0.536,0.171,0.703c0.245,0.278,0.667,0.278,1.068,0.276
		c0.667-0.002,1.075,0.027,1.187,0.635l0.135,0.741l0.4-0.723l0.141-0.045l0.119,0.101l0.112,0.094l-0.011,0.238l0.216,0.09
		l1.533,0.449c1.084,0.341,2.112,0.658,3.248,0.637c0.191,0.359,0.53,0.478,0.795,0.561c0.247,0.074,0.397,0.123,0.462,0.269
		l0.096,0.193l0.209-0.047c0.471-0.099,0.842,0.155,1.362,0.66l0.144,0.137l0.173-0.092c0.157-0.081,0.507,0.132,0.761,0.285
		c0.337,0.206,0.66,0.4,0.936,0.218l0.146-0.164l0.24,0.11c0.806,0.377,1.82,0.943,2.994,1.683l0.343,0.213l0.009-0.061l1.158,0.577
		c0.64,0.301,1.241,0.588,1.798,1.003l0.056,0.043l0.072,0.009c0.853,0.105,1.351,0.364,1.479,0.756l0.047,0.139l0.108,0.025
		l0.617,0.18C605.624,247.598,605.918,247.654,606.14,247.975 M588.37,243.51l-0.835,0.079l0.025,0.269l0.045,0.494l0.837-0.081
		L588.37,243.51L588.37,243.51z"/>
	<path fill="#FFFFFF" d="M563.39,269.393l44.019-4.732l3.158,29.375l-44.019,4.732L563.39,269.393z"/>
	<path fill="#164194" d="M609.835,293.406l-42.753,4.597l-3.021-28.1l42.753-4.597L609.835,293.406z"/>
	<path fill="#FFED00" d="M583.549,290.012l-0.44-0.997l-0.216,1.066l-1.104,0.11l0.961,0.575l-0.233,1.093l0.81-0.743l0.954,0.561
		l-0.456-1.024l0.824-0.765L583.549,290.012L583.549,290.012z M579.268,286.721l-0.44-0.992l-0.218,1.066l-1.104,0.112l0.956,0.575
		l-0.231,1.093l0.817-0.745l0.954,0.561l-0.46-1.021l0.824-0.77L579.268,286.721L579.268,286.721z M577.448,283.226l0.954,0.557
		l-0.462-1.019l0.831-0.772l-1.098,0.128l-0.44-0.997l-0.22,1.064l-1.1,0.117l0.956,0.572l-0.233,1.091L577.448,283.226
		L577.448,283.226z M578.195,276.131l-0.222,1.064l-1.1,0.117l0.956,0.575l-0.233,1.095l0.812-0.743l0.954,0.554l-0.456-1.021
		l0.822-0.768l-1.095,0.126L578.195,276.131L578.195,276.131z M580.397,275.364l0.817-0.745l0.954,0.563l-0.462-1.024l0.831-0.768
		l-1.098,0.128l-0.438-0.997l-0.222,1.062l-1.102,0.117l0.958,0.575L580.397,275.364L580.397,275.364z M588.289,290.878
		l-0.438-0.992l-0.222,1.066l-1.095,0.11l0.97,0.579l-0.236,1.089l0.815-0.745l0.958,0.557l-0.462-1.021l0.81-0.765L588.289,290.878
		z M592.736,289.02l-0.44-0.992l-0.216,1.071l-1.1,0.105l0.972,0.579l-0.231,1.093l0.813-0.752l0.952,0.552l-0.46-1.015l0.817-0.765
		L592.736,289.02L592.736,289.02z M596.222,284.899l-0.438-0.997l-0.222,1.066l-1.093,0.117l0.967,0.575l-0.231,1.093l0.81-0.745
		l0.949,0.548l-0.456-1.015l0.808-0.765L596.222,284.899L596.222,284.899z M597.898,279.936l-1.098,0.123l-0.44-0.992l-0.215,1.066
		l-1.1,0.11l0.97,0.579l-0.229,1.095l0.81-0.75l0.954,0.55l-0.462-1.017L597.898,279.936L597.898,279.936z M593.782,277.245
		l0.813-0.75l0.954,0.552l-0.462-1.017l0.813-0.768l-1.1,0.123l-0.44-0.99l-0.218,1.066l-1.098,0.11l0.97,0.579L593.782,277.245z
		 M590.85,271.456l-0.215,1.071l-1.1,0.105l0.97,0.579l-0.229,1.095l0.81-0.75l0.956,0.55l-0.46-1.012l0.81-0.768l-1.104,0.121
		L590.85,271.456z M585.805,270.722l-0.224,1.064l-1.095,0.119l0.965,0.57l-0.233,1.093l0.812-0.745l0.956,0.557l-0.458-1.021
		l0.813-0.759l-1.102,0.119L585.805,270.722L585.805,270.722z"/>
	<path fill="#FFFFFF" d="M567.688,302.777c0.368-0.123,0.869-0.229,1.371-0.285c0.79-0.083,1.428-0.04,1.906,0.332
		c0.442,0.303,0.685,0.851,0.747,1.43c0.079,0.736-0.085,1.284-0.402,1.697c-0.377,0.501-1.03,0.777-1.585,0.833l-0.263,0.022
		l0.269,2.539l-1.324,0.139L567.688,302.777L567.688,302.777z M569.345,305.731l0.227-0.013c0.664-0.07,0.905-0.575,0.839-1.214
		c-0.067-0.597-0.359-1.035-0.974-0.97l-0.319,0.088L569.345,305.731L569.345,305.731z M573.511,307.362l-0.135,1.591l-1.282,0.132
		l0.745-6.967l1.585-0.171l2.056,6.669l-1.284,0.139l-0.458-1.526L573.511,307.362z M574.505,306.209l-0.373-1.398l-0.391-1.526
		l-0.031,0.004l-0.076,1.578l-0.101,1.448L574.505,306.209z M576.503,301.825c0.406-0.123,0.927-0.233,1.43-0.287
		c0.732-0.076,1.401-0.038,1.876,0.312c0.453,0.328,0.633,0.77,0.696,1.353c0.081,0.732-0.215,1.43-0.869,1.811l0.002,0.027
		c0.487,0.137,0.765,0.543,0.972,1.261c0.216,0.741,0.487,1.564,0.637,1.802l-1.385,0.153c-0.11-0.189-0.339-0.855-0.521-1.605
		c-0.211-0.824-0.449-1.044-0.884-0.999l-0.202,0.022l0.292,2.718l-1.327,0.144L576.503,301.825L576.503,301.825z M578.148,304.658
		l0.24-0.027c0.577-0.061,0.851-0.566,0.786-1.163c-0.058-0.588-0.341-0.965-0.925-0.92l-0.323,0.074L578.148,304.658
		L578.148,304.658z M581.241,301.217l1.322-0.146l0.613,5.695l1.737-0.193l0.119,1.122l-3.062,0.332L581.241,301.217
		L581.241,301.217z M588.359,304.312l-1.547,0.171l0.195,1.836l1.748-0.189l0.123,1.154l-3.068,0.332l-0.734-6.812l2.961-0.323
		l0.123,1.156l-1.639,0.175l0.173,1.564l1.542-0.166L588.359,304.312L588.359,304.312z M593.694,304.35
		c-0.11-0.64-0.242-1.517-0.314-2.245l-0.022,0.004c-0.043,0.741-0.135,1.6-0.209,2.135l-0.332,2.503l-0.934,0.096l-0.819-2.332
		c-0.191-0.53-0.462-1.362-0.658-2.092h-0.02l0.144,2.292l0.132,2.377l-1.131,0.123l-0.245-6.866l1.405-0.153l0.808,2.411
		c0.274,0.837,0.527,1.573,0.732,2.332l0.034-0.004c0.018-0.768,0.085-1.551,0.166-2.433l0.281-2.518l1.396-0.153l1.145,6.767
		l-1.181,0.13L593.694,304.35L593.694,304.35z M598.763,303.194l-1.54,0.166l0.195,1.841l1.749-0.193l0.123,1.158l-3.073,0.328
		l-0.729-6.812l2.958-0.321l0.126,1.154l-1.639,0.175l0.171,1.564l1.544-0.164L598.763,303.194L598.763,303.194z M600.197,306.065
		l-0.734-6.812l1.214-0.128l1.342,2.554c0.265,0.498,0.685,1.349,0.94,1.915h0.018c-0.114-0.714-0.332-1.89-0.469-3.142
		l-0.162-1.504l1.165-0.128l0.732,6.812l-1.212,0.132l-1.322-2.478c-0.292-0.552-0.691-1.389-0.918-1.977l-0.02,0.004
		c0.117,0.68,0.281,1.728,0.424,3.1l0.166,1.531L600.197,306.065L600.197,306.065z M605.546,299.839l-1.203,0.128l-0.132-1.223
		l3.74-0.404l0.13,1.226l-1.212,0.13l0.602,5.589l-1.324,0.139L605.546,299.839L605.546,299.839z M613.528,301.605l-1.547,0.164
		l0.2,1.841l1.749-0.184l0.123,1.149l-3.071,0.328l-0.734-6.808l2.963-0.321l0.123,1.151l-1.639,0.175l0.168,1.571l1.547-0.166
		L613.528,301.605L613.528,301.605z M615.509,297.529l0.476,4.424c0.11,1.003,0.431,1.27,0.786,1.237
		c0.386-0.047,0.628-0.346,0.516-1.376l-0.474-4.424l1.322-0.141l0.451,4.191c0.189,1.751-0.377,2.772-1.679,2.909
		c-1.428,0.153-2.087-0.763-2.271-2.474l-0.456-4.204L615.509,297.529L615.509,297.529z M619.285,297.221
		c0.406-0.128,0.929-0.231,1.434-0.285c0.725-0.079,1.398-0.036,1.876,0.31c0.451,0.33,0.633,0.77,0.696,1.353
		c0.081,0.729-0.216,1.425-0.869,1.814l0.002,0.02c0.485,0.144,0.765,0.543,0.974,1.27c0.218,0.741,0.487,1.56,0.635,1.798
		l-1.383,0.153c-0.114-0.184-0.339-0.855-0.521-1.6c-0.216-0.828-0.451-1.053-0.887-0.999l-0.202,0.018l0.294,2.718l-1.324,0.144
		L619.285,297.221L619.285,297.221z M620.928,300.052l0.242-0.025c0.579-0.065,0.848-0.566,0.786-1.165
		c-0.061-0.586-0.337-0.963-0.923-0.916l-0.321,0.072L620.928,300.052z M628.398,299.464c0.276,2.568-0.518,3.708-1.816,3.845
		c-1.549,0.171-2.33-1.403-2.532-3.275c-0.198-1.863,0.366-3.546,1.881-3.708C627.57,296.148,628.23,297.906,628.398,299.464
		L628.398,299.464z M625.431,299.906c0.164,1.547,0.541,2.301,1.077,2.245c0.566-0.058,0.669-1.091,0.521-2.476
		c-0.128-1.192-0.429-2.254-1.03-2.191C625.471,297.538,625.273,298.438,625.431,299.906L625.431,299.906z M628.892,296.191
		c0.364-0.121,0.864-0.229,1.369-0.278c0.788-0.088,1.428-0.04,1.908,0.325c0.438,0.312,0.682,0.86,0.745,1.434
		c0.076,0.736-0.085,1.288-0.402,1.697c-0.377,0.501-1.032,0.777-1.587,0.837l-0.263,0.02l0.272,2.536l-1.324,0.139L628.892,296.191
		L628.892,296.191z M630.548,299.15l0.222-0.011c0.669-0.074,0.911-0.586,0.839-1.214c-0.063-0.597-0.357-1.033-0.972-0.97
		l-0.319,0.083L630.548,299.15L630.548,299.15z M636.775,299.1l-1.547,0.166l0.198,1.838l1.749-0.184l0.123,1.149l-3.075,0.332
		l-0.729-6.808l2.961-0.325l0.126,1.154l-1.636,0.18l0.168,1.564l1.544-0.166L636.775,299.1L636.775,299.1z M636.427,293.756
		l-1.111,1.275l-0.941,0.101l0.703-1.232L636.427,293.756L636.427,293.756z M640.752,298.676l-1.544,0.164l0.198,1.841l1.749-0.189
		l0.126,1.154l-3.073,0.328l-0.732-6.81l2.958-0.321l0.123,1.154l-1.639,0.175l0.173,1.569l1.547-0.166L640.752,298.676
		L640.752,298.676z M642.182,301.547l-0.729-6.812l1.212-0.13l1.338,2.557c0.272,0.501,0.687,1.351,0.94,1.912h0.025
		c-0.119-0.714-0.339-1.89-0.474-3.138l-0.159-1.506l1.16-0.126l0.734,6.808l-1.217,0.132l-1.322-2.478
		c-0.292-0.543-0.689-1.385-0.914-1.973h-0.02c0.117,0.687,0.274,1.728,0.424,3.1l0.162,1.531L642.182,301.547L642.182,301.547z
		 M202.846,463.117l-0.539-5.149l4.884-0.51l0.539,5.145L202.846,463.117z"/>
</g>
</svg>
