<svg xmlns="http://www.w3.org/2000/svg" viewBox="0 0 841.9 595.3" enable-background="new 0 0 841.9 595.3"><path fill="#fff" d="M835.7 432.6l-.6-5.6-294.4 31-24.2-229.8 288.9-30.3 24.7 235.3 5.6-.6-.6-5.6.6 5.6 5.6-.6-25.9-246.5-311.2 32.8 26.5 252 311.2-32.7-.6-5.6z"/><g fill="#fff"><path d="M396.6 468.7l-4.9.5-.2 5.1 4.8-.5-.2 3.1-4.9.5-.5 7.7-3.2.3.5-7.7-6.1.6-.5 7.7-3.2.3.5-7.7-4.9.5.2-3.1 4.9-.5.3-5.1-4.9.5.2-3 4.9-.5.5-7.6 3.2-.3-.5 7.6 6.1-.6.5-7.6 3.2-.3-.5 7.6 4.9-.5-.2 3zm-14.2 1.5l-.3 5.1 6.2-.6.3-5.1-6.2.6zM400.5 457.8l15.8-1.7.5 4.3-11.1 1.2.7 6.4 10.1-1.1.5 4.3-10.1 1.1.7 6.7 11.1-1.2.5 4.3-15.8 1.7-2.9-26zM421.4 455.6l13.2-1.4c2.4-.2 4.5 1.5 4.7 3.8l.8 7.4c.2 2.4-1.5 4.5-3.8 4.7l-8.6.9 1.1 10-4.7.5-2.7-25.9zm13.4 4c-.1-.6-.6-1-1.2-.9l-7.1.7.8 7.4 7.1-.7c.6-.1 1-.5.9-1.1l-.5-5.4zM444.3 470.5c-.2-2.3 1.1-3 3-4.2l5.9-3.3c.5-.3.8-.6.8-1.2l-.5-4.5c-.1-.6-.6-1-1.2-.9l-3.9.4c-.6.1-1 .5-.9 1.1l.2 2.3-4.6-.3-.3-2.5c-.2-2.3 1.4-4.3 3.6-4.5l6.8-.7c2.3-.2 4.3 1.4 4.6 3.7l.7 6.4c.2 1.8-.6 2.6-2.3 3.7-1.7 1.1-3.8 2.3-6.6 3.9-.5.3-.8.6-.8 1.2l.4 3.7 10.7-1.1.4 4.1-15.2 1.6-.8-8.9zM465.3 473.1l-1.9-17.8c-.2-2.3 1.4-4.3 3.6-4.5l7.5-.8c2.3-.2 4.3 1.4 4.6 3.7l1.9 17.8c.2 2.3-1.4 4.3-3.7 4.5l-7.5.8c-2.3.3-4.3-1.4-4.5-3.7zm9.4-17.9c-.1-.6-.6-1-1.2-.9l-4.6.5c-.6.1-1 .5-1 1.1l1.7 15.8c.1.6.6 1 1.2.9l4.7-.5c.6-.1 1-.5.9-1.1l-1.7-15.8zM493 448.1l2.7 26-4.5.5-2.3-21.5-6.4 2.8-.5-4.5 6.4-2.8 4.6-.5zM498.1 463.5l8.9-16.9 4.5-.5 1.7 15.8 4.2-.4.1 3.9-3.9.4.7 6.3-4.5.5-.7-6.3-10.6 1.1-.4-3.9zm10.6-1.1l-.9-8.9-4.8 9.5 5.7-.6z"/></g><path fill="#fff" d="M503.2 104.7l-503.2 52.8 30 283.6 503.2-52.9-30-283.5zm-490.5 63.1l480.3-50.5 27.5 260.7-480.3 50.4-27.5-260.6zM32.1 218.3l31.3-3.3.9 8.5-22 2.3 1.3 12.8 20.1-2.1.9 8.5-20.1 2.1 1.4 13.3 22-2.3.9 8.5-31.3 3.3-5.4-51.6zm13.3-5.7l-4.5-4.3 8.9-9.5 4.6 4.4-9 9.4zM71.2 214.2l9.3-1 4.5 43.1 21.1-2.2.9 8.5-30.4 3.2-5.4-51.6zM107.8 210.4l31.3-3.3.9 8.5-22 2.3 1.3 12.8 20.1-2.1.9 8.5-20.1 2.1 1.4 13.2 22-2.3.9 8.5-31.3 3.3-5.4-51.5zM175.1 237.4l9.5.6.8 7.8c.5 4.7-2.9 8.9-7.6 9.4l-17.4 1.8c-4.7.5-8.8-2.9-9.3-7.6l-3.6-34.6c-.5-4.7 2.8-8.9 7.6-9.4l17.4-1.8c4.7-.5 8.9 2.9 9.4 7.6l.8 7.4-9.1 2.5-.7-6.9c-.1-1.2-1.1-1.9-2.3-1.8l-11.6 1.2c-1.2.1-2 1.1-1.9 2.2l3.2 30.5c.1 1.2 1.1 1.9 2.3 1.8l11.4-1.1c1.2-.1 2-1.1 1.9-2.2l-.8-7.4zM184.3 202.4l37.4-3.9.9 8.5-14 1.5 4.5 43.1-9.3 1-4.5-43.1-14 1.5-1-8.6zM241.4 248.5l-9.3 1-5.4-51.6 9.3-1 5.4 51.6zM249.5 239.1l-3.6-34.6c-.5-4.7 2.8-8.9 7.6-9.4l18.2-1.9c4.7-.5 8.9 2.9 9.4 7.6l3.6 34.6c.5 4.7-2.9 8.9-7.6 9.4l-18.2 1.9c-4.8.5-8.9-2.9-9.4-7.6zm22.4-35.3c-.1-1.2-1.1-1.9-2.3-1.8l-12.4 1.3c-1.2.1-2 1.1-1.9 2.2l3.2 30.5c.1 1.2 1.1 1.9 2.3 1.8l12.4-1.3c1.2-.1 2-1.1 1.9-2.2l-3.2-30.5zM332 239l-9 .9-23-31.4 3.5 33.4-9 .9-5.4-51.6 9-.9 23.1 31.5-3.5-33.6 9-.9 5.3 51.7zM346.8 213.1c-4.7-.9-8.7-2.8-9.2-7.5l-1.1-10.6c-.5-4.7 2.8-8.9 7.6-9.4l16.4-1.7c4.7-.5 8.9 2.9 9.4 7.6l.6 6-9.1 2.5-.6-5.6c-.1-1.2-1.1-1.9-2.3-1.8l-10.6 1.1c-1.2.1-2 1.1-1.9 2.2l.7 6.4c.1 1.2 1.1 1.8 2.3 2 4.7.8 8.7 1.4 14.5 2.5 4.5.8 8.4 2.8 8.9 7.5l1.2 11.5c.5 4.7-2.8 8.9-7.6 9.4l-16.7 1.8c-4.7.5-8.9-2.9-9.4-7.6l-.6-5.9 9.1-2.5.6 5.4c.1 1.2 1.1 1.9 2.3 1.8l10.9-1.1c1.2-.1 2-1.1 1.9-2.2l-.8-7.4c-.1-1.2-1-1.8-2.3-2-6-.9-8.3-1.3-14.2-2.4zM39.7 290.6l31.3-3.3.9 8.5-22 2.3 1.3 12.8 20.1-2.1.9 8.5-20.1 2.1 1.4 13.3 22-2.3.9 8.5-31.3 3.3-5.4-51.6zM103.3 283.9l9.3-1 4.5 43.1c.5 4.7-2.9 8.9-7.6 9.4l-17.4 1.8c-4.7.5-8.8-2.9-9.3-7.6l-4.5-43.1 9.3-1 4.3 41.1c.1 1.2 1.1 1.9 2.3 1.8l11.6-1.2c1.2-.1 2-1.1 1.9-2.2l-4.4-41.1zM143.8 311.7l-9.8 1 2.1 19.9-9.3 1-5.4-51.6 27-2.8c4.7-.5 8.9 2.9 9.4 7.6l1.5 14.6c.4 4-1.9 7.6-5.6 9l12 19.1-10.2 1.1-11.7-18.9zm5-21.9c-.1-1.2-1.1-1.9-2.3-1.8l-14.9 1.6 1.5 14.6 14.9-1.6c1.2-.1 2-1.1 1.9-2.2l-1.1-10.6zM170.6 320.4l-3.6-34.6c-.5-4.7 2.8-8.9 7.6-9.4l18.2-1.9c4.7-.5 8.9 2.9 9.4 7.6l3.6 34.6c.5 4.7-2.9 8.9-7.6 9.4l-18.2 1.9c-4.7.6-8.9-2.8-9.4-7.6zm22.5-35.2c-.1-1.2-1.1-1.9-2.3-1.8l-12.4 1.3c-1.2.1-2 1.1-1.9 2.2l3.2 30.5c.1 1.2 1.1 1.9 2.3 1.8l12.4-1.3c1.2-.1 2-1.1 1.9-2.2l-3.2-30.5zM210.1 272.7l26.3-2.8c4.7-.5 8.9 2.9 9.4 7.6l1.5 14.6c.5 4.7-2.9 8.9-7.6 9.4l-17 1.8 2.1 19.9-9.3 1-5.4-51.5zM250.5 268.5l31.3-3.3.9 8.5-22 2.3 1.3 12.8 20.1-2.1.9 8.5-20.1 2.1 1.4 13.2 22-2.3.9 8.5-31.3 3.3-5.4-51.5zm13.3-5.7l-4.5-4.3 8.9-9.6 4.6 4.4-9 9.5zM289.4 264.4l31.3-3.3.9 8.5-22 2.3 1.3 12.8 20.1-2.1.9 8.5-20.1 2.1 1.4 13.3 22-2.3.9 8.5-31.3 3.3-5.4-51.6zM371.3 308l-9 .9-23-31.4 3.5 33.4-9 .9-5.4-51.6 9-.9 23.1 31.5-3.5-33.6 9-.9 5.3 51.7zM417.9 303.1l-9 .9-23-31.4 3.5 33.4-9 .9-5.4-51.6 9-.9 23 31.5-3.5-33.6 9-.9 5.4 51.7zM421.6 250.5l31.3-3.3.9 8.5-22 2.3 1.3 12.8 20.1-2.1.9 8.5-20.1 2.1 1.4 13.2 22-2.3.9 8.5-31.3 3.3-5.4-51.5zM471.5 273.1c-4.7-.9-8.7-2.8-9.2-7.5l-1.1-10.6c-.5-4.7 2.8-8.9 7.6-9.4l16.4-1.7c4.7-.5 8.9 2.9 9.4 7.6l.6 6-9.1 2.5-.6-5.6c-.1-1.2-1.1-1.9-2.3-1.8l-10.6 1.1c-1.2.1-2 1.1-1.9 2.2l.7 6.4c.1 1.2 1.1 1.8 2.3 2 4.7.8 8.7 1.4 14.5 2.5 4.5.8 8.4 2.8 8.9 7.5l1.2 11.5c.5 4.7-2.8 8.9-7.5 9.4l-16.7 1.8c-4.7.5-8.9-2.9-9.4-7.6l-.6-5.9 9.1-2.5.6 5.4c.1 1.2 1.1 1.9 2.3 1.8l10.9-1.1c1.2-.1 2-1.1 1.9-2.2l-.8-7.4c-.1-1.2-1-1.8-2.3-1.9-6.1-1-8.4-1.4-14.3-2.5zM49.8 397c-.5-4.5 2.1-6 6-8.2 4.7-2.7 7-3.8 11.6-6.5 1-.6 1.7-1.3 1.5-2.4l-.9-8.9c-.1-1.2-1.1-1.9-2.3-1.8l-7.7.8c-1.2.1-2 1.1-1.9 2.2l.5 4.6-9.1-.6-.5-5c-.5-4.5 2.7-8.5 7.2-9l13.4-1.4c4.6-.5 8.6 2.8 9.1 7.3l1.3 12.8c.4 3.5-1.1 5.2-4.5 7.3-3.4 2.1-7.6 4.5-13 7.8-1 .7-1.7 1.1-1.6 2.3l.8 7.4 21.2-2.2.9 8.1-30.1 3.2-1.9-17.8zM87.3 393c-.5-4.5 2.1-6 6-8.2 4.7-2.7 7-3.8 11.6-6.5 1-.6 1.7-1.3 1.5-2.4l-.9-8.8c-.1-1.2-1.1-1.9-2.3-1.8l-7.7.8c-1.2.1-2 1.1-1.9 2.2l.5 4.6-9.1-.6-.5-5c-.5-4.5 2.7-8.5 7.2-9l13.4-1.4c4.6-.5 8.6 2.8 9.1 7.3l1.3 12.8c.4 3.5-1.1 5.2-4.5 7.3-3.4 2.1-7.6 4.5-13.1 7.8-1 .7-1.7 1.1-1.6 2.3l.8 7.4 21.2-2.2.9 8.1-30.1 3.2-1.8-17.9zM121.9 388.6l-.8-7.8 19.2-2 .8 7.8-19.2 2zM147.5 386.7c-.5-4.5 2.1-6 6-8.2 4.7-2.7 7-3.8 11.6-6.5 1-.6 1.7-1.3 1.5-2.4l-.9-8.8c-.1-1.2-1.1-1.9-2.3-1.8l-7.7.8c-1.2.1-2 1.1-1.9 2.2l.5 4.6-9.1-.6-.5-5c-.5-4.5 2.7-8.5 7.2-9l13.4-1.4c4.6-.5 8.6 2.8 9.1 7.3l1.3 12.8c.4 3.5-1.1 5.2-4.5 7.3-3.4 2.1-7.6 4.5-13.1 7.8-1 .7-1.7 1.1-1.6 2.3l.8 7.4 21.2-2.2.9 8.1-30.1 3.2-1.8-17.9zM210.7 345.8l.9 8.1-19.8 2.1 1.4 13c4.4-1.2 8.9-2.2 12.7-2.6 5.3-.6 8.6 2.8 9.1 7.3l1.6 15.4c.5 4.5-2.8 8.5-7.4 9l-14 1.5c-4.5.5-8.4-2.8-8.9-7.3l-.3-2.6 8.7-2.5.2 2.1c.1 1.2 1.1 1.9 2.3 1.8l8.3-.9c1.2-.1 2-1.1 1.9-2.2l-1.2-11.1c-.1-1.2-1-1.9-2.3-1.8-1.9.2-5.9.9-7.9 1.5-1.5.5-1.9 1.6-1.8 2.8l.2 2.1h-9l-3.4-32.7 28.7-3zM245.7 363.1l3.2 30.8-9 .9-5.4-51.6 9-.9 17.1 30.2 10.5-33.1 9-.9 5.4 51.6-9 .9-3.2-30.8-7.5 23-7.9.8-12.2-20.9zM333.9 385l-9.4 1-4.9-10.8-17.4 1.8-2.4 11.6-9.4 1 12-53.4 8.6-.9 22.9 49.7zm-29.8-16.6l11.9-1.3-8-19.1-3.9 20.4zM348.1 383.5l-9.3 1-5.4-51.6 9.3-1 5.4 51.6zM368.8 363.5c-.5-4.5 2.1-6 6-8.2 4.7-2.7 7-3.8 11.6-6.5 1-.6 1.7-1.3 1.5-2.4l-.9-8.8c-.1-1.2-1.1-1.9-2.3-1.8l-7.7.8c-1.2.1-2 1.1-1.9 2.2l.5 4.6-9.1-.6-.5-5c-.5-4.5 2.7-8.5 7.2-9l13.4-1.4c4.6-.5 8.6 2.8 9.1 7.3l1.3 12.8c.4 3.5-1.1 5.2-4.5 7.3-3.4 2.1-7.6 4.5-13.1 7.8-1 .7-1.7 1.1-1.6 2.3l.8 7.4 21.2-2.2.9 8.1-30.1 3.2-1.8-17.9zM408 369l-3.7-35.3c-.5-4.5 2.7-8.5 7.2-9l15-1.6c4.6-.5 8.6 2.8 9.1 7.3l3.7 35.3c.5 4.5-2.8 8.5-7.4 9l-15 1.6c-4.5.5-8.4-2.8-8.9-7.3zm18.8-35.7c-.1-1.2-1.1-1.9-2.3-1.8l-9.2 1c-1.2.1-2 1.1-1.9 2.2l3.3 31.3c.1 1.2 1.1 1.9 2.3 1.8l9.2-1c1.2-.1 2-1.1 1.9-2.2l-3.3-31.3zM460.6 319.5l5.4 51.6-8.9.9-4.5-42.7-12.7 5.6-.9-8.9 12.7-5.6 8.9-.9zM468.6 350.3l17.7-33.5 8.9-.9 3.3 31.3 8.3-.9.2 7.8-7.7.8 1.3 12.6-8.9.9-1.3-12.6-21 2.2-.8-7.7zm21-2.2l-1.9-17.7-9.4 18.9 11.3-1.2z"/><path fill="#FEE900" d="M221.3 301.4l8.4-7.4 9.7 5.5-4.7-10.1 8.5-7.7-11.2 1.3-4.4-9.9-2.4 10.6-11.2 1.1 9.7 5.7z"/><g fill="#fff"><path d="M121.6 446.5l3.9-.4 6.3 16.5.8-17.2 4.4-.5-1.8 25.3-4.5.5-6.6-17.4-2.8 18.4-4.5.5-7-24.4 4.4-.5 4.4 16.7 3-17.5zM152.2 443.3l3.9-.4 6.3 16.5.8-17.2 4.4-.5-1.8 25.3-4.5.5-6.6-17.4-2.8 18.4-4.5.5-7-24.4 4.4-.5 4.4 16.7 3-17.5zM182.8 440l3.9-.4 6.3 16.5.8-17.2 4.4-.5-1.8 25.3-4.5.5-6.6-17.4-2.8 18.4-4.5.5-7-24.4 4.4-.5 4.4 16.7 3-17.5zM210.7 437.1l15.1-1.6.4 4.1-10.6 1.1.6 6.2 9.7-1 .4 4.1-9.7 1 .7 6.4 10.6-1.1.4 4.1-15.1 1.6-2.5-24.9zM231 435l4.5-.5 2.2 20.8 10.2-1.1.4 4.1-14.6 1.5-2.7-24.8zM250.1 433l15.1-1.6.4 4.1-10.6 1.1.6 6.2 9.7-1 .4 4.1-9.7 1 .7 6.4 10.6-1.1.4 4.1-15.1 1.6-2.5-24.9zM284 445.8l4.6.3.4 3.8c.2 2.3-1.4 4.3-3.7 4.5l-8.4.9c-2.3.2-4.3-1.4-4.5-3.7l-1.8-16.7c-.2-2.3 1.4-4.3 3.6-4.5l8.4-.9c2.3-.2 4.3 1.4 4.5 3.7l.4 3.5-4.4 1.2-.4-3.3c-.1-.6-.6-.9-1.1-.9l-5.6.6c-.6.1-1 .5-.9 1.1l1.5 14.7c.1.6.5.9 1.1.9l5.6-.6c.6-.1 1-.5.9-1.1l-.2-3.5zM290 428.8l18-1.9.4 4.1-6.8.7 2.2 20.8-4.5.5-2.2-20.8-6.8.7-.3-4.1zM319 450.9l-4.5.5-2.6-24.9 4.5-.5 2.6 24.9zM324.3 446.2l-1.7-16.7c-.2-2.3 1.4-4.3 3.6-4.5l8.8-.9c2.3-.2 4.3 1.4 4.5 3.7l1.7 16.7c.2 2.3-1.4 4.3-3.7 4.5l-8.8.9c-2.2.2-4.2-1.4-4.4-3.7zm10.8-17c-.1-.6-.5-.9-1.1-.9l-6 .6c-.6.1-1 .5-.9 1.1l1.5 14.7c.1.6.6.9 1.1.9l6-.6c.6-.1 1-.5.9-1.1l-1.5-14.7zM365.5 446l-4.3.5-11.1-15.1 1.7 16.1-4.3.5-2.6-24.9 4.3-.5 11.1 15.2-1.7-16.2 4.3-.5 2.6 24.9zM374.1 433.4c-2.3-.4-4.2-1.3-4.4-3.6l-.5-5.1c-.2-2.3 1.4-4.3 3.6-4.5l7.9-.8c2.3-.2 4.3 1.4 4.5 3.7l.3 2.9-4.4 1.2-.3-2.7c-.1-.6-.6-.9-1.1-.9l-5.1.5c-.6.1-1 .5-.9 1.1l.3 3.1c.1.6.5.9 1.1 1 2.3.4 4.2.7 7 1.2 2.2.4 4.1 1.3 4.3 3.6l.6 5.6c.2 2.3-1.4 4.3-3.6 4.5l-8.1.8c-2.3.2-4.3-1.4-4.5-3.7l-.3-2.8 4.4-1.2.3 2.6c.1.6.6.9 1.1.9l5.3-.6c.6-.1 1-.5.9-1.1l-.4-3.6c-.1-.6-.5-.9-1.1-.9l-6.9-1.2zM391.5 434.7c-.2-2.2 1-2.9 2.9-4l5.6-3.1c.5-.3.8-.6.7-1.2l-.4-4.3c-.1-.6-.6-.9-1.1-.9l-3.7.4c-.6.1-1 .5-.9 1.1l.2 2.2-4.4-.3-.3-2.4c-.2-2.2 1.3-4.1 3.5-4.3l6.5-.7c2.2-.2 4.1 1.3 4.4 3.5l.6 6.2c.2 1.7-.5 2.5-2.2 3.5-1.6 1-3.7 2.2-6.3 3.8-.5.3-.8.5-.7 1.1l.4 3.6 10.2-1.1.4 3.9-14.5 1.5-.9-8.5zM411.9 437.2l-1.8-17c-.2-2.2 1.3-4.1 3.5-4.3l7.2-.8c2.2-.2 4.1 1.3 4.4 3.5l1.8 17c.2 2.2-1.3 4.1-3.5 4.3l-7.2.8c-2.3.2-4.2-1.3-4.4-3.5zm9-17.2c-.1-.6-.5-.9-1.1-.9l-4.4.5c-.6.1-1 .5-.9 1.1l1.6 15.1c.1.6.5.9 1.1.9l4.4-.5c.6-.1 1-.5.9-1.1l-1.6-15.1zM438.7 413.2l2.6 24.9-4.3.4-2.2-20.6-6.1 2.7-.5-4.3 6.1-2.7 4.4-.4zM444 427.9l8.5-16.2 4.3-.4 1.6 15.1 4-.4.1 3.8-3.7.4.6 6.1-4.3.5-.6-6.1-10.1 1.1-.4-3.9zm10.1-1.1l-.9-8.6-4.6 9.1 5.5-.5zM466.2 435.4l-.5-5.1 4.9-.5.5 5.1-4.9.5zM474.2 409.4l15.1-1.6.4 4.1-10.6 1.1.6 6.2 9.7-1 .4 4.1-9.7 1 .7 6.4 10.6-1.1.4 4.1-15.1 1.6-2.5-24.9zM506.4 406.1l4.5-.5 2.2 20.8c.2 2.3-1.4 4.3-3.7 4.5l-8.4.9c-2.3.2-4.3-1.4-4.5-3.7l-2.2-20.8 4.5-.5 2.1 19.8c.1.6.6.9 1.1.9l5.6-.6c.6-.1 1-.5.9-1.1l-2.1-19.7z"/></g><path fill="#fff" d="M730.2 342l-6.4.7-3.4-7.4-12 1.3-1.6 8-6.4.7 8.2-36.7 5.9-.6 15.7 34zm-20.4-11.4l8.2-.9-5.5-13.1-2.7 14zM742.1 321.7l12.5-1.3 1.4 13c.3 3.2-2 6.1-5.2 6.5l-12 1.3c-3.2.3-6.1-2-6.4-5.2l-2.5-23.7c-.3-3.2 1.9-6.1 5.2-6.5l12-1.3c3.2-.3 6.1 2 6.5 5.2l.4 3.9-6.3 1.7-.4-3.6c-.1-.8-.8-1.3-1.6-1.2l-8 .8c-.8.1-1.4.7-1.3 1.5l2.2 20.9c.1.8.8 1.3 1.6 1.2l8-.8c.8-.1 1.4-.7 1.3-1.5l-.6-6-6.2.6-.6-5.5zM768.3 337.9l-6.4.7-3.7-35.4 6.4-.7 3.7 35.4zM786.1 322.3l-6.7.7 1.4 13.7-6.4.7-3.7-35.4 18.6-2c3.2-.3 6.1 2 6.5 5.2l1.1 10c.3 2.8-1.3 5.3-3.8 6.2l8.3 13.1-7 .7-8.3-12.9zm3.4-15.1c-.1-.8-.8-1.3-1.6-1.2l-10.2 1.1 1.1 10 10.2-1.1c.8-.1 1.4-.7 1.3-1.5l-.8-7.3zM805 334.1l-.8-7.3 6.9-.7.8 7.3-6.9.7zM662.3 379.2l-6.7.7 1.4 13.7-6.4.7-3.7-35.4 18.6-2c3.2-.3 6.1 2 6.5 5.2l1.1 10c.3 2.8-1.3 5.2-3.8 6.2l8.3 13.1-7 .7-8.3-12.9zm3.5-15c-.1-.8-.8-1.3-1.6-1.2l-10.2 1 1.1 10 10.2-1.1c.8-.1 1.4-.7 1.3-1.5l-.8-7.2zM677.7 355.6l21.5-2.3.6 5.8-15.1 1.6.9 8.8 13.8-1.5.6 5.8-13.8 1.5 1 9.1 15.1-1.6.6 5.8-21.5 2.3-3.7-35.3zm9.2-3.9l-3.1-3 6.1-6.6 3.2 3-6.2 6.6zM734.8 385.4l-6.4.7-3.4-7.4-12 1.3-1.6 8-6.4.7 8.2-36.7 5.9-.6 15.7 34zm-20.4-11.4l8.2-.9-5.5-13.1-2.7 14zM746.7 365.1l12.5-1.3 1.4 13c.3 3.2-2 6.1-5.2 6.5l-12 1.3c-3.2.3-6.1-2-6.4-5.2l-2.5-23.7c-.3-3.2 1.9-6.1 5.2-6.5l12-1.3c3.2-.3 6.1 2 6.5 5.2l.4 3.9-6.3 1.7-.4-3.6c-.1-.8-.8-1.3-1.6-1.2l-8 .8c-.8.1-1.4.7-1.3 1.5l2.2 20.9c.1.8.8 1.3 1.6 1.2l8-.8c.8-.1 1.4-.7 1.3-1.5l-.6-6-6.2.6-.6-5.5zM772.9 381.4l-6.4.7-3.7-35.4 6.4-.7 3.7 35.4zM790.7 365.7l-6.7.7 1.4 13.7-6.4.7-3.7-35.4 18.5-2c3.2-.3 6.1 2 6.5 5.2l1.1 10c.3 2.8-1.3 5.2-3.8 6.2l8.3 13.1-7 .7-8.2-12.9zm3.4-15c-.1-.8-.8-1.3-1.6-1.2l-10.2 1.1 1.1 10 10.2-1.1c.8-.1 1.4-.7 1.3-1.5l-.8-7.3zM809.5 377.5l-.8-7.3 6.9-.7.8 7.3-6.9.7zM590.7 444.5l-6.4.7-3.4-7.4-12 1.3-1.6 8-6.4.7 8.2-36.7 5.9-.6 15.7 34zm-20.4-11.4l8.2-.9-5.5-13.1-2.7 14zM609.4 430.1l6.5.4.6 5.4c.3 3.2-2 6.1-5.2 6.5l-12 1.3c-3.2.3-6.1-2-6.4-5.2l-2.5-23.7c-.3-3.2 1.9-6.1 5.2-6.5l12-1.3c3.2-.3 6.1 2 6.5 5.2l.5 5-6.3 1.7-.5-4.7c-.1-.8-.8-1.3-1.6-1.2l-8 .8c-.8.1-1.4.7-1.3 1.5l2.2 21c.1.8.8 1.3 1.6 1.2l8-.8c.8-.1 1.4-.7 1.3-1.5l-.6-5.1zM638.4 427.1l6.5.4.6 5.4c.3 3.2-2 6.1-5.2 6.5l-12 1.3c-3.2.3-6.1-2-6.4-5.2l-2.5-23.7c-.3-3.2 1.9-6.1 5.2-6.5l12-1.3c3.2-.3 6.1 2 6.5 5.2l.5 5.1-6.3 1.7-.5-4.7c-.1-.8-.8-1.3-1.6-1.2l-8 .8c-.8.1-1.4.7-1.3 1.5l2.2 20.9c.1.8.8 1.3 1.6 1.2l8-.8c.8-.1 1.4-.7 1.3-1.5l-.6-5.1zM650.7 432.3l-2.5-23.7c-.3-3.2 1.9-6.1 5.2-6.5l12.5-1.3c3.2-.3 6.1 2 6.5 5.2l2.5 23.7c.3 3.2-2 6.1-5.2 6.5l-12.5 1.3c-3.3.3-6.1-2-6.5-5.2zm15.4-24.2c-.1-.8-.8-1.3-1.6-1.2l-8.5.9c-.8.1-1.4.7-1.3 1.5l2.2 20.9c.1.8.8 1.3 1.6 1.2l8.5-.9c.8-.1 1.4-.7 1.3-1.5l-2.2-20.9zM685.3 413.1l2.2 21.2-6.2.6-3.7-35.4 6.2-.7 11.7 20.7 7.2-22.7 6.2-.6 3.7 35.4-6.2.7-2.2-21.2-5.2 15.8-5.4.6-8.3-14.4zM715 395.6l18-1.9c3.2-.3 6.1 2 6.5 5.2l1.1 10c.3 3.2-2 6.1-5.2 6.5l-11.6 1.2 1.4 13.7-6.4.7-3.8-35.4zm18.2 5.4c-.1-.8-.8-1.3-1.6-1.2l-9.7 1 1.1 10 9.7-1c.8-.1 1.4-.7 1.3-1.5l-.8-7.3zM742.6 392.7l6.4-.7 3.1 29.6 14.5-1.5.6 5.9-20.8 2.2-3.8-35.5zM777.5 424.8l-6.4.7-3.7-35.4 6.4-.7 3.7 35.4zM795.2 409.1l-6.7.7 1.4 13.7-6.4.7-3.7-35.4 18.6-2c3.2-.3 6.1 2 6.5 5.2l1.1 10c.3 2.8-1.3 5.2-3.8 6.2l8.3 13.1-7 .7-8.3-12.9zm3.5-15c-.1-.8-.8-1.3-1.6-1.2l-10.2 1.1 1.1 10 10.2-1.1c.8-.1 1.4-.7 1.3-1.5l-.8-7.3zM814.1 421l-.8-7.3 6.9-.7.8 7.3-6.9.7z"/><path fill="#9C9896" d="M649.6 275.4c-.3-.1-.5.1-.6.2-.6-.6-1.3-.2-1.7 0-.4.2-.6.3-.8.2l-.2.3c0-.2-.1-.4-.3-.7l-.1-.1-1.3-.2-.1.2c-.2.7-.7.6-1.5.6-.6-.1-1.2-.1-1.6.3-.1 0-.8.2-.8.2-.9.2-1.5.3-1.9-.1 0-.1-.1-.2-.2-.2 0 0-.2.1-.3.2l-1.4.3c-1.1.3-2.1.2-2.9-.2l-.4-.2v.5s0 .1-.1.1h-.1c-1.3.3-2.5.6-3.1-.5l-.5.2v.2c.1.1.2.3.2.3.1.1.2.2.2.3h-.2c-.3 0-.4 0-.5-.1l-.1-.1h-.8999999999999999c-.6 0-1.2 0-1.8.5-5.8.7-10.8 1.2-15.7 1.6l-2.1.2.2 1.5c.8-.2 1.6-.3 2.5 0l.4.2v-.3c1.7-.4 3.4-.5 5-.6l2.7-.2.1-.1c.1-.1.1-.1.4 0 .2.1.4.3.7.2.1 0 .2-.2.3-.3.8.2 1.6.1 2.3 0 .7-.1 1.3-.2 1.9 0l.4.1v-.4c.5-.1 6.1-.7 6.1-.7l.1-.1c.6-.5 1-.7 1.3-.3l.3.3.2-.3.2-.4c0-.1.1-.2.1-.2h.1c.1 0 .1.1.2.2l.1.2c0 .1.1.5.1.5s.1-.2.2-.3h.2v-.2l.4.3.1-.1c1.1-.6 3.1-1.1 4.5-.2l.4.2s.1-.7.1-.9c1.3.1 2.5.1 3.7-.2h.2v-.2c0-.2.1-.3.1-.3.2-.1.5-.1.8 0 .4.1.7.1.9-.1l.1-.2.2.1c.3.1.7.2 1.3.2h.1l.1-.1c.1-.2.2-.2.2-.2s.2.1.3.2c.2.2.4.4.7.3h.2l.1-.2v-.30000000000000004c.2-.1.7-.5.7-.5l-.5-.6zm-94.6-2.7c1.2.5 1.9 1 2.3 1.6l.6.9-.2-1.9v-.1c-.5-.7-1.4-1-2.1-1.3h-.1c-.8-.9-2.4-1.5-3.5-1.8h-.2c-.3 0-.7.1-1 .3-.5-.4-1.1-.4-1.8-.3-.5.1-.9.1-1.4 0h-.2l-.8.4c-.3.2-.5.4-.8.3h-.2c-.4.1-.6.3-.6.5-.1.5.3 1 .6 1.4l.1.1.2-.1c1.5-.7 2.4-.7 3.9-.7 1.2-.2 2.2.1 3.3.4.8.1 1.3.2 1.9.3m95.4 3.3l-.1.5.4.1.3-.5-.2-.2-.4.1zm2.1-.2c-.1 0-.1-.1-.2-.2 0 0-.1 0-.1-.1l.4-.5-1.7.1v.3l.1.9h.3c.1 0 .3 0 .4.1.3.1.8.3 1.1-.2l.2-.4h-.5zm-89.4 8.5c-1.2.2-2.4.4-3.6.1h-.2l-.1.1-.4.3c-.2.1-.4.2-.6.4-.7-.6-1.4-.2-1.9.1-.6.3-1 .5-1.4.1l-.2.1-.2.2c.1.6.5.6.8.6.2 0 .3 0 .4.2l.1.2.2-.1.9-.3c.5-.2 1-.4 1.3-.2l.1.1h.1c1-.4 2.1-.4 3.3-.4 1.2 0 2.4 0 3.5-.4l-.2-1.5c-.6.2-1.3.3-1.9.4m40.4-27.2c-.6-.7-1.3-1.1-2-1.5-.6-.4-1.2-.7-1.7-1.2 0-.1 0-.1.2-.2s.5-.3.6-.6l.1-.4h-.4c-1.6 0-3.2 0-4.5-.8h-.2c-.6-.1-.7-.4-.9-.9-.1-.3-.2-.6-.5-.8-.2-.1-.6-.1-.9.1-.4-.5-1-.7-1.5-.9-.6-.2-1-.3-1.1-.8l-.1-.5-.3.3c-.3.3-.3.2-.6 0-.1-.1-.2-.2-.4-.3v-.5l-.7-.1c-.5-.1-1-.1-1.6 0-.3 0-.6-.2-.9-.4-.4-.3-.9-.6-1.5-.2l-.1-.1c.3-.7.9-1.1 1.5-1.5.6-.4 1.2-.8 1.5-1.4l-.4-.3c-.4.4-.9.8-1.4 1.1-.5.3-1 .6-1.5 1.1h-.4c-.2-.1-.5-.1-.7 0-.1.1-.2.1-.2.2-.1 0-.2-.1-.3-.2 0 0-.2-.1-.3-.2-.3-.5-.9-.5-1.4-.5-.7 0-1.3 0-1.6-.9v-.1c-.2-.2-.4-.3-.7-.2-.2.1-.4.3-.5.6h-.1c0-.1.1-.4.2-.5l.4-.4-.5-.1-.5-.1c-.6-.1-1.2-.1-1.8.2h-.1c-.3-.1-.4-.1-.4-.3v-.2l.1-.2-.2-.1c-.4-.2-.9-.1-1.3-.1-.6.1-.7 0-.7-.2v-.3l-.3.1c-.6.1-1.1 0-1.7-.2-.7-.2-1.4-.4-2.1 0-.3.1-.4 0-.6-.3-.1-.2-.2-.4-.5-.6l-.2-.1s-.6.5-.8.6l-1-.5-.8-.3h-.1c-.4.2-.9.1-1.4-.1-.5-.1-1-.2-1.5-.1v-.1s-1.5.1-1.6.2c-.9-.4-1.7-.4-2.6-.3-.9.1-1.7.2-2.5-.4l-.3-.2-.1.3c-.1.2-.2.2-.5.2l-.4.1c-.3.1-.7 0-.9-.2-.3-.3-.5-.7-.4-1.1l.2-.9-.6.6c-.2.2-.3.5-.3.8-.1.3-.1.5-.3.6-.1 0-2.5.4-2.5.4-2.7.4-5.5.7-8.2 1.7h-.1l-.1.1c-.4.6-.5 1.1-.5 1.4 0 .3.2.5.3.7l.1.1 5.8-.5c.6 0 1.2-.1 1.7-.1.8-.1 1.6-.2 2.4.1-.5 2.4-1.2 4.5-2 6.1v.4c.1 1-.3 2.1-.7 3.1-.3.8-.6 1.5-.7 2.3-.1.5-.2 1-.2 1.5-.1.9-.2 1.8-.6 2.5l-.1.1.1.1.1.3c.1.5-.2 1.2-.3 1.6l-.1.3-.1.7c-.1.5-.2 1.1-.2 1.6 0 .4.2.8.5 1l.2.2.2-.2c.4-.5.6-1.1.7-1.7.1-.5.2-1 .5-1.4l.1-.1-.1-.1c-.1-.1-.1-.3-.1-.4 0-.4.1-.7.3-1.1.2-.4.4-.7.3-1.1v-.2c0-.5.2-.9.3-1.4.2-.5.3-1 .3-1.4.3-.5.3-1 .4-1.5.1-.5.1-.9.3-1.2v-.1c.1-1.2.5-2.4.8-3.5.3-1.1.7-2.3.8-3.5.1-.2.1-.5.1-.8 0-.6.1-.8.4-.9h.2v-.4c0-.1 0-.2-.1-.3.1-.1.2-.2.2-.3 4-.1 8.3.4 12.1.9h.2c1.8.2 3.6.5 5.4.8 1.8.3 3.5.6 5.1.8v.2s1.3.1 1.4.1c.6.4 1.2.5 1.8.6.5.1 1 .2 1.5.5-.3.2-.5.6-.5 1-1.1.5-2.5 1.4-3.3 2.5-.1.1-.2.1-.4.1-.3 0-.9 0-.9.7v.1c-.4 0-.5.3-.6.5 0 .1-.1.2-.1.2-.2-.1-.4-.1-.5-.1h-.2l-.1.1c-.6 1-1.6 1.7-2.7 2.4s-2.2 1.4-2.8 2.5c-1.7.7-2.9 1.8-4.1 2.8-.9.8-1.8 1.6-3 2.3l.2.5c1.2-.3 2.7-1.3 3.3-2.3v-.1h.1l.6.1v-.1c.9-1 1.6-1.6 2.7-2.2 1.2-1.1 2.4-2 3.6-2.9 1.4-1 2.7-2 3.9-3.2l.3-.3h-.2c.5-.2 1-.5 1.4-.9.3-.2.8-.6 1-.6 0 0 0-.1.1-.2.7-.3 1.1-.8 1.6-1.2l.1-.1.2-.1v-.1c.3-.3.5-.5.8-.7 0 0 .2-.1.3-.1.2 0 .6.1.6.1.8 0 1.7.1 2.2.8l.3.3.2-.4c.2 0 .4 0 .5.2l.1.1h.2c.5-.1.9 0 1.3.2s.9.4 1.4.3c1.2.8 2.7 1.2 3.9 1.5.1 0 .2.1.2.1.1.1.3.2.3.3v.3l.3-.1c.7-.2 1.5.4 2.3 1 .3.1.6.1.8.1.5 0 .8.1 1 .3 0 .1-.1.1-.1.1s-.2-.1-.3-.1c-.2-.1-.4-.2-.7-.1-.2.1-.3.4-.4.6-.2.1-5.2 2.3-5.2 2.3-7.7 3.5-14.9 6.8-22 11.8l7.8-.8c.4-.3.9-.4 1.5-.4h.1l.1-.1c.5-.5 1.1-.8 1.7-1.1.7-.4 1.4-.7 1.9-1.3.2.1.8.6.8.6l.1-.5c.1-.6.4-.7 1.1-.9.5-.1 1-.2 1.3-.7.2-.2.3-.1.6 0 .2.1.4.1.7.1h.1l.2-.3c.2-.2.4-.4.5-.7.7-.2 1.4-.7 2.1-1.1.9-.6 1.7-1.2 2.4-1l.2-.5s-.1-.1-.3-.2h.2l.5-.1c.3-.2.6-.4.9-.5.5-.2 1-.4 1.5-1.1.7-.1 1.2-.5 1.6-.8.2-.2.4-.3.6-.4l1.9-.4.3-.1v-.4c0-.3.1-.3.6-.4.2 0 .4-.1.5-.2.1.1.2.1.2.1.1.1.2.1.2.2v.3h.3c.9.2 1.8.8 2.7 1.3l1.5.9.1-.1c.1-.1.2-.1.2-.1l.1.1c.1.2.3.6.8.5h.3l-.1-.3c-.2-.6-.6-1.4-1.8-1.6m46.4 18.3c.1.1.3.4.7.2l.2-.1-.1-.8-.9.1-.1.5c.2 0 .2 0 .2.1m-38.8-25.7l-.8.1v.8l.8-.1v-.8zm-5-1.7c.8.7 1.7 1.1 2.6 1.5l1.2.5.3-.5-1.6-1.1c-1.2-.8-2.5-1.6-3.7-2.3l-.4-.3s0 .1-.1.1l-.1-.1c-.1-.1-.4-.3-.7-.3-.4-.7-1.1-.7-1.7-.8-.4 0-.7 0-.9-.2l-.1-.2v-.3l-.5-.1-.3.7-.1.1v-.2c.1-.4-.2-.7-.4-.8l-.2-.2v-.3h-.3c-.4 0-.7-.1-1-.3-.4-.2-.8-.5-1.5-.3h-.2v-.7h-.3c-.9.1-1.9-.7-2.6-1.3l-.6-.5h-.1s-.4 0-.6.1l-.1-.1c0-.1.1-.3.1-.3l-1 .1v.3h-.1c-.7-1-1.6-.9-2.4-.8-.5.1-1 .1-1.5 0-.1-.1-.2-.2-.3-.4l-.2-.4h-.1c-.8-.4-1.7-.6-2.5-.8l-1.1-.3-.2-.1-1.2-.5c-.6-.2-1.1-.4-1.5-.7l-.2-.2s-.3.2-.4.3c-.3.1-.5.1-.6 0-.1-.1-.2-.2-.3-.4l-.1-.6-.4.5c-.2.2-.2.2-.3.2h.1l-.4-.2s-.1-.1-.2-.1l.1-.3-.3-.1-.3-.1c-.3-.1-.8-.2-1.2.1-.2-.2-.5-.6-.5-.6h-.2c-.1 0-.4 0-.6.3-.2 0-.4 0-.6.1-.8.1-1.1.1-1.3-.3l-.2-.5-.3.4-.1.1-.1-.1c-.1-.2-.3-.4-.5-.5-.2-.1-.3-.3-.6-.2-.2.1-.3.3-.4.4-.1.3-.1.3-.2.2 0-.1.2-.6.2-.6l-.6.3c-.2.1-.5 0-.6-.1 0 0 .1.1 0 .2l-.3-.4c-.8.4-1.7.1-2.6-.1-.6-.2-1.2-.3-1.8-.3v-.2h-.3c-1.1.2-2 .1-2.8-.2h-.2c-.8.3-1.8.2-2.7.1-.9-.1-1.9-.2-2.7.1-.6-.6-1.3-.3-1.7 0-.4.2-.6.3-.8.1v-.3l-2.8.1c-1.4.1-2.9.2-4.3.2h-.1l-.6.2c-.5.2-.8.3-1.1.1l-.2-.3s-.4.5-.5.6c-.6 0-1.5.2-2.5.4-1.3.3-2.8.6-3.3.4-1.2-.1-2.3.3-3.4.7-.8.3-1.6.5-2.4.7-.3-.3-1.1-.1-4.2 1 0 0-.7.3-1.1.4-.1-.3-.2-.6-.4-.8-.2-.2-.2-.3-.2-.4 0-.1 0-.2.1-.3l.3-.4-.5-.1-.1-.2v-.1l-.1-.1-.2-.2c-.3-.2-.7-.5-1.1-.2l-.2.1 1.1 2.5c.6 1.2 1.1 2.4 1.4 3.7 1.1 1.9 1.8 3.8 2.7 6l.2.5.6 1.5c.3 1 .7 2 1.5 2.9.5 1 .8 1.9 1.1 2.8.3 1 .7 2 1.3 3.2.6 1 1.1 2.1 1.6 3.2.5 1 1 2 1.5 2.9v.3c.1.6.6.9 1 1.2.2.1.4.2.5.3l.2.2c.1.1.2.3.2.5v.1h.5v-.2c0-.4-.2-.5-.4-.7-.1-.1-.1-.2-.2-.2 0 0 0-.1-.1-.1.1-.1.1-.2.1-.4v-.1c-.1-.3-.3-.3-.5-.4-.1 0-.3-.1-.4-.2.1 0 .3 0 .5-.1l.2-.5h-.1c-.2-.3-.4-.4-.6-.5 0 0-.1 0-.1-.1v-.7c-.1-.5-.2-1.1-.6-1.4l-.5-.3.3-.6s-.6-.4-.8-.5v-.4c-.1-.8-.5-1.5-.9-2.3-.3-.5-.5-1-.7-1.5l-1.2-2.8c-.9-2.2-1.8-4.2-3.2-6.4l-.2-.8c-.1-.5-.2-1-.7-1.4v-.4c-.1-.9-.6-1.7-1.1-2.5-.5-.7-1-1.4-1.1-2.2v-.3c1-.5 2.3-.9 4.1-1.3 1.6-.5 3-.6 4.1-.7 1-.1 1.8-.1 2.2-.5.1 0 .2.1.2.1.4.4 1.8.1 5.4-.9 1-.3 2-.6 2.6-.7.3-.1.6-.1 1 0 .6.1 1.2.2 1.8-.4.2 0 2.9.1 2.9.1 2 .1 4 .1 6.1 0 1 .4 2.2.4 3.3.4h1.3v.2h.5c.2 0 .5 0 .7-.2 1.1.3 2.4.4 3.6.4.8 0 1.6.1 2.3.2 1 .7 2.1.7 3.1.7s1.9-.1 2.7.5l.1.1.1-.1c.5-.3.8-.1 1.1.2.4.3.8.6 1.5.5.6.6 1.2.2 1.7 0 .2-.1.4-.2.6-.2 0 0 .2.1.3.6v.2h.2c.1 0 .3.1.5.2.4.1.8.3 1 0l.1-.2-.2-.2c0-.1.1-.2.2-.3 0 .3 0 .5.2.7.2.3.7.3 1.1.3.7 0 1.1 0 1.2.6l.1.7.4-.7h.1c.1 0 .1.1.1.1l.1.1v.2l.2.1 1.5.4c1.1.3 2.1.7 3.2.6.2.4.5.5.8.6.2.1.4.1.5.3l.1.2h.2c.5-.1.8.2 1.4.7l.1.1.2-.1c.2-.1.5.1.8.3.3.2.7.4.9.2.1 0 .1-.1.1-.2l.2.1c.8.4 1.8.9 3 1.7l.3.2v-.1l1.2.6c.6.3 1.2.6 1.8 1h.2c.9.1 1.4.4 1.5.8v.1h.1l.6.2c1 .3 1.3.4 1.5.7m-17.7-4.5l-.8.1v.8l.8-.1v-.8z"/><path fill="#fff" d="M610.595 294.068l-44.047 4.736-3.154-29.332 44.047-4.736z"/><path fill="#164194" d="M564.028 269.891l42.755-4.597 3.025 28.139-42.755 4.597z"/><path fill="#FFED00" d="M583.5 290l-.4-1-.2 1.1-1.1.1 1 .6-.2 1.1.8-.7 1 .6-.5-1 .8-.8h-1.2zm-4.2-3.3l-.4-1-.2 1.1-1.1.1 1 .6-.2 1.1.8-.7 1 .6-.5-1 .8-.8h-1.2zm-1.9-3.5l1 .6-.5-1 .8-.8-1.1.1-.4-1-.2 1.1-1.1.1 1 .6-.2 1.1.7-.8zm.8-7.1l-.2 1.1-1.1.1 1 .6-.2 1.1.8-.7 1 .6-.5-1 .8-.8-1.1.1-.5-1.1zm2.2-.7l.8-.7 1 .6-.5-1 .8-.8-1.1.1-.4-1-.2 1.1-1.1.1 1 .6-.3 1zm7.9 15.5l-.4-1-.2 1.1-1.1.1 1 .6-.2 1.1.8-.7 1 .6-.5-1 .8-.8h-1.2zm4.4-1.9l-.4-1-.2 1.1-1.1.1 1 .6-.2 1.1.8-.8 1 .6-.5-1 .8-.8-1.2.1zm3.5-4.1l-.4-1-.2 1.1-1.1.1 1 .6-.2 1.1.8-.7.9.5-.5-1 .8-.8-1.1.1zm1.7-5l-1.1.1-.4-1-.2 1.1-1.1.1 1 .6-.2 1.1.8-.7 1 .5-.5-1 .7-.8zm-4.1-2.7l.8-.7 1 .6-.5-1 .8-.8-1.1.1-.4-1-.2 1.1-1.1.1 1 .6-.3 1zm-2.9-5.7l-.2 1.1-1.1.1 1 .6-.2 1.1.8-.7 1 .5-.5-1 .8-.8-1.1.1-.5-1zm-5.1-.8l-.2 1.1-1.1.1 1 .6-.2 1.1.8-.7 1 .6-.5-1 .8-.8-1.1.1-.5-1.1z"/><path fill="#fff" d="M567.7 302.8c.4-.1.9-.2 1.4-.3.8-.1 1.4 0 1.9.3.4.3.7.9.7 1.4.1.7-.1 1.3-.4 1.7-.4.5-1 .8-1.6.8h-.3l.3 2.5-1.3.1-.7-6.5zm1.6 2.9h.2c.7-.1.9-.6.8-1.2-.1-.6-.4-1-1-1-.1 0-.2 0-.3.1l.3 2.1zM573.5 307.4l-.1 1.6-1.3.1.7-7 1.6-.2 2.1 6.7-1.3.1-.5-1.5-1.2.2zm1-1.2l-.4-1.4-.4-1.5c0 .5-.1 1.2-.1 1.6l-.1 1.4 1-.1zM576.5 301.8c.4-.1.9-.2 1.4-.3.7-.1 1.4 0 1.9.3s.6.8.7 1.4c.1.7-.2 1.4-.9 1.8.5.1.8.5 1 1.3.2.7.5 1.6.6 1.8l-1.4.2c-.1-.2-.3-.9-.5-1.6-.2-.8-.4-1-.9-1h-.2l.3 2.7-1.3.1-.7-6.7zm1.6 2.9h.2c.6-.1.9-.6.8-1.2-.1-.6-.3-1-.9-.9-.1 0-.3 0-.3.1l.2 2zM581.2 301.2l1.3-.1.6 5.7 1.7-.2.1 1.1-2.9.3-.8-6.8zM588.4 304.3l-1.5.2.2 1.8 1.7-.2.1 1.2-3.1.3-.7-6.8 3-.3.1 1.2-1.6.2.2 1.6 1.5-.2.1 1zM593.7 304.4c-.1-.6-.2-1.5-.3-2.2 0 .7-.1 1.6-.2 2.1l-.3 2.5-.9.1-.8-2.3c-.2-.5-.5-1.4-.7-2.1.1.7.1 1.6.1 2.3l.1 2.4-1.1.1-.2-6.9 1.4-.2.8 2.4c.3.8.5 1.6.7 2.3 0-.8.1-1.6.2-2.4l.3-2.5 1.4-.2 1.1 6.8-1.2.1-.4-2.3zM598.8 303.2l-1.5.2.2 1.8 1.7-.2.1 1.2-3.1.3-.7-6.8 3-.3.1 1.2-1.6.2.2 1.6 1.5-.2.1 1zM600.2 306.1l-.7-6.8 1.2-.1 1.3 2.6c.3.5.7 1.3.9 1.9-.1-.7-.3-1.9-.5-3.1l-.2-1.5 1.2-.1.7 6.8-1.2.1-1.3-2.5c-.3-.6-.7-1.4-.9-2 .1.7.3 1.7.4 3.1l.2 1.5-1.1.1zM605.5 299.8l-1.2.1-.1-1.2 3.7-.4.1 1.2-1.2.1.6 5.6-1.3.1-.6-5.5zM613.5 301.6l-1.5.2.2 1.8 1.7-.2.1 1.1-3.1.3-.7-6.8 3-.3.1 1.2-1.6.2.2 1.6 1.5-.2.1 1.1zM615.5 297.5l.5 4.4c.1 1 .4 1.3.8 1.2.4 0 .6-.3.5-1.4l-.5-4.4 1.3-.1.5 4.2c.2 1.8-.4 2.8-1.7 2.9-1.4.2-2.1-.8-2.3-2.5l-.5-4.2 1.4-.1zM619.3 297.2c.4-.1.9-.2 1.4-.3.7-.1 1.4 0 1.9.3s.6.8.7 1.4c.1.7-.2 1.4-.9 1.8.5.1.8.5 1 1.3.2.7.5 1.6.6 1.8l-1.4.2c-.1-.2-.3-.9-.5-1.6-.2-.8-.5-1.1-.9-1h-.2l.3 2.7-1.3.1-.7-6.7zm1.6 2.9h.2c.6-.1.8-.6.8-1.2-.1-.6-.3-1-.9-.9-.1 0-.3 0-.3.1l.2 2zM628.4 299.5c.3 2.6-.5 3.7-1.8 3.8-1.5.2-2.3-1.4-2.5-3.3-.2-1.9.4-3.5 1.9-3.7 1.6-.2 2.2 1.6 2.4 3.2zm-3 .4c.2 1.5.5 2.3 1.1 2.2.6-.1.7-1.1.5-2.5-.1-1.2-.4-2.3-1-2.2-.5.1-.7 1-.6 2.5zM628.9 296.2c.4-.1.9-.2 1.4-.3.8-.1 1.4 0 1.9.3.4.3.7.9.7 1.4.1.7-.1 1.3-.4 1.7-.4.5-1 .8-1.6.8h-.3l.3 2.5-1.3.1-.7-6.5zm1.6 2.9h.2c.7-.1.9-.6.8-1.2-.1-.6-.4-1-1-1-.1 0-.2 0-.3.1l.3 2.1zM636.8 299.1l-1.5.2.2 1.8 1.7-.2.1 1.1-3.1.3-.7-6.8 3-.3.1 1.2-1.6.2.2 1.6 1.5-.2.1 1.1zm-.4-5.3l-1.1 1.3-.9.1.7-1.2 1.3-.2zM640.8 298.7l-1.5.2.2 1.8 1.7-.2.1 1.2-3.1.3-.7-6.8 3-.3.1 1.2-1.6.2.2 1.6 1.5-.2.1 1zM642.2 301.5l-.7-6.8 1.2-.1 1.3 2.6c.3.5.7 1.4.9 1.9-.1-.7-.3-1.9-.5-3.1l-.2-1.5 1.2-.1.7 6.8-1.2.1-1.3-2.5c-.3-.5-.7-1.4-.9-2 .1.7.3 1.7.4 3.1l.2 1.5-1.1.1zM202.8 463.1l-.5-5.1 4.9-.5.5 5.1-4.9.5z"/></svg>