<?xml version="1.0" encoding="utf-8"?>
<!-- Generator: Adobe Illustrator 17.1.0, SVG Export Plug-In . SVG Version: 6.00 Build 0)  -->
<!DOCTYPE svg PUBLIC "-//W3C//DTD SVG 1.1//EN" "http://www.w3.org/Graphics/SVG/1.1/DTD/svg11.dtd">
<svg version="1.1" id="CMYK" xmlns="http://www.w3.org/2000/svg" xmlns:xlink="http://www.w3.org/1999/xlink" x="0px" y="0px"
	 viewBox="0 0 375.075 177.333" enable-background="new 0 0 375.075 177.333" xml:space="preserve">
<polygon fill="#12100B" points="372.327,148.806 372.065,146.319 240.884,160.107 230.127,57.75 358.821,44.223 369.84,149.067 
	372.327,148.806 372.065,146.319 372.327,148.806 374.813,148.544 363.27,38.728 224.631,53.299 236.435,165.604 375.075,151.03 
	374.813,148.544 "/>
<g>
	<path fill="#12100B" d="M176.704,164.895l-2.176,0.229l-0.111,2.282l2.159-0.226l-0.068,1.361l-2.176,0.229l-0.222,3.42
		l-1.444,0.152l0.221-3.422l-2.733,0.289l-0.222,3.419l-1.445,0.153l0.221-3.422l-2.176,0.23l0.068-1.361l2.176-0.23l0.13-2.285
		l-2.177,0.23l0.071-1.346l2.193-0.23l0.207-3.384l1.446-0.151l-0.208,3.383l2.734-0.287l0.207-3.382l1.445-0.153l-0.208,3.385
		l2.177-0.23L176.704,164.895z M170.35,165.564l-0.129,2.283l2.75-0.289l0.113-2.283L170.35,165.564z"/>
	<path fill="#12100B" d="M178.447,160.014l7.033-0.739l0.202,1.914l-4.944,0.52l0.302,2.872l4.509-0.476l0.202,1.917l-4.509,0.473
		l0.313,2.977l4.944-0.52l0.201,1.917l-7.033,0.738L178.447,160.014z"/>
	<path fill="#12100B" d="M187.746,159.036l5.901-0.621c1.063-0.11,2.004,0.652,2.115,1.715l0.347,3.291
		c0.11,1.062-0.65,2.002-1.715,2.114l-3.812,0.401l0.47,4.475l-2.088,0.219L187.746,159.036z M193.722,160.801
		c-0.027-0.26-0.257-0.431-0.518-0.403l-3.169,0.333l0.346,3.292l3.169-0.334c0.262-0.028,0.449-0.24,0.421-0.503L193.722,160.801z"
		/>
	<path fill="#12100B" d="M197.949,165.673c-0.105-1.011,0.475-1.354,1.338-1.849c1.047-0.604,1.564-0.851,2.61-1.452
		c0.232-0.131,0.375-0.287,0.349-0.548l-0.209-1.985c-0.027-0.261-0.258-0.431-0.518-0.402l-1.724,0.181
		c-0.263,0.027-0.45,0.242-0.423,0.503l0.107,1.026l-2.038-0.138l-0.12-1.131c-0.105-1.01,0.609-1.913,1.619-2.02l3.013-0.316
		c1.026-0.108,1.931,0.626,2.036,1.636l0.302,2.872c0.083,0.782-0.247,1.169-1.007,1.637c-0.76,0.468-1.706,1.006-2.932,1.751
		c-0.23,0.146-0.378,0.251-0.35,0.513l0.174,1.653l4.752-0.499l0.191,1.827l-6.754,0.71L197.949,165.673z"/>
	<path fill="#12100B" d="M207.283,166.856l-0.836-7.938c-0.105-1.01,0.608-1.913,1.617-2.018l3.362-0.353
		c1.025-0.108,1.931,0.624,2.038,1.633l0.832,7.938c0.107,1.01-0.626,1.914-1.653,2.023l-3.36,0.352
		C208.274,168.6,207.387,167.866,207.283,166.856z M211.508,158.844c-0.026-0.26-0.257-0.431-0.519-0.403l-2.07,0.217
		c-0.262,0.029-0.451,0.243-0.424,0.503l0.74,7.033c0.027,0.261,0.256,0.431,0.518,0.402l2.072-0.218
		c0.261-0.026,0.449-0.24,0.422-0.501L211.508,158.844z"/>
	<path fill="#12100B" d="M219.626,155.686l1.219,11.594l-2.004,0.211l-1.008-9.593l-2.857,1.268l-0.211-2.002l2.857-1.269
		L219.626,155.686z"/>
	<path fill="#12100B" d="M221.933,162.553l3.979-7.528l2.002-0.211l0.74,7.033l1.863-0.196l0.043,1.757l-1.723,0.181l0.295,2.82
		l-2.002,0.21l-0.295-2.819l-4.719,0.495L221.933,162.553z M226.652,162.058l-0.42-3.986l-2.123,4.252L226.652,162.058z"/>
</g>
<path fill="#12100B" d="M224.18,2.688L0,26.25l13.356,126.327l224.181-23.561L224.18,2.688z M5.637,30.815l213.98-22.488
	L231.9,124.451l-213.98,22.49L5.637,30.815z"/>
<path fill="#12100B" d="M14.306,53.334l13.948-1.465l0.398,3.798l-9.805,1.029l0.598,5.696l8.941-0.94l0.398,3.799l-8.941,0.938
	l0.62,5.904l9.805-1.029l0.399,3.797L16.72,76.326L14.306,53.334z M20.217,50.793l-2.017-1.918l3.951-4.254l2.055,1.949
	L20.217,50.793z"/>
<path fill="#12100B" d="M31.708,51.506l4.144-0.434l2.015,19.195l9.391-0.986l0.398,3.797L34.123,74.5L31.708,51.506z"/>
<path fill="#12100B" d="M48.007,49.795l13.948-1.464l0.398,3.798l-9.805,1.029l0.598,5.695l8.941-0.938l0.398,3.797l-8.941,0.939
	l0.62,5.903l9.805-1.029l0.399,3.798l-13.947,1.464L48.007,49.795z"/>
<path fill="#12100B" d="M77.999,61.83l4.215,0.256l0.366,3.486c0.222,2.105-1.293,3.976-3.398,4.196l-7.769,0.815
	c-2.105,0.221-3.939-1.297-4.161-3.402l-1.616-15.396c-0.222-2.107,1.259-3.973,3.364-4.193l7.769-0.816
	c2.105-0.221,3.974,1.293,4.195,3.4l0.344,3.279l-4.069,1.125l-0.323-3.072c-0.054-0.518-0.508-0.854-1.025-0.8l-5.179,0.544
	c-0.518,0.055-0.893,0.477-0.839,0.994l1.429,13.604c0.054,0.518,0.508,0.854,1.026,0.799l5.179-0.543
	c0.518-0.055,0.892-0.478,0.838-0.995L77.999,61.83z"/>
<path fill="#12100B" d="M82.124,46.214l16.641-1.747l0.398,3.798l-6.249,0.655l2.015,19.195l-4.144,0.436l-2.015-19.195
	l-6.248,0.656L82.124,46.214z"/>
<path fill="#12100B" d="M107.567,66.789l-4.144,0.435L101.01,44.23l4.144-0.435L107.567,66.789z"/>
<path fill="#12100B" d="M111.138,62.574l-1.616-15.396c-0.222-2.107,1.26-3.973,3.365-4.193L121,42.133
	c2.106-0.222,3.975,1.293,4.196,3.398l1.616,15.398c0.222,2.105-1.293,3.975-3.399,4.195l-8.113,0.852
	C113.195,66.197,111.359,64.68,111.138,62.574z M121.148,46.863c-0.054-0.518-0.509-0.854-1.026-0.799l-5.524,0.58
	c-0.518,0.055-0.892,0.477-0.839,0.994l1.429,13.604c0.054,0.518,0.508,0.854,1.026,0.799l5.523-0.579
	c0.518-0.054,0.893-0.477,0.839-0.995L121.148,46.863z"/>
<path fill="#12100B" d="M147.895,62.555l-4.006,0.421l-10.262-13.967l1.562,14.88l-4.004,0.42l-2.413-22.992l4.004-0.42
	l10.27,14.035l-1.569-14.949l4.006-0.42L147.895,62.555z"/>
<path fill="#12100B" d="M154.503,51.006c-2.101-0.408-3.864-1.234-4.086-3.34l-0.496-4.73c-0.222-2.105,1.26-3.972,3.365-4.193
	l7.319-0.768c2.105-0.221,3.974,1.293,4.195,3.398l0.282,2.693l-4.07,1.125l-0.262-2.486c-0.054-0.518-0.507-0.854-1.025-0.799
	l-4.73,0.496c-0.518,0.055-0.892,0.479-0.838,0.996l0.301,2.865c0.055,0.518,0.505,0.819,1.037,0.902
	c2.099,0.374,3.871,0.642,6.468,1.102c2.026,0.346,3.762,1.246,3.982,3.351l0.54,5.145c0.222,2.105-1.259,3.972-3.364,4.192
	l-7.458,0.783c-2.105,0.222-3.975-1.294-4.196-3.399l-0.275-2.623l4.071-1.126l0.254,2.417c0.054,0.518,0.508,0.854,1.026,0.8
	l4.867-0.511c0.518-0.055,0.893-0.479,0.839-0.996l-0.349-3.314c-0.054-0.518-0.467-0.788-1.034-0.869
	C158.167,51.668,157.138,51.498,154.503,51.006z"/>
<path fill="#12100B" d="M17.687,85.541l13.948-1.465l0.398,3.797l-9.805,1.029l0.599,5.697l8.941-0.939l0.398,3.798l-8.941,0.938
	l0.619,5.904l9.805-1.029l0.399,3.797l-13.948,1.465L17.687,85.541z"/>
<path fill="#12100B" d="M46.034,82.564l4.143-0.435l2.016,19.194c0.221,2.105-1.293,3.977-3.398,4.197l-7.769,0.814
	c-2.106,0.222-3.94-1.297-4.162-3.402l-2.015-19.195l4.143-0.434l1.921,18.297c0.055,0.518,0.508,0.854,1.026,0.799l5.179-0.543
	c0.518-0.055,0.893-0.479,0.838-0.996L46.034,82.564z"/>
<path fill="#12100B" d="M64.058,94.947l-4.351,0.457l0.932,8.873l-4.144,0.436L54.081,81.72l12.05-1.265
	c2.105-0.221,3.975,1.293,4.195,3.398l0.686,6.524c0.188,1.796-0.864,3.407-2.478,3.995l5.362,8.513l-4.559,0.479L64.058,94.947z
	 M66.279,85.186c-0.055-0.518-0.509-0.854-1.026-0.799l-6.629,0.695l0.686,6.524l6.629-0.696c0.518-0.054,0.892-0.477,0.837-0.994
	L66.279,85.186z"/>
<path fill="#12100B" d="M76.02,98.822l-1.616-15.397c-0.221-2.106,1.26-3.972,3.365-4.193l8.112-0.852
	c2.107-0.221,3.977,1.293,4.197,3.398l1.616,15.398c0.222,2.106-1.292,3.975-3.399,4.196l-8.112,0.852
	C78.078,102.447,76.242,100.928,76.02,98.822z M86.03,83.112c-0.055-0.518-0.509-0.854-1.026-0.8l-5.523,0.58
	c-0.519,0.055-0.893,0.477-0.838,0.996L80.07,97.49c0.055,0.518,0.508,0.854,1.026,0.8l5.523-0.579
	c0.518-0.055,0.893-0.479,0.838-0.996L86.03,83.112z"/>
<path fill="#12100B" d="M93.583,77.572l11.703-1.229c2.106-0.221,3.977,1.293,4.197,3.398l0.685,6.525
	c0.221,2.106-1.294,3.975-3.4,4.195l-7.56,0.794l0.932,8.874l-4.144,0.435L93.583,77.572z"/>
<path fill="#12100B" d="M111.608,75.681l13.947-1.464l0.398,3.797l-9.805,1.029l0.599,5.696l8.941-0.939l0.398,3.797l-8.941,0.939
	l0.619,5.903l9.805-1.029l0.399,3.798l-13.947,1.465L111.608,75.681z M117.519,73.141l-2.018-1.918l3.952-4.256l2.054,1.949
	L117.519,73.141z"/>
<path fill="#12100B" d="M128.942,73.861l13.947-1.465l0.398,3.797l-9.804,1.029l0.598,5.697l8.941-0.939l0.398,3.797l-8.94,0.939
	l0.619,5.904l9.804-1.029l0.399,3.797l-13.947,1.465L128.942,73.861z"/>
<path fill="#12100B" d="M165.399,93.279l-4.005,0.42l-10.263-13.967l1.562,14.881l-4.005,0.42l-2.414-22.992l4.005-0.42
	l10.27,14.035l-1.569-14.949l4.005-0.42L165.399,93.279z"/>
<path fill="#12100B" d="M186.185,91.098l-4.005,0.42l-10.263-13.967l1.562,14.881l-4.005,0.42l-2.414-22.992l4.005-0.421
	l10.269,14.035l-1.569-14.948l4.005-0.421L186.185,91.098z"/>
<path fill="#12100B" d="M187.848,67.676l13.948-1.464l0.398,3.798l-9.805,1.029l0.598,5.695l8.941-0.938l0.398,3.797l-8.94,0.938
	l0.619,5.903l9.805-1.029l0.399,3.799l-13.948,1.464L187.848,67.676z"/>
<path fill="#12100B" d="M210.058,77.734c-2.101-0.407-3.864-1.234-4.085-3.34l-0.497-4.729c-0.221-2.106,1.26-3.972,3.365-4.192
	l7.319-0.769c2.105-0.222,3.975,1.292,4.195,3.399l0.283,2.691l-4.07,1.127l-0.261-2.486c-0.055-0.519-0.509-0.854-1.026-0.801
	l-4.73,0.498c-0.518,0.054-0.892,0.477-0.838,0.994l0.301,2.866c0.054,0.519,0.504,0.819,1.037,0.903
	c2.098,0.373,3.871,0.641,6.468,1.101c2.025,0.347,3.761,1.246,3.982,3.352l0.54,5.145c0.222,2.105-1.258,3.972-3.363,4.192
	l-7.458,0.783c-2.106,0.221-3.976-1.293-4.197-3.399l-0.275-2.625l4.071-1.125l0.254,2.417c0.055,0.518,0.508,0.854,1.026,0.8
	l4.867-0.512c0.519-0.055,0.894-0.478,0.839-0.995l-0.348-3.314c-0.055-0.518-0.467-0.788-1.034-0.868
	C213.723,78.397,212.693,78.227,210.058,77.734z"/>
<path fill="#12100B" d="M22.172,132.918c-0.21-2.002,0.94-2.682,2.652-3.664c2.073-1.195,3.104-1.688,5.178-2.881
	c0.461-0.26,0.743-0.568,0.689-1.086l-0.413-3.937c-0.055-0.518-0.509-0.854-1.026-0.8l-3.418,0.359
	c-0.519,0.055-0.892,0.478-0.838,0.995l0.214,2.038l-4.042-0.273l-0.236-2.246c-0.21-2.002,1.208-3.79,3.21-4l5.973-0.627
	c2.037-0.215,3.829,1.238,4.04,3.24l0.598,5.695c0.163,1.555-0.489,2.321-1.997,3.247c-1.509,0.927-3.386,1.997-5.813,3.474
	c-0.459,0.292-0.751,0.496-0.696,1.016l0.344,3.279l9.426-0.989l0.381,3.624l-13.396,1.406L22.172,132.918z"/>
<path fill="#12100B" d="M38.884,131.164c-0.211-2.002,0.941-2.682,2.652-3.664c2.073-1.195,3.103-1.688,5.178-2.882
	c0.461-0.259,0.742-0.567,0.688-1.085l-0.413-3.938c-0.054-0.518-0.508-0.854-1.025-0.799l-3.419,0.358
	c-0.517,0.055-0.891,0.478-0.837,0.995l0.214,2.039l-4.042-0.274l-0.236-2.245c-0.21-2.002,1.208-3.791,3.21-4.001l5.973-0.627
	c2.037-0.214,3.83,1.237,4.04,3.239l0.598,5.697c0.163,1.555-0.489,2.32-1.997,3.246c-1.509,0.927-3.386,1.996-5.814,3.475
	c-0.458,0.291-0.751,0.496-0.696,1.014l0.345,3.281l9.426-0.99l0.38,3.625l-13.396,1.406L38.884,131.164z"/>
<path fill="#12100B" d="M54.319,129.195l-0.363-3.453l8.562-0.899l0.363,3.453L54.319,129.195z"/>
<path fill="#12100B" d="M65.713,128.348c-0.21-2.002,0.94-2.682,2.652-3.664c2.073-1.195,3.103-1.688,5.178-2.883
	c0.461-0.258,0.742-0.566,0.688-1.084l-0.413-3.938c-0.054-0.518-0.508-0.854-1.025-0.799l-3.418,0.358
	c-0.519,0.054-0.892,0.478-0.838,0.995l0.214,2.038l-4.043-0.273l-0.235-2.245c-0.211-2.002,1.207-3.791,3.21-4.001l5.972-0.627
	c2.038-0.214,3.83,1.237,4.041,3.239l0.598,5.697c0.163,1.555-0.489,2.32-1.997,3.246c-1.509,0.927-3.386,1.996-5.814,3.474
	c-0.458,0.292-0.75,0.497-0.695,1.015l0.344,3.281l9.426-0.99l0.381,3.624l-13.396,1.407L65.713,128.348z"/>
<path fill="#12100B" d="M93.888,110.102l0.381,3.623l-8.803,0.925l0.608,5.801c1.966-0.555,3.982-0.978,5.673-1.154
	c2.348-0.247,3.829,1.239,4.04,3.241l0.721,6.871c0.21,2.002-1.241,3.794-3.278,4.008l-6.249,0.656
	c-2.002,0.21-3.761-1.246-3.971-3.248l-0.119-1.139l3.897-1.107l0.098,0.932c0.054,0.519,0.508,0.855,1.025,0.801l3.695-0.389
	c0.518-0.054,0.891-0.477,0.837-0.996l-0.519-4.936c-0.058-0.553-0.439-0.861-1.025-0.801c-0.863,0.092-2.647,0.383-3.527,0.649
	c-0.676,0.211-0.866,0.72-0.812,1.237l0.098,0.932l-4.015,0.004l-1.529-14.569L93.888,110.102z"/>
<path fill="#12100B" d="M109.466,117.82l1.442,13.74l-4.004,0.42l-2.414-22.992l4.004-0.42l7.624,13.439l4.667-14.73l4.005-0.42
	l2.414,22.992l-4.005,0.42l-1.442-13.74l-3.354,10.266l-3.522,0.37L109.466,117.82z"/>
<path fill="#12100B" d="M148.752,127.587l-4.179,0.439l-2.182-4.83l-7.768,0.815l-1.062,5.172l-4.178,0.439l5.354-23.808
	l3.833-0.402L148.752,127.587z M135.48,120.185l5.316-0.558l-3.579-8.49L135.48,120.185z"/>
<path fill="#12100B" d="M155.073,126.924l-4.143,0.435l-2.414-22.992l4.143-0.435L155.073,126.924z"/>
<path fill="#12100B" d="M164.295,117.998c-0.21-2.002,0.939-2.682,2.652-3.664c2.073-1.195,3.104-1.688,5.177-2.883
	c0.462-0.258,0.743-0.566,0.688-1.084l-0.413-3.938c-0.054-0.518-0.508-0.854-1.025-0.799l-3.419,0.358
	c-0.518,0.054-0.891,0.477-0.837,0.995l0.214,2.038l-4.043-0.273l-0.235-2.245c-0.211-2.002,1.207-3.791,3.21-4.001l5.972-0.627
	c2.038-0.214,3.83,1.237,4.04,3.239l0.598,5.697c0.163,1.555-0.488,2.32-1.996,3.246c-1.51,0.927-3.386,1.996-5.814,3.474
	c-0.458,0.292-0.751,0.497-0.696,1.015l0.344,3.281l9.426-0.99l0.381,3.624l-13.395,1.407L164.295,117.998z"/>
<path fill="#12100B" d="M181.763,120.457l-1.652-15.744c-0.211-2.002,1.207-3.791,3.21-4l6.663-0.7
	c2.037-0.214,3.83,1.237,4.041,3.239l1.652,15.744c0.211,2.002-1.242,3.795-3.279,4.009l-6.663,0.7
	C183.732,123.914,181.974,122.459,181.763,120.457z M190.148,104.566c-0.054-0.518-0.509-0.854-1.026-0.799l-4.108,0.432
	c-0.518,0.054-0.892,0.477-0.838,0.994l1.465,13.949c0.054,0.518,0.508,0.854,1.025,0.801l4.108-0.432
	c0.518-0.055,0.893-0.479,0.839-0.996L190.148,104.566z"/>
<path fill="#12100B" d="M205.211,98.414l2.414,22.992l-3.97,0.416l-1.997-19.022l-5.67,2.516l-0.417-3.971l5.67-2.516
	L205.211,98.414z"/>
<path fill="#12100B" d="M208.75,112.144l7.891-14.929l3.971-0.418l1.465,13.947l3.694-0.387l0.085,3.48l-3.417,0.359l0.587,5.592
	l-3.971,0.418l-0.587-5.594l-9.355,0.982L208.75,112.144z M218.106,111.162l-0.83-7.906l-4.21,8.435L218.106,111.162z"/>
<polygon fill="#FEE900" points="98.579,90.322 102.314,87.036 106.642,89.507 104.573,84.991 108.351,81.577 103.352,82.146 
	101.378,77.741 100.352,82.442 95.331,82.958 99.676,85.499 "/>
<g>
	<path fill="#12100B" d="M54.169,154.971l1.748-0.184l2.824,7.344l0.373-7.68l1.963-0.205l-0.784,11.29l-1.997,0.21l-2.934-7.754
		l-1.244,8.192l-1.997,0.21l-3.111-10.882l1.963-0.207l1.959,7.436L54.169,154.971z"/>
	<path fill="#12100B" d="M67.802,153.539l1.749-0.183l2.824,7.343l0.373-7.679l1.963-0.206l-0.784,11.29l-1.997,0.21l-2.935-7.753
		l-1.243,8.191l-1.997,0.21l-3.112-10.882l1.964-0.207l1.958,7.436L67.802,153.539z"/>
	<path fill="#12100B" d="M81.438,152.108l1.748-0.184l2.824,7.344l0.372-7.68l1.963-0.206l-0.784,11.29l-1.997,0.21l-2.935-7.753
		l-1.243,8.191l-1.998,0.21l-3.111-10.882l1.964-0.206l1.959,7.434L81.438,152.108z"/>
	<path fill="#12100B" d="M93.891,150.801l6.725-0.706l0.192,1.832l-4.728,0.495l0.288,2.747l4.312-0.453l0.193,1.831L96.56,157
		l0.299,2.846l4.728-0.496l0.192,1.831l-6.725,0.705L93.891,150.801z"/>
	<path fill="#12100B" d="M102.931,149.852l1.997-0.21l0.971,9.256l4.528-0.476l0.192,1.83l-6.525,0.686L102.931,149.852z"/>
	<path fill="#12100B" d="M111.438,148.958l6.725-0.705l0.192,1.831l-4.728,0.496l0.289,2.747l4.311-0.452l0.193,1.83l-4.311,0.453
		l0.299,2.846l4.728-0.496l0.192,1.831l-6.725,0.706L111.438,148.958z"/>
	<path fill="#12100B" d="M126.547,154.692l2.032,0.123l0.176,1.682c0.107,1.016-0.623,1.917-1.639,2.023l-3.745,0.393
		c-1.016,0.107-1.899-0.624-2.005-1.641l-0.78-7.423c-0.106-1.016,0.606-1.915,1.622-2.022l3.745-0.393
		c1.016-0.107,1.916,0.624,2.023,1.639l0.166,1.581l-1.962,0.543l-0.156-1.481c-0.026-0.25-0.246-0.412-0.495-0.385l-2.497,0.262
		c-0.249,0.026-0.43,0.23-0.403,0.479l0.688,6.558c0.027,0.251,0.245,0.412,0.495,0.387l2.497-0.263
		c0.249-0.025,0.431-0.23,0.404-0.48L126.547,154.692z"/>
	<path fill="#12100B" d="M129.185,147.096l8.023-0.843l0.192,1.831l-3.013,0.316l0.971,9.254l-1.997,0.211l-0.972-9.255
		l-3.013,0.316L129.185,147.096z"/>
	<path fill="#12100B" d="M142.101,156.947l-1.997,0.21l-1.163-11.087l1.997-0.209L142.101,156.947z"/>
	<path fill="#12100B" d="M144.473,154.848l-0.779-7.425c-0.107-1.015,0.607-1.915,1.622-2.021l3.913-0.41
		c1.015-0.106,1.916,0.623,2.022,1.639l0.779,7.424c0.107,1.017-0.624,1.916-1.639,2.023l-3.912,0.411
		C145.463,156.595,144.58,155.863,144.473,154.848z M149.298,147.273c-0.027-0.25-0.244-0.412-0.495-0.386l-2.664,0.28
		c-0.249,0.025-0.431,0.229-0.404,0.479l0.688,6.559c0.026,0.249,0.246,0.412,0.495,0.385l2.664-0.278
		c0.251-0.026,0.43-0.23,0.404-0.481L149.298,147.273z"/>
	<path fill="#12100B" d="M162.843,154.77l-1.931,0.202l-4.947-6.732l0.753,7.174l-1.932,0.202l-1.163-11.086l1.932-0.202l4.95,6.767
		l-0.756-7.207l1.931-0.203L162.843,154.77z"/>
	<path fill="#12100B" d="M166.68,149.134c-1.014-0.197-1.864-0.596-1.97-1.611l-0.239-2.28c-0.106-1.017,0.606-1.915,1.622-2.021
		l3.529-0.37c1.016-0.107,1.917,0.623,2.023,1.639l0.136,1.298l-1.961,0.543l-0.125-1.199c-0.027-0.249-0.246-0.411-0.496-0.385
		l-2.281,0.238c-0.249,0.027-0.431,0.231-0.404,0.48l0.145,1.382c0.027,0.25,0.244,0.396,0.5,0.436
		c1.013,0.181,1.868,0.309,3.12,0.531c0.976,0.166,1.813,0.6,1.919,1.616l0.261,2.479c0.107,1.017-0.607,1.915-1.623,2.021
		l-3.595,0.377c-1.016,0.107-1.917-0.623-2.023-1.638l-0.133-1.265l1.962-0.543l0.122,1.164c0.027,0.25,0.246,0.413,0.496,0.386
		l2.347-0.246c0.249-0.026,0.43-0.23,0.403-0.48l-0.167-1.597c-0.026-0.25-0.226-0.381-0.499-0.419
		C168.447,149.453,167.95,149.37,166.68,149.134z"/>
	<path fill="#12100B" d="M174.415,149.719c-0.102-0.967,0.453-1.294,1.278-1.768c1-0.576,1.497-0.814,2.496-1.39
		c0.224-0.124,0.359-0.273,0.333-0.522l-0.199-1.897c-0.027-0.25-0.246-0.412-0.496-0.386l-1.648,0.173
		c-0.249,0.026-0.431,0.23-0.404,0.48l0.104,0.982l-1.95-0.132l-0.114-1.082c-0.102-0.965,0.583-1.828,1.548-1.93l2.88-0.303
		c0.981-0.103,1.846,0.598,1.947,1.563l0.288,2.747c0.079,0.748-0.235,1.118-0.962,1.564c-0.728,0.446-1.632,0.962-2.804,1.674
		c-0.219,0.142-0.36,0.241-0.334,0.489l0.166,1.582l4.543-0.478l0.183,1.748l-6.458,0.678L174.415,149.719z"/>
	<path fill="#12100B" d="M183.486,150.836l-0.797-7.591c-0.102-0.965,0.583-1.828,1.548-1.93l3.213-0.337
		c0.982-0.102,1.846,0.598,1.948,1.562l0.797,7.591c0.102,0.965-0.599,1.829-1.581,1.933l-3.212,0.337
		C184.436,152.503,183.588,151.801,183.486,150.836z M187.529,143.175c-0.027-0.25-0.245-0.411-0.495-0.386l-1.982,0.208
		c-0.249,0.026-0.43,0.23-0.404,0.48l0.706,6.725c0.027,0.25,0.245,0.411,0.495,0.386l1.982-0.208
		c0.249-0.026,0.43-0.231,0.404-0.48L187.529,143.175z"/>
	<path fill="#12100B" d="M195.443,140.14l1.163,11.086l-1.914,0.2l-0.963-9.172l-2.733,1.213l-0.201-1.914l2.734-1.212
		L195.443,140.14z"/>
	<path fill="#12100B" d="M197.796,146.691l3.807-7.199l1.914-0.2l0.705,6.725l1.781-0.187l0.042,1.679l-1.648,0.173l0.283,2.696
		l-1.915,0.201l-0.283-2.696l-4.51,0.473L197.796,146.691z M202.308,146.217l-0.4-3.811l-2.03,4.066L202.308,146.217z"/>
	<path fill="#12100B" d="M207.694,150.061l-0.239-2.28l2.164-0.228l0.239,2.28L207.694,150.061z"/>
	<path fill="#12100B" d="M211.258,138.479l6.725-0.705l0.192,1.831l-4.729,0.496l0.289,2.747l4.311-0.452l0.193,1.83l-4.311,0.453
		l0.298,2.846l4.729-0.497l0.191,1.831l-6.725,0.706L211.258,138.479z"/>
	<path fill="#12100B" d="M225.608,136.973l1.997-0.21l0.971,9.255c0.107,1.016-0.623,1.917-1.639,2.023l-3.745,0.394
		c-1.017,0.106-1.899-0.625-2.007-1.642l-0.971-9.254l1.997-0.21l0.926,8.821c0.027,0.251,0.246,0.412,0.495,0.387l2.497-0.263
		c0.249-0.026,0.431-0.23,0.404-0.48L225.608,136.973z"/>
</g>
<path fill="#12100B" d="M325.326,108.412l-2.865,0.303l-1.499-3.314l-5.328,0.561l-0.727,3.551l-2.867,0.301l3.668-16.334
	l2.628-0.277L325.326,108.412z M316.217,103.336l3.648-0.383l-2.458-5.822L316.217,103.336z"/>
<path fill="#12100B" d="M330.623,99.377l5.588-0.588l0.609,5.777c0.152,1.445-0.888,2.727-2.331,2.881l-5.329,0.56
	c-1.443,0.15-2.702-0.891-2.854-2.334l-1.114-10.562c-0.151-1.443,0.863-2.723,2.308-2.877l5.328-0.561
	c1.445-0.154,2.728,0.885,2.881,2.33l0.185,1.754l-2.793,0.77l-0.169-1.609c-0.039-0.354-0.35-0.584-0.705-0.549l-3.552,0.375
	c-0.356,0.037-0.612,0.328-0.575,0.684l0.983,9.332c0.038,0.355,0.349,0.584,0.705,0.549l3.551-0.375
	c0.355-0.037,0.612-0.328,0.576-0.684l-0.281-2.654l-2.748,0.289L330.623,99.377z"/>
<path fill="#12100B" d="M342.305,106.623l-2.841,0.301l-1.663-15.775l2.843-0.299L342.305,106.623z"/>
<path fill="#12100B" d="M350.213,99.635l-2.984,0.316l0.642,6.086l-2.841,0.299l-1.663-15.773l8.265-0.871
	c1.445-0.15,2.729,0.885,2.88,2.328l0.472,4.477c0.13,1.232-0.591,2.34-1.699,2.742l3.681,5.84l-3.126,0.328L350.213,99.635z
	 M351.735,92.938c-0.038-0.355-0.35-0.588-0.705-0.549l-4.548,0.479l0.472,4.477l4.549-0.479c0.355-0.039,0.611-0.328,0.575-0.684
	L351.735,92.938z"/>
<path fill="#12100B" d="M358.623,104.902l-0.341-3.244l3.077-0.326l0.342,3.246L358.623,104.902z"/>
<path fill="#12100B" d="M295.085,125.012l-2.984,0.311l0.641,6.088l-2.844,0.299l-1.66-15.773l8.265-0.871
	c1.445-0.15,2.73,0.887,2.88,2.332l0.473,4.477c0.129,1.232-0.593,2.336-1.698,2.742l3.679,5.838l-3.126,0.33L295.085,125.012z
	 M296.605,118.311c-0.037-0.352-0.348-0.584-0.704-0.547l-4.548,0.48l0.473,4.477l4.548-0.481c0.354-0.037,0.611-0.326,0.574-0.684
	L296.605,118.311z"/>
<path fill="#12100B" d="M301.948,114.492l9.568-1.008l0.275,2.605l-6.727,0.707l0.412,3.91l6.134-0.646l0.275,2.604l-6.135,0.648
	l0.428,4.049l6.726-0.711l0.275,2.606l-9.567,1.01L301.948,114.492z M306.003,112.75l-1.383-1.316l2.709-2.92l1.41,1.336
	L306.003,112.75z"/>
<path fill="#12100B" d="M327.365,127.762l-2.865,0.303l-1.5-3.314l-5.328,0.562l-0.727,3.547l-2.865,0.303l3.667-16.336l2.628-0.275
	L327.365,127.762z M318.257,122.686l3.647-0.383l-2.457-5.824L318.257,122.686z"/>
<path fill="#12100B" d="M332.662,118.727l5.589-0.588l0.609,5.777c0.152,1.447-0.886,2.729-2.33,2.879l-5.329,0.564
	c-1.443,0.15-2.704-0.891-2.855-2.334l-1.113-10.564c-0.152-1.443,0.861-2.725,2.307-2.877l5.327-0.561
	c1.447-0.152,2.729,0.885,2.881,2.33l0.186,1.754l-2.793,0.771l-0.171-1.607c-0.035-0.359-0.348-0.59-0.702-0.551l-3.552,0.373
	c-0.357,0.037-0.613,0.328-0.576,0.685l0.984,9.332c0.036,0.355,0.349,0.584,0.704,0.547l3.553-0.373
	c0.355-0.039,0.609-0.33,0.573-0.684l-0.279-2.654l-2.746,0.289L332.662,118.727z"/>
<path fill="#12100B" d="M344.344,125.975l-2.842,0.299l-1.662-15.775l2.841-0.299L344.344,125.975z"/>
<path fill="#12100B" d="M352.251,118.986l-2.983,0.314l0.641,6.086l-2.842,0.299l-1.661-15.771l8.264-0.873
	c1.445-0.152,2.729,0.887,2.881,2.33l0.47,4.477c0.13,1.232-0.59,2.338-1.696,2.742l3.68,5.838l-3.126,0.33L352.251,118.986z
	 M353.774,112.285c-0.038-0.354-0.351-0.584-0.704-0.547l-4.549,0.481l0.473,4.476l4.548-0.48c0.354-0.037,0.612-0.328,0.574-0.683
	L353.774,112.285z"/>
<path fill="#12100B" d="M360.662,124.254l-0.342-3.246l3.078-0.324l0.341,3.244L360.662,124.254z"/>
<path fill="#12100B" d="M263.167,154.094l-2.866,0.301l-1.499-3.314l-5.328,0.562l-0.728,3.549l-2.867,0.303l3.668-16.338
	l2.628-0.273L263.167,154.094z M254.058,149.018l3.648-0.383l-2.457-5.824L254.058,149.018z"/>
<path fill="#12100B" d="M271.518,147.68l2.891,0.176l0.253,2.391c0.152,1.445-0.887,2.727-2.332,2.881l-5.327,0.562
	c-1.445,0.15-2.705-0.891-2.857-2.334l-1.112-10.564c-0.151-1.441,0.862-2.725,2.308-2.877l5.328-0.562
	c1.444-0.15,2.725,0.889,2.88,2.334l0.237,2.248l-2.792,0.773l-0.223-2.107c-0.036-0.354-0.35-0.586-0.703-0.549l-3.553,0.375
	c-0.356,0.037-0.613,0.328-0.576,0.682l0.984,9.334c0.038,0.354,0.35,0.584,0.704,0.547l3.553-0.373
	c0.355-0.037,0.611-0.328,0.574-0.684L271.518,147.68z"/>
<path fill="#12100B" d="M284.4,146.324l2.894,0.172l0.251,2.395c0.152,1.443-0.887,2.727-2.33,2.877l-5.329,0.562
	c-1.444,0.152-2.704-0.887-2.857-2.332l-1.112-10.564c-0.151-1.443,0.862-2.725,2.307-2.875l5.329-0.562
	c1.446-0.15,2.728,0.887,2.879,2.328l0.238,2.254l-2.792,0.771l-0.223-2.107c-0.037-0.355-0.35-0.588-0.704-0.549l-3.552,0.375
	c-0.356,0.037-0.611,0.328-0.576,0.684l0.983,9.33c0.038,0.355,0.35,0.586,0.705,0.549l3.553-0.375
	c0.355-0.037,0.61-0.326,0.573-0.684L284.4,146.324z"/>
<path fill="#12100B" d="M289.911,148.639l-1.112-10.561c-0.152-1.447,0.863-2.727,2.308-2.879l5.566-0.586
	c1.444-0.152,2.727,0.887,2.879,2.33l1.112,10.562c0.152,1.447-0.885,2.729-2.33,2.879l-5.565,0.586
	C291.324,151.125,290.064,150.084,289.911,148.639z M296.774,137.857c-0.038-0.354-0.349-0.582-0.705-0.547l-3.788,0.398
	c-0.358,0.037-0.612,0.33-0.577,0.686l0.985,9.332c0.038,0.354,0.35,0.584,0.705,0.547l3.789-0.398
	c0.356-0.039,0.612-0.328,0.574-0.684L296.774,137.857z"/>
<path fill="#12100B" d="M305.296,140.121l0.994,9.428l-2.747,0.287l-1.662-15.771l2.746-0.291l5.234,9.221l3.197-10.107l2.747-0.289
	l1.664,15.773l-2.748,0.291l-0.994-9.428l-2.299,7.041l-2.415,0.256L305.296,140.121z"/>
<path fill="#12100B" d="M318.529,132.311l8.029-0.846c1.444-0.154,2.728,0.885,2.88,2.328l0.472,4.477
	c0.152,1.445-0.887,2.729-2.331,2.881l-5.186,0.547l0.641,6.086l-2.841,0.301L318.529,132.311z M326.66,134.709
	c-0.037-0.355-0.349-0.586-0.704-0.549l-4.312,0.455l0.474,4.477l4.311-0.455c0.355-0.037,0.611-0.326,0.573-0.684L326.66,134.709z"
	/>
<path fill="#12100B" d="M330.821,131.014l2.841-0.301l1.388,13.17l6.442-0.68l0.274,2.607l-9.284,0.977L330.821,131.014z"/>
<path fill="#12100B" d="M346.382,145.322l-2.84,0.301l-1.663-15.773l2.841-0.299L346.382,145.322z"/>
<path fill="#12100B" d="M354.29,138.336l-2.983,0.314l0.643,6.086l-2.842,0.299l-1.663-15.773l8.266-0.871
	c1.444-0.152,2.728,0.889,2.879,2.332l0.473,4.475c0.129,1.232-0.591,2.336-1.699,2.74l3.68,5.842l-3.126,0.328L354.29,138.336z
	 M355.813,131.635c-0.036-0.352-0.351-0.584-0.704-0.547l-4.548,0.482l0.473,4.473l4.546-0.479c0.356-0.037,0.611-0.326,0.576-0.684
	L355.813,131.635z"/>
<path fill="#12100B" d="M362.701,143.604l-0.343-3.244l3.078-0.326l0.344,3.246L362.701,143.604z"/>
<path fill="#9C9896" d="M289.397,78.74l-0.027-0.007c-0.118-0.028-0.195,0.049-0.244,0.115c-0.273-0.269-0.566-0.098-0.765,0.022
	c-0.176,0.106-0.266,0.151-0.34,0.101c0-0.001,0-0.001-0.001-0.001l-0.093,0.141c-0.013-0.085-0.055-0.188-0.114-0.302l-0.029-0.056
	l-0.561-0.089l-0.032,0.099c-0.097,0.293-0.31,0.287-0.676,0.253c-0.248-0.025-0.522-0.042-0.719,0.128
	c-0.044,0.009-0.343,0.074-0.343,0.074c-0.387,0.097-0.65,0.145-0.845-0.04c-0.02-0.038-0.045-0.074-0.091-0.107l-0.015-0.009
	c0,0-0.07,0.063-0.125,0.111c-0.201,0.029-0.408,0.076-0.608,0.128c-0.475,0.121-0.939,0.089-1.311-0.095l-0.193-0.097l0.019,0.218
	c0.002,0.02-0.001,0.027-0.026,0.051c-0.018,0.005-0.037,0.009-0.037,0.009c-0.566,0.143-1.101,0.275-1.387-0.213l-0.223,0.095
	c0,0,0.015,0.02,0.017,0.026l-0.002,0.001c0.004,0.01,0.011,0.014,0.017,0.024c0.032,0.055,0.089,0.146,0.089,0.146
	c0.053,0.066,0.074,0.098,0.076,0.119c0.001,0.004-0.005,0.005-0.005,0.008c-0.049,0-0.096,0.001-0.096,0.001
	c-0.145,0.008-0.193,0.005-0.235-0.064l-0.039-0.063l-0.087,0.006l-0.302,0.022c-0.246,0.004-0.525,0.014-0.782,0.24
	c-2.589,0.3-4.82,0.515-6.977,0.723l-0.931,0.091l0.073,0.679c0.369-0.087,0.732-0.126,1.109,0.017l0.177,0.067
	c0,0-0.005-0.096-0.011-0.146c0.752-0.16,1.501-0.223,2.225-0.28l1.221-0.11l0.027-0.05c0.041-0.061,0.046-0.065,0.173,0.011
	c0.085,0.053,0.191,0.119,0.31,0.079c0.064-0.019,0.111-0.074,0.154-0.146c0.354,0.093,0.701,0.048,1.039-0.008
	c0.302-0.049,0.584-0.097,0.827-0.019l0.172,0.054c0,0-0.01-0.128-0.012-0.16c0.217-0.025,2.737-0.306,2.737-0.306l0.048-0.039
	c0.269-0.216,0.441-0.303,0.584-0.133l0.118,0.141l0.068-0.141l0.084-0.162c0.009-0.029,0.026-0.075,0.039-0.085
	c0.003,0.001,0.023,0.003,0.023,0.003c0.032,0.01,0.061,0.054,0.079,0.097c-0.001,0.002-0.005,0.009-0.005,0.009l0.028,0.068
	c0.003,0.006,0.008,0.006,0.011,0.01c0.009,0.046,0.044,0.22,0.044,0.22s0.062-0.084,0.107-0.141
	c0.022-0.004,0.077-0.015,0.077-0.015s0.005-0.081,0.006-0.092c0,0,0-0.001,0.002-0.001c0.006,0.005,0.012,0.011,0.012,0.011
	l0.19,0.155l0.053-0.053c0.471-0.259,1.366-0.494,1.999-0.107l0.162,0.101c0,0,0.035-0.308,0.046-0.405
	c0.592,0.065,1.097,0.039,1.647-0.099l0.079-0.019l0.012-0.081c0.017-0.096,0.052-0.121,0.062-0.128
	c0.073-0.051,0.226-0.023,0.347,0.001c0.157,0.029,0.307,0.056,0.392-0.058c0.022-0.026,0.033-0.058,0.038-0.091
	c0.032,0.016,0.061,0.026,0.094,0.033c0.154,0.061,0.332,0.094,0.573,0.072l0.064-0.004l0.032-0.058c0.048-0.09,0.078-0.1,0.078-0.1
	c0.02-0.003,0.094,0.059,0.125,0.086c0.086,0.073,0.192,0.164,0.328,0.152l0.074-0.007l0.027-0.069
	c0.013-0.032,0.018-0.063,0.016-0.092c-0.004-0.018-0.012-0.032-0.018-0.05c0.09-0.055,0.333-0.203,0.333-0.203L289.397,78.74z
	 M247.258,77.551c0.515,0.223,0.86,0.459,1.025,0.703l0.267,0.396l-0.078-0.829l-0.015-0.026c-0.201-0.321-0.619-0.459-0.924-0.56
	c0,0-0.035-0.011-0.056-0.019c-0.375-0.412-1.089-0.652-1.572-0.811l-0.023-0.008l-0.029,0.004c-0.144,0.013-0.308,0.042-0.45,0.122
	c-0.235-0.192-0.512-0.172-0.78-0.145c-0.204,0.023-0.414,0.044-0.619-0.022l-0.03-0.009l-0.033,0.005
	c-0.144,0.03-0.245,0.113-0.335,0.184c-0.123,0.099-0.204,0.162-0.367,0.12l-0.03-0.009l-0.03,0.009
	c-0.192,0.047-0.261,0.153-0.282,0.233c-0.06,0.206,0.123,0.45,0.286,0.617l0.059,0.062l0.078-0.035
	c0.689-0.315,1.083-0.325,1.72-0.32l0.01,0.001l0.011-0.002c0.539-0.093,0.998,0.035,1.484,0.169
	C246.772,77.446,247.01,77.51,247.258,77.551 M289.749,79.021l-0.026,0.237l0.169,0.051l0.112-0.21l-0.108-0.091L289.749,79.021z
	 M290.69,78.938c-0.023,0.002-0.064-0.032-0.105-0.069c0,0-0.03-0.02-0.05-0.033l0.193-0.23l-0.739,0.066l0.011,0.122l0.035,0.38
	l0.121-0.011c0.046-0.004,0.123,0.022,0.19,0.046c0.132,0.045,0.375,0.129,0.469-0.106l0.071-0.184L290.69,78.938z M250.849,82.73
	c-0.551,0.103-1.071,0.2-1.586,0.043l-0.075-0.021l-0.054,0.06c-0.055,0.066-0.121,0.095-0.195,0.13
	c-0.084,0.038-0.183,0.084-0.26,0.188c-0.309-0.25-0.604-0.099-0.85,0.027c-0.256,0.132-0.425,0.204-0.616,0.052l-0.101,0.043
	l-0.096,0.075c0.049,0.256,0.243,0.276,0.357,0.289c0.106,0.011,0.144,0.017,0.173,0.083l0.043,0.101l0.091-0.029l0.391-0.122
	c0.223-0.082,0.452-0.167,0.585-0.087l0.051,0.032l0.057-0.019c0.437-0.163,0.938-0.163,1.468-0.159
	c0.522,0.002,1.063,0,1.577-0.161l-0.069-0.646C251.437,82.623,251.14,82.677,250.849,82.73 M268.873,70.585
	c-0.265-0.317-0.587-0.507-0.9-0.69c-0.277-0.16-0.538-0.315-0.75-0.548c-0.001-0.005-0.002-0.009-0.002-0.012
	c-0.004-0.035,0.017-0.055,0.107-0.109c0.085-0.053,0.202-0.125,0.249-0.267l0.051-0.161h-0.167
	c-0.725,0.003-1.407,0.005-2.002-0.345l-0.023-0.013l-0.025-0.004c-0.278-0.033-0.329-0.194-0.392-0.379
	c-0.041-0.132-0.091-0.28-0.234-0.348c-0.105-0.048-0.247-0.032-0.423,0.025c-0.18-0.245-0.443-0.322-0.682-0.384
	c-0.283-0.071-0.444-0.123-0.5-0.338l-0.056-0.207l-0.151,0.149c-0.123,0.127-0.152,0.102-0.282-0.013
	c-0.048-0.04-0.103-0.086-0.166-0.122l0.011,0.001l0.018-0.243c-0.006,0-0.011,0.001-0.017,0v-0.001l-0.327-0.035
	c-0.205-0.032-0.437-0.063-0.697-0.001c-0.151,0.002-0.276-0.077-0.406-0.16c-0.182-0.117-0.406-0.252-0.685-0.086
	c0-0.001-0.045-0.035-0.063-0.048c0.135-0.295,0.413-0.481,0.683-0.66c0.256-0.169,0.523-0.344,0.65-0.613l-0.197-0.14
	c-0.189,0.195-0.409,0.335-0.645,0.485c-0.225,0.142-0.455,0.287-0.668,0.489c-0.025,0.019-0.086,0.005-0.178-0.019
	c-0.093-0.025-0.21-0.056-0.314,0.006c-0.04,0.025-0.072,0.062-0.1,0.108c-0.038-0.02-0.075-0.045-0.115-0.074
	c0,0-0.108-0.066-0.153-0.093c-0.147-0.222-0.405-0.229-0.64-0.224c-0.313,0.004-0.583,0.009-0.727-0.379l-0.011-0.024l-0.017-0.019
	c-0.083-0.088-0.196-0.116-0.31-0.074c-0.109,0.036-0.19,0.139-0.234,0.252c-0.011,0.002-0.02,0.004-0.026,0.004
	c0.003-0.055,0.052-0.164,0.084-0.202l0.156-0.178l-0.226-0.023l-0.228-0.023c-0.277-0.031-0.537-0.053-0.802,0.11
	c-0.017-0.005-0.036-0.009-0.036-0.009c-0.143-0.035-0.194-0.056-0.2-0.114c-0.002-0.02,0.001-0.047,0.009-0.081l0.023-0.098
	l-0.095-0.04c-0.187-0.08-0.387-0.052-0.564-0.027c-0.283,0.04-0.314,0.02-0.333-0.085l-0.022-0.131l-0.127,0.033
	c-0.25,0.064-0.506-0.014-0.757-0.091c-0.311-0.096-0.635-0.194-0.928,0.001l0.016-0.01c-0.145,0.064-0.175,0.022-0.275-0.144
	c-0.052-0.087-0.107-0.184-0.202-0.248l-0.069-0.047c0,0-0.287,0.206-0.374,0.267c-0.143-0.087-0.296-0.153-0.446-0.212
	l-0.363-0.155l-0.056,0.02c-0.175,0.083-0.386,0.027-0.607-0.03c-0.204-0.053-0.428-0.098-0.646-0.047
	c-0.002-0.018-0.004-0.04-0.004-0.04s-0.663,0.062-0.711,0.067c-0.392-0.189-0.773-0.157-1.142-0.122
	c-0.398,0.038-0.772,0.074-1.127-0.189l-0.128-0.096l-0.058,0.15c-0.028,0.073-0.073,0.085-0.205,0.102l-0.161,0.031l0.007-0.002
	c-0.155,0.044-0.29,0.017-0.399-0.084c-0.13-0.119-0.202-0.331-0.172-0.492l0.081-0.397l-0.285,0.287
	c-0.105,0.104-0.129,0.233-0.152,0.349c-0.025,0.135-0.052,0.215-0.143,0.274c-0.061,0.008-1.095,0.156-1.095,0.156
	c-1.206,0.165-2.456,0.334-3.657,0.752l-0.036,0.014l-0.023,0.031c-0.188,0.265-0.239,0.475-0.222,0.638
	c0.014,0.132,0.074,0.235,0.142,0.308l0.04,0.047l2.562-0.243c0.266,0.012,0.515-0.028,0.757-0.065
	c0.378-0.059,0.707-0.104,1.061,0.06c-0.221,1.058-0.523,1.996-0.88,2.711l-0.018,0.036l0.007,0.04
	c0.004,0.024,0.008,0.05,0.01,0.076c0.05,0.457-0.144,0.924-0.332,1.376c-0.143,0.34-0.288,0.69-0.325,1.031
	c-0.05,0.207-0.07,0.437-0.09,0.659c-0.037,0.406-0.071,0.791-0.277,1.129l-0.037,0.058l0.033,0.061
	c0.018,0.04,0.031,0.085,0.036,0.134c0.023,0.224-0.084,0.53-0.141,0.692l-0.037,0.113c-0.005,0.019-0.058,0.308-0.058,0.308
	c-0.043,0.222-0.095,0.474-0.072,0.702c0.02,0.173,0.084,0.335,0.229,0.455l0.092,0.074l0.076-0.085
	c0.196-0.215,0.249-0.498,0.3-0.771c0.04-0.233,0.082-0.454,0.202-0.63l0.042-0.061l-0.035-0.065
	c-0.031-0.062-0.049-0.122-0.057-0.178c-0.017-0.163,0.062-0.31,0.148-0.472c0.082-0.159,0.169-0.317,0.149-0.493
	c-0.003-0.024-0.011-0.048-0.017-0.072c-0.003-0.205,0.068-0.419,0.139-0.628c0.07-0.211,0.136-0.43,0.127-0.64
	c0.116-0.211,0.155-0.454,0.188-0.69c0.028-0.211,0.057-0.409,0.141-0.555l0.013-0.021l0.001-0.026
	c0.062-0.536,0.212-1.053,0.356-1.553c0.146-0.506,0.296-1.03,0.362-1.581c0.036-0.104,0.044-0.222,0.051-0.336
	c0.018-0.27,0.045-0.362,0.167-0.385l0.103-0.021l-0.004-0.14c0-0.019,0-0.04-0.003-0.066c-0.005-0.038-0.016-0.079-0.041-0.12
	c0.046-0.055,0.07-0.087,0.101-0.122c1.774-0.065,3.694,0.189,5.39,0.416l0.081,0.011c0.801,0.085,1.61,0.227,2.396,0.366
	c0.796,0.141,1.551,0.27,2.294,0.348c0.003,0.031,0.006,0.07,0.006,0.07s0.585,0.047,0.636,0.052
	c0.246,0.175,0.527,0.229,0.799,0.28c0.237,0.044,0.462,0.09,0.647,0.212c-0.132,0.105-0.205,0.268-0.231,0.431
	c-0.476,0.21-1.094,0.617-1.459,1.097c-0.024,0.041-0.084,0.044-0.169,0.047c-0.124,0-0.385,0.002-0.388,0.305v0.027
	c-0.164,0.016-0.219,0.152-0.251,0.235c-0.015,0.044-0.031,0.071-0.044,0.091c-0.081-0.036-0.164-0.034-0.221-0.024l-0.108,0.016
	l-0.035,0.049c-0.265,0.439-0.735,0.749-1.189,1.048c-0.474,0.312-0.961,0.638-1.234,1.116c-0.748,0.32-1.289,0.787-1.81,1.241
	c-0.401,0.351-0.817,0.713-1.334,1.013l0.09,0.223c0.52-0.118,1.189-0.594,1.46-1.037l0.001-0.003c0,0,0.01-0.022,0.013-0.025
	c0.012,0.005,0.023,0.01,0.023,0.01l0.268,0.062l0.008-0.057c0.383-0.43,0.704-0.728,1.21-0.975l0.017-0.006l0.015-0.015
	c0.523-0.496,1.082-0.912,1.625-1.313c0.617-0.459,1.199-0.891,1.722-1.428l0.144-0.145l-0.069-0.02
	c0.212-0.074,0.438-0.235,0.645-0.382c0.148-0.105,0.372-0.265,0.439-0.259c0,0,0.017-0.048,0.032-0.094
	c0.304-0.122,0.51-0.338,0.703-0.551c0.017-0.019,0.033-0.033,0.049-0.051c0.002-0.001,0.004-0.002,0.005-0.003l0.069-0.029
	c0,0,0.002-0.027,0.003-0.05c0.112-0.115,0.225-0.223,0.36-0.293c0,0,0.078-0.04,0.125-0.064c0.069,0.008,0.266,0.028,0.266,0.028
	c0.336,0.021,0.752,0.047,1,0.351l0.115,0.143c0,0,0.097-0.181,0.107-0.198c0.107,0,0.185,0.019,0.242,0.083l0.052,0.057l0.073-0.02
	c0.222-0.064,0.397,0.008,0.599,0.093c0.186,0.077,0.395,0.163,0.641,0.123c0.52,0.35,1.195,0.542,1.738,0.669
	c0.026,0.021,0.069,0.052,0.069,0.052c0.062,0.045,0.148,0.106,0.153,0.148l0.014,0.145l0.14-0.04
	c0.291-0.083,0.677,0.181,1.017,0.431l0.014,0.013l0.021,0.005c0.118,0.04,0.246,0.044,0.369,0.047
	c0.224,0.008,0.36,0.025,0.44,0.152c-0.015,0.025-0.028,0.04-0.034,0.043c-0.022,0.009-0.086-0.026-0.13-0.05
	c-0.087-0.047-0.197-0.107-0.314-0.054c-0.1,0.046-0.148,0.16-0.174,0.261c-0.102,0.045-2.295,1.046-2.295,1.046
	c-3.414,1.547-6.646,3.013-9.798,5.24l3.477-0.375c0.191-0.117,0.395-0.188,0.647-0.161l0.056,0.007l0.042-0.042
	c0.223-0.221,0.494-0.36,0.779-0.508c0.303-0.157,0.613-0.324,0.866-0.592c0.075,0.062,0.339,0.281,0.339,0.281l0.023-0.226
	c0.028-0.272,0.192-0.323,0.479-0.389c0.216-0.052,0.457-0.109,0.596-0.334c0.071-0.07,0.12-0.058,0.248-0.009
	c0.086,0.031,0.183,0.066,0.297,0.057l0.047-0.005l0.104-0.122c0.081-0.092,0.158-0.193,0.21-0.317
	c0.314-0.099,0.62-0.304,0.92-0.507c0.398-0.271,0.775-0.525,1.069-0.457l0.105-0.212c0,0-0.065-0.053-0.13-0.105
	c0.022-0.002,0.05-0.004,0.083-0.006l0.232-0.028l0.004-0.014c0.148-0.104,0.287-0.163,0.423-0.219
	c0.224-0.093,0.457-0.196,0.683-0.496c0.311-0.048,0.522-0.223,0.691-0.371c0.094-0.08,0.174-0.149,0.246-0.175
	c0.009-0.001,0.85-0.177,0.85-0.177l0.117-0.023l-0.022-0.116c-0.003-0.01-0.004-0.022-0.005-0.031
	c-0.013-0.113,0.039-0.143,0.274-0.191c0.082-0.016,0.16-0.037,0.233-0.069c0.036,0.031,0.07,0.06,0.07,0.06
	c0.04,0.03,0.088,0.065,0.09,0.083c0,0.001,0,0.001-0.001,0.002l-0.017,0.115l0.113,0.022c0.422,0.084,0.823,0.339,1.212,0.586
	l0.646,0.381l0.056-0.041c0.053-0.034,0.079-0.041,0.091-0.042c0.005,0.008,0.035,0.066,0.035,0.066
	c0.042,0.092,0.119,0.259,0.336,0.238l0.132-0.013l-0.023-0.13C269.595,71.036,269.42,70.709,268.873,70.585 M289.545,78.763
	c0.035,0.055,0.116,0.183,0.326,0.092l0.08-0.035l-0.033-0.372l-0.381,0.035l-0.034,0.234
	C289.519,78.723,289.527,78.733,289.545,78.763 M272.276,67.296l-0.37,0.035l0.011,0.122l0.021,0.217l0.373-0.034L272.276,67.296z
	 M270.045,66.54l0.008,0.013l0.01,0.009c0.338,0.302,0.756,0.477,1.16,0.646l0.523,0.233l0.118-0.213l-0.719-0.469
	c-0.543-0.36-1.103-0.726-1.668-1.027c0.001-0.003,0.006-0.004,0.007-0.008l-0.198-0.144c0,0-0.017,0.024-0.038,0.048
	c-0.016-0.014-0.065-0.053-0.065-0.053c-0.062-0.059-0.168-0.155-0.301-0.143c-0.166-0.306-0.509-0.333-0.77-0.351
	c-0.171-0.011-0.333-0.022-0.396-0.098c-0.02-0.026-0.032-0.06-0.038-0.105c-0.003-0.033-0.002-0.072,0.002-0.115l-0.233-0.063
	l-0.133,0.308l-0.027,0.06l0.02-0.098c0.035-0.195-0.096-0.304-0.184-0.374c-0.061-0.052-0.091-0.079-0.09-0.105l0.011-0.133
	l-0.134,0.002c-0.181,0.005-0.299-0.062-0.436-0.137c-0.167-0.096-0.356-0.201-0.656-0.152l-0.104,0.017
	c0.003-0.061-0.004-0.124-0.012-0.186l-0.017-0.114l-0.115,0.011c-0.416,0.04-0.827-0.31-1.157-0.589l-0.281-0.23l-0.047,0.009
	c0,0-0.191,0.018-0.268,0.026c-0.025-0.03-0.052-0.061-0.052-0.061s-0.011-0.011-0.021-0.019c0.008-0.028,0.035-0.146,0.035-0.146
	l-0.451,0.042c0,0,0.012,0.127,0.012,0.128c-0.007,0.005-0.015,0.008-0.039,0.009c-0.306-0.454-0.706-0.407-1.066-0.354
	c-0.217,0.031-0.443,0.065-0.658-0.002c-0.061-0.03-0.088-0.087-0.132-0.186l-0.083-0.168l-0.03-0.007
	c-0.348-0.172-0.737-0.26-1.113-0.345l-0.493-0.117l-0.002,0.007l-0.073-0.04c-0.172-0.092-0.357-0.155-0.537-0.217
	c-0.262-0.087-0.511-0.171-0.666-0.333l-0.078-0.08c0,0-0.137,0.111-0.16,0.131c-0.117,0.049-0.219,0.057-0.289,0.022
	c-0.055-0.029-0.095-0.09-0.112-0.179l-0.053-0.255l-0.183,0.232c-0.072,0.09-0.096,0.101-0.12,0.091l0.034,0.02l-0.157-0.081
	c0,0-0.054-0.024-0.068-0.03c0.003-0.009,0.04-0.15,0.04-0.15l-0.141-0.036l-0.132-0.024c-0.14-0.028-0.369-0.072-0.519,0.06
	c-0.079-0.107-0.206-0.284-0.206-0.284l-0.068,0.006c-0.055,0.005-0.2,0.02-0.278,0.118c-0.087-0.002-0.179,0.005-0.286,0.025
	c-0.341,0.061-0.494,0.06-0.56-0.112l-0.081-0.206l-0.132,0.179c-0.023,0.032-0.038,0.049-0.049,0.057
	c-0.015-0.017-0.061-0.066-0.061-0.066c-0.055-0.072-0.124-0.156-0.23-0.201c-0.067-0.062-0.155-0.122-0.253-0.1
	c-0.106,0.023-0.148,0.125-0.181,0.197c-0.048,0.114-0.057,0.113-0.106,0.098c-0.011-0.005-0.016-0.012-0.022-0.018
	c0.016-0.043,0.108-0.274,0.108-0.274l-0.288,0.147c-0.072,0.035-0.225,0.005-0.258-0.025c0.017,0.014,0.024,0.059,0.002,0.085
	l-0.144-0.189c-0.375,0.171-0.761,0.059-1.168-0.061c-0.268-0.078-0.544-0.154-0.817-0.146c-0.005-0.036-0.008-0.077-0.008-0.077
	l-0.128,0.02c-0.483,0.078-0.883,0.048-1.258-0.099l-0.047-0.017l-0.045,0.02c-0.35,0.153-0.788,0.106-1.213,0.06
	c-0.416-0.045-0.842-0.087-1.214,0.049c-0.27-0.284-0.559-0.131-0.754-0.02c-0.191,0.106-0.271,0.124-0.348,0.066
	c-0.002-0.016-0.015-0.151-0.015-0.151l-1.248,0.065c-0.629,0.043-1.28,0.085-1.924,0.067l-0.025-0.002l-0.005,0.004l-0.253,0.09
	c-0.229,0.099-0.375,0.149-0.472,0.03l-0.094-0.115c0,0-0.17,0.205-0.208,0.253c-0.281,0.019-0.687,0.105-1.118,0.197
	c-0.586,0.127-1.252,0.27-1.472,0.199l-0.015-0.004l-0.013-0.001c-0.525-0.046-1.004,0.122-1.509,0.302
	c-0.342,0.121-0.696,0.238-1.069,0.291c-0.003-0.002-0.004-0.01-0.005-0.012c-0.129-0.148-0.477-0.06-1.859,0.464
	c0,0-0.323,0.12-0.496,0.183c-0.033-0.145-0.11-0.261-0.186-0.356c-0.071-0.092-0.108-0.147-0.111-0.196
	c-0.008-0.038,0.012-0.071,0.046-0.117l0.14-0.166l-0.228-0.034c-0.015-0.012-0.027-0.07-0.036-0.105l-0.013-0.046l-0.06-0.035
	l-0.11-0.072c-0.12-0.086-0.301-0.218-0.511-0.091l-0.096,0.055l0.484,1.101c0.251,0.542,0.489,1.054,0.644,1.663l0.004,0.014
	l0.009,0.014c0.468,0.849,0.817,1.697,1.225,2.678l0.084,0.205c0.002,0.003,0.254,0.684,0.254,0.684
	c0.155,0.455,0.304,0.884,0.658,1.286c0.228,0.459,0.365,0.854,0.498,1.235c0.148,0.429,0.303,0.875,0.585,1.411
	c0.251,0.43,0.486,0.915,0.733,1.428c0.215,0.442,0.437,0.898,0.668,1.313c-0.006,0.04-0.012,0.083-0.009,0.12
	c0.028,0.258,0.263,0.397,0.454,0.515c0.081,0.048,0.156,0.097,0.223,0.152c0.034,0.039,0.068,0.071,0.098,0.098
	c0.002,0.001,0.003,0.004,0.007,0.007c0.049,0.062,0.088,0.127,0.096,0.212c0.001,0.011,0.001,0.021,0.002,0.03h0.242
	c0.002-0.005,0-0.007,0-0.01l0,0c0-0.003,0-0.004,0-0.006c0.002-0.032,0-0.062-0.002-0.089c-0.018-0.165-0.094-0.243-0.163-0.307
	c-0.03-0.036-0.063-0.07-0.099-0.099c-0.011-0.016-0.02-0.035-0.03-0.055c0.029-0.053,0.052-0.11,0.047-0.175
	c-0.003-0.015-0.007-0.03-0.011-0.044c-0.037-0.112-0.147-0.146-0.245-0.179c-0.062-0.021-0.122-0.045-0.161-0.082
	c0.062,0.002,0.142-0.001,0.203-0.06l0.089-0.237l-0.04-0.007c-0.087-0.136-0.175-0.179-0.267-0.226c0,0-0.034-0.02-0.061-0.035
	c0.002-0.003,0.007-0.008,0.007-0.008l0.004-0.039c0.008-0.086,0.008-0.183-0.003-0.282c-0.024-0.234-0.108-0.479-0.266-0.625
	c-0.067-0.061-0.146-0.094-0.23-0.113c0.037-0.072,0.125-0.248,0.125-0.248s-0.269-0.159-0.369-0.217
	c0.001-0.004,0.014-0.039,0.014-0.039l-0.001-0.024c-0.002-0.029-0.004-0.059-0.006-0.088c-0.039-0.362-0.214-0.687-0.382-1.003
	c-0.125-0.234-0.241-0.455-0.299-0.677l-0.004-0.01l-0.544-1.263c-0.403-0.96-0.783-1.865-1.419-2.855
	c-0.003-0.014-0.077-0.335-0.077-0.335c-0.036-0.221-0.079-0.428-0.295-0.615c0.003-0.054,0.004-0.106-0.001-0.158
	c-0.044-0.405-0.279-0.755-0.508-1.095c-0.222-0.329-0.432-0.642-0.47-0.986c-0.004-0.044-0.001-0.092,0-0.139
	c0.428-0.202,1.02-0.398,1.808-0.599l0.009-0.002c0.72-0.241,1.344-0.284,1.844-0.32c0.461-0.032,0.802-0.062,0.987-0.241
	c0.047,0.02,0.08,0.033,0.099,0.042c0.179,0.168,0.795,0.04,2.426-0.404c0.464-0.127,0.901-0.246,1.165-0.297l0.013-0.002
	l0.013-0.005c0.12-0.054,0.278-0.028,0.446-0.005c0.251,0.04,0.556,0.073,0.802-0.167c0.074,0.001,1.285,0.032,1.285,0.032
	c0.882,0.032,1.792,0.063,2.725-0.021c0.446,0.19,0.984,0.183,1.463,0.173c0.213-0.005,0.409-0.006,0.59,0.008
	c0.002,0.033,0.006,0.074,0.006,0.074l0.213-0.003c0.098,0.001,0.23-0.007,0.319-0.089c0.473,0.123,1.052,0.162,1.615,0.197
	c0.371,0.022,0.72,0.044,1.022,0.09c0.448,0.332,0.929,0.324,1.396,0.309c0.428-0.013,0.831-0.026,1.217,0.214l0.062,0.039
	l0.063-0.038c0.233-0.138,0.338-0.051,0.512,0.093c0.157,0.132,0.354,0.287,0.662,0.208c0.27,0.25,0.553,0.106,0.74,0.006
	c0.096-0.052,0.197-0.105,0.247-0.083c0.022,0.009,0.079,0.054,0.137,0.257l0.022,0.083l0.086,0.006
	c0.061,0.004,0.145,0.037,0.224,0.068c0.159,0.06,0.337,0.13,0.444-0.001l0.065-0.077c0,0-0.072-0.087-0.074-0.091
	c0.021-0.025,0.065-0.082,0.106-0.129l-0.001,0.012c-0.016,0.136,0.009,0.239,0.076,0.313c0.109,0.124,0.297,0.124,0.476,0.123
	c0.297-0.001,0.479,0.012,0.529,0.283l0.06,0.33c0,0,0.175-0.317,0.178-0.322c0.006-0.007,0.026-0.013,0.063-0.02
	c0.026,0.022,0.053,0.045,0.053,0.045l0.05,0.042l-0.005,0.106l0.096,0.04l0.683,0.2c0.483,0.152,0.941,0.293,1.447,0.284
	c0.085,0.16,0.236,0.213,0.354,0.25c0.11,0.033,0.177,0.055,0.206,0.12l0.043,0.086l0.093-0.021c0.21-0.044,0.375,0.069,0.607,0.294
	l0.064,0.061l0.077-0.041c0.07-0.036,0.226,0.059,0.339,0.127c0.15,0.092,0.294,0.178,0.417,0.097
	c0.029-0.018,0.049-0.044,0.065-0.073l0.107,0.049c0.359,0.168,0.811,0.42,1.334,0.75l0.153,0.095l0.004-0.027l0.516,0.257
	c0.285,0.134,0.553,0.262,0.801,0.447l0.025,0.019l0.032,0.004c0.38,0.047,0.602,0.162,0.659,0.337l0.021,0.062l0.048,0.011
	l0.275,0.08C269.815,66.372,269.946,66.397,270.045,66.54 M262.128,64.551l-0.372,0.035l0.011,0.12l0.02,0.22l0.373-0.036
	L262.128,64.551z"/>
<rect x="251.641" y="74.975" transform="matrix(0.9943 -0.1069 0.1069 0.9943 -7.2225 28.4352)" fill="#FFFFFF" width="19.723" height="13.162"/>
<rect x="251.923" y="75.259" transform="matrix(-0.9943 0.1069 -0.1069 -0.9943 530.2231 134.6798)" fill="#164194" width="19.156" height="12.591"/>
<path fill="#FFED00" d="M259.98,85.268l-0.196-0.444l-0.096,0.475l-0.492,0.049l0.428,0.256l-0.104,0.487l0.361-0.331l0.425,0.25
	l-0.203-0.456l0.367-0.341L259.98,85.268z M258.073,83.802l-0.196-0.442l-0.097,0.475l-0.492,0.05l0.426,0.256l-0.103,0.487
	l0.364-0.332l0.425,0.25l-0.205-0.455l0.367-0.343L258.073,83.802z M257.262,82.245l0.425,0.248l-0.206-0.454l0.37-0.344
	l-0.489,0.057l-0.196-0.444l-0.098,0.474l-0.49,0.052l0.426,0.255l-0.104,0.486L257.262,82.245z M257.595,79.084l-0.099,0.474
	l-0.49,0.052l0.426,0.256l-0.104,0.488l0.362-0.331l0.425,0.247l-0.203-0.455l0.366-0.342l-0.488,0.056L257.595,79.084z
	 M258.576,78.742l0.364-0.332l0.425,0.251l-0.206-0.456l0.37-0.342l-0.489,0.057l-0.195-0.444l-0.099,0.473l-0.491,0.052
	l0.427,0.256L258.576,78.742z M262.092,85.654l-0.195-0.442l-0.099,0.475l-0.488,0.049l0.432,0.258l-0.105,0.485L262,86.147
	l0.427,0.248l-0.206-0.455l0.361-0.341L262.092,85.654z M264.073,84.826l-0.196-0.442l-0.096,0.477l-0.49,0.047l0.433,0.258
	l-0.103,0.487l0.362-0.335l0.424,0.246l-0.205-0.452l0.364-0.341L264.073,84.826z M265.626,82.99l-0.195-0.444l-0.099,0.475
	l-0.487,0.052l0.431,0.256l-0.103,0.487l0.361-0.332l0.423,0.244l-0.203-0.452l0.36-0.341L265.626,82.99z M266.373,80.779
	l-0.489,0.055l-0.196-0.442l-0.096,0.475l-0.49,0.049l0.432,0.258l-0.102,0.488l0.361-0.334l0.425,0.245l-0.206-0.453
	L266.373,80.779z M264.539,79.58l0.362-0.334l0.425,0.246l-0.206-0.453l0.362-0.342l-0.49,0.055l-0.196-0.441l-0.097,0.475
	l-0.489,0.049l0.432,0.258L264.539,79.58z M263.233,77.001l-0.096,0.477l-0.49,0.047l0.432,0.258l-0.102,0.488l0.361-0.334
	l0.426,0.245l-0.205-0.451l0.361-0.342l-0.492,0.054L263.233,77.001z M260.985,76.674l-0.1,0.474l-0.488,0.053l0.43,0.254
	l-0.104,0.487l0.362-0.332l0.426,0.248l-0.204-0.455l0.362-0.338l-0.491,0.053L260.985,76.674z"/>
<path fill="#12100B" d="M252.914,90.955c0.164-0.055,0.387-0.102,0.611-0.127c0.352-0.037,0.636-0.018,0.849,0.148
	c0.197,0.135,0.305,0.379,0.333,0.637c0.035,0.328-0.038,0.572-0.179,0.756c-0.168,0.223-0.459,0.346-0.706,0.371
	c-0.041,0.006-0.078,0.01-0.117,0.01l0.12,1.131l-0.59,0.062L252.914,90.955z M253.652,92.271c0.032,0.002,0.063-0.002,0.101-0.006
	c0.296-0.031,0.403-0.256,0.374-0.541c-0.03-0.266-0.16-0.461-0.434-0.432c-0.055,0.006-0.107,0.021-0.142,0.039L253.652,92.271z"/>
<path fill="#12100B" d="M255.508,92.998l-0.06,0.709l-0.571,0.059l0.332-3.104l0.706-0.076l0.916,2.971l-0.572,0.062l-0.204-0.68
	L255.508,92.998z M255.951,92.484l-0.166-0.623c-0.052-0.182-0.125-0.482-0.174-0.68l-0.014,0.002
	c-0.011,0.207-0.023,0.523-0.034,0.703l-0.045,0.645L255.951,92.484z"/>
<path fill="#12100B" d="M256.841,90.531c0.181-0.055,0.413-0.104,0.637-0.128c0.326-0.034,0.624-0.017,0.836,0.139
	c0.202,0.146,0.282,0.343,0.31,0.603c0.036,0.326-0.096,0.637-0.387,0.807l0.001,0.012c0.217,0.061,0.341,0.242,0.433,0.562
	c0.096,0.33,0.217,0.697,0.284,0.803l-0.617,0.068c-0.049-0.084-0.151-0.381-0.232-0.715c-0.094-0.367-0.2-0.465-0.394-0.445
	l-0.09,0.01l0.13,1.211l-0.591,0.064L256.841,90.531z M257.574,91.793l0.107-0.012c0.257-0.027,0.379-0.252,0.35-0.518
	c-0.026-0.262-0.152-0.43-0.412-0.41c-0.054,0.004-0.112,0.018-0.144,0.033L257.574,91.793z"/>
<path fill="#12100B" d="M258.952,90.26l0.589-0.065l0.273,2.537l0.774-0.086l0.053,0.5l-1.364,0.148L258.952,90.26z"/>
<path fill="#12100B" d="M262.123,91.639l-0.689,0.076l0.087,0.818l0.779-0.084l0.055,0.514l-1.367,0.148l-0.327-3.035l1.319-0.144
	l0.055,0.515l-0.73,0.078l0.077,0.697l0.687-0.074L262.123,91.639z"/>
<path fill="#12100B" d="M264.5,91.656c-0.049-0.285-0.108-0.676-0.14-1l-0.01,0.002c-0.019,0.33-0.06,0.713-0.093,0.951
	l-0.148,1.115l-0.416,0.043l-0.365-1.039c-0.085-0.236-0.206-0.607-0.293-0.932h-0.009c0.026,0.334,0.045,0.717,0.064,1.021
	l0.059,1.059l-0.504,0.055l-0.109-3.059l0.626-0.068l0.36,1.074c0.122,0.373,0.235,0.701,0.326,1.039l0.015-0.002
	c0.008-0.342,0.038-0.691,0.074-1.084l0.125-1.122l0.622-0.068l0.51,3.015l-0.526,0.058L264.5,91.656z"/>
<path fill="#12100B" d="M266.758,91.141l-0.686,0.074l0.087,0.82l0.779-0.086l0.055,0.516l-1.369,0.146l-0.325-3.035l1.318-0.143
	l0.056,0.514l-0.73,0.078l0.076,0.697l0.688-0.073L266.758,91.141z"/>
<path fill="#12100B" d="M267.397,92.42l-0.327-3.035l0.541-0.057l0.598,1.138c0.118,0.222,0.305,0.601,0.419,0.853h0.008
	c-0.051-0.318-0.148-0.842-0.209-1.4l-0.072-0.67l0.519-0.057l0.326,3.035l-0.54,0.059l-0.589-1.104
	c-0.13-0.246-0.308-0.619-0.409-0.881l-0.009,0.002c0.052,0.303,0.125,0.77,0.189,1.381l0.074,0.682L267.397,92.42z"/>
<path fill="#12100B" d="M269.78,89.646l-0.536,0.057l-0.059-0.545l1.666-0.18l0.058,0.546l-0.54,0.058l0.268,2.49l-0.59,0.062
	L269.78,89.646z"/>
<path fill="#12100B" d="M273.336,90.433l-0.689,0.073l0.089,0.82l0.779-0.082l0.055,0.512l-1.368,0.146l-0.327-3.033l1.32-0.143
	l0.055,0.513l-0.73,0.078l0.075,0.7l0.689-0.074L273.336,90.433z"/>
<path fill="#12100B" d="M274.219,88.617l0.212,1.971c0.049,0.447,0.192,0.566,0.35,0.551c0.172-0.021,0.28-0.154,0.23-0.613
	l-0.211-1.971l0.589-0.063l0.201,1.867c0.084,0.78-0.168,1.235-0.748,1.296c-0.636,0.068-0.93-0.34-1.012-1.102l-0.203-1.873
	L274.219,88.617z"/>
<path fill="#12100B" d="M275.901,88.48c0.181-0.057,0.414-0.103,0.639-0.127c0.323-0.035,0.623-0.016,0.836,0.138
	c0.201,0.147,0.282,0.343,0.31,0.603c0.036,0.325-0.096,0.635-0.387,0.808l0.001,0.009c0.216,0.064,0.341,0.242,0.434,0.566
	c0.097,0.33,0.217,0.695,0.283,0.801l-0.616,0.068c-0.051-0.082-0.151-0.381-0.232-0.713c-0.096-0.369-0.201-0.469-0.395-0.445
	l-0.09,0.008l0.131,1.211l-0.59,0.064L275.901,88.48z M276.633,89.741l0.108-0.011c0.258-0.029,0.378-0.252,0.35-0.519
	c-0.027-0.261-0.15-0.429-0.411-0.408c-0.055,0.006-0.113,0.017-0.143,0.032L276.633,89.741z"/>
<path fill="#12100B" d="M279.961,89.479c0.123,1.144-0.231,1.652-0.809,1.713c-0.69,0.076-1.038-0.625-1.128-1.459
	c-0.088-0.83,0.163-1.58,0.838-1.652C279.592,88.002,279.886,88.785,279.961,89.479z M278.639,89.676
	c0.073,0.689,0.241,1.025,0.48,1c0.252-0.026,0.298-0.486,0.232-1.103c-0.057-0.531-0.191-1.004-0.459-0.976
	C278.657,88.621,278.569,89.022,278.639,89.676z"/>
<path fill="#12100B" d="M280.181,88.021c0.162-0.054,0.385-0.102,0.61-0.124c0.351-0.039,0.636-0.018,0.85,0.145
	c0.195,0.139,0.304,0.383,0.332,0.639c0.034,0.328-0.038,0.574-0.179,0.756c-0.168,0.223-0.46,0.346-0.707,0.373
	c-0.041,0.004-0.075,0.009-0.117,0.009l0.121,1.13l-0.59,0.062L280.181,88.021z M280.919,89.339
	c0.031,0.002,0.064-0.002,0.099-0.005c0.298-0.033,0.406-0.261,0.374-0.541c-0.028-0.266-0.159-0.46-0.433-0.432
	c-0.055,0.006-0.108,0.019-0.142,0.037L280.919,89.339z"/>
<path fill="#12100B" d="M283.693,89.317l-0.689,0.074l0.088,0.819l0.779-0.082l0.055,0.512l-1.37,0.148l-0.325-3.033l1.319-0.145
	l0.056,0.514l-0.729,0.08l0.075,0.697l0.688-0.074L283.693,89.317z M283.538,86.936l-0.495,0.568l-0.419,0.045L282.937,87
	L283.538,86.936z"/>
<path fill="#12100B" d="M285.465,89.128l-0.688,0.073l0.088,0.82l0.779-0.084l0.056,0.514l-1.369,0.146l-0.326-3.034l1.318-0.143
	l0.055,0.514l-0.73,0.078l0.077,0.699l0.689-0.074L285.465,89.128z"/>
<path fill="#12100B" d="M286.102,90.407l-0.325-3.035l0.54-0.058l0.596,1.139c0.121,0.223,0.306,0.602,0.419,0.852h0.011
	c-0.053-0.318-0.151-0.842-0.211-1.398l-0.071-0.671l0.517-0.056l0.327,3.033l-0.542,0.059l-0.589-1.104
	c-0.13-0.242-0.307-0.617-0.407-0.879h-0.009c0.052,0.306,0.122,0.77,0.189,1.381l0.072,0.682L286.102,90.407z"/>
<path fill="#12100B" d="M90.371,162.389l-0.24-2.294l2.176-0.227l0.24,2.292L90.371,162.389z"/>
</svg>
