<?xml version="1.0" encoding="utf-8"?>
<!-- Generator: Adobe Illustrator 17.1.0, SVG Export Plug-In . SVG Version: 6.00 Build 0)  -->
<!DOCTYPE svg PUBLIC "-//W3C//DTD SVG 1.1//EN" "http://www.w3.org/Graphics/SVG/1.1/DTD/svg11.dtd">
<svg version="1.1" id="CMYK" xmlns="http://www.w3.org/2000/svg" xmlns:xlink="http://www.w3.org/1999/xlink" x="0px" y="0px"
	 viewBox="0 0 841.9 595.3" enable-background="new 0 0 841.9 595.3" xml:space="preserve">
<polygon fill="#FFFFFF" points="835.7,432.6 835.1,427 540.7,458 516.5,228.2 805.4,197.9 830.1,433.2 835.7,432.6 835.1,427 
	835.7,432.6 841.3,432 815.4,185.5 504.2,218.3 530.7,470.3 841.9,437.6 841.3,432 "/>
<g>
	<path fill="#FFFFFF" d="M396.6,468.7l-4.9,0.5l-0.2,5.1l4.8-0.5l-0.2,3.1l-4.9,0.5l-0.5,7.7l-3.2,0.3l0.5-7.7l-6.1,0.6l-0.5,7.7
		l-3.2,0.3l0.5-7.7l-4.9,0.5l0.2-3.1l4.9-0.5l0.3-5.1l-4.9,0.5l0.2-3l4.9-0.5l0.5-7.6l3.2-0.3l-0.5,7.6l6.1-0.6l0.5-7.6l3.2-0.3
		l-0.5,7.6l4.9-0.5L396.6,468.7z M382.4,470.2l-0.3,5.1l6.2-0.6l0.3-5.1L382.4,470.2z"/>
	<path fill="#FFFFFF" d="M400.5,457.8l15.8-1.7l0.5,4.3l-11.1,1.2l0.7,6.4l10.1-1.1l0.5,4.3l-10.1,1.1l0.7,6.7l11.1-1.2l0.5,4.3
		l-15.8,1.7L400.5,457.8z"/>
	<path fill="#FFFFFF" d="M421.4,455.6l13.2-1.4c2.4-0.2,4.5,1.5,4.7,3.8l0.8,7.4c0.2,2.4-1.5,4.5-3.8,4.7l-8.6,0.9l1.1,10l-4.7,0.5
		L421.4,455.6z M434.8,459.6c-0.1-0.6-0.6-1-1.2-0.9l-7.1,0.7l0.8,7.4l7.1-0.7c0.6-0.1,1-0.5,0.9-1.1L434.8,459.6z"/>
	<path fill="#FFFFFF" d="M444.3,470.5c-0.2-2.3,1.1-3,3-4.2c2.4-1.4,3.5-1.9,5.9-3.3c0.5-0.3,0.8-0.6,0.8-1.2l-0.5-4.5
		c-0.1-0.6-0.6-1-1.2-0.9l-3.9,0.4c-0.6,0.1-1,0.5-0.9,1.1l0.2,2.3l-4.6-0.3l-0.3-2.5c-0.2-2.3,1.4-4.3,3.6-4.5l6.8-0.7
		c2.3-0.2,4.3,1.4,4.6,3.7l0.7,6.4c0.2,1.8-0.6,2.6-2.3,3.7c-1.7,1.1-3.8,2.3-6.6,3.9c-0.5,0.3-0.8,0.6-0.8,1.2l0.4,3.7l10.7-1.1
		l0.4,4.1l-15.2,1.6L444.3,470.5z"/>
	<path fill="#FFFFFF" d="M465.3,473.1l-1.9-17.8c-0.2-2.3,1.4-4.3,3.6-4.5l7.5-0.8c2.3-0.2,4.3,1.4,4.6,3.7l1.9,17.8
		c0.2,2.3-1.4,4.3-3.7,4.5l-7.5,0.8C467.5,477.1,465.5,475.4,465.3,473.1z M474.7,455.2c-0.1-0.6-0.6-1-1.2-0.9l-4.6,0.5
		c-0.6,0.1-1,0.5-1,1.1l1.7,15.8c0.1,0.6,0.6,1,1.2,0.9l4.7-0.5c0.6-0.1,1-0.5,0.9-1.1L474.7,455.2z"/>
	<path fill="#FFFFFF" d="M493,448.1l2.7,26l-4.5,0.5l-2.3-21.5l-6.4,2.8l-0.5-4.5l6.4-2.8L493,448.1z"/>
	<path fill="#FFFFFF" d="M498.1,463.5l8.9-16.9l4.5-0.5l1.7,15.8l4.2-0.4l0.1,3.9l-3.9,0.4l0.7,6.3l-4.5,0.5l-0.7-6.3l-10.6,1.1
		L498.1,463.5z M508.7,462.4l-0.9-8.9L503,463L508.7,462.4z"/>
</g>
<path fill="#FFFFFF" d="M503.2,104.7L0,157.5l30,283.6l503.2-52.9L503.2,104.7z M12.7,167.8L493,117.3L520.5,378L40.2,428.4
	L12.7,167.8z"/>
<path fill="#FFFFFF" d="M32.1,218.3l31.3-3.3l0.9,8.5l-22,2.3l1.3,12.8l20.1-2.1l0.9,8.5l-20.1,2.1l1.4,13.3l22-2.3l0.9,8.5
	l-31.3,3.3L32.1,218.3z M45.4,212.6l-4.5-4.3l8.9-9.5l4.6,4.4L45.4,212.6z"/>
<path fill="#FFFFFF" d="M71.2,214.2l9.3-1l4.5,43.1l21.1-2.2l0.9,8.5l-30.4,3.2L71.2,214.2z"/>
<path fill="#FFFFFF" d="M107.8,210.4l31.3-3.3l0.9,8.5l-22,2.3l1.3,12.8l20.1-2.1l0.9,8.5l-20.1,2.1l1.4,13.2l22-2.3l0.9,8.5
	l-31.3,3.3L107.8,210.4z"/>
<path fill="#FFFFFF" d="M175.1,237.4l9.5,0.6l0.8,7.8c0.5,4.7-2.9,8.9-7.6,9.4l-17.4,1.8c-4.7,0.5-8.8-2.9-9.3-7.6l-3.6-34.6
	c-0.5-4.7,2.8-8.9,7.6-9.4l17.4-1.8c4.7-0.5,8.9,2.9,9.4,7.6l0.8,7.4l-9.1,2.5l-0.7-6.9c-0.1-1.2-1.1-1.9-2.3-1.8l-11.6,1.2
	c-1.2,0.1-2,1.1-1.9,2.2l3.2,30.5c0.1,1.2,1.1,1.9,2.3,1.8L174,247c1.2-0.1,2-1.1,1.9-2.2L175.1,237.4z"/>
<path fill="#FFFFFF" d="M184.3,202.4l37.4-3.9l0.9,8.5l-14,1.5l4.5,43.1l-9.3,1l-4.5-43.1l-14,1.5L184.3,202.4z"/>
<path fill="#FFFFFF" d="M241.4,248.5l-9.3,1l-5.4-51.6l9.3-1L241.4,248.5z"/>
<path fill="#FFFFFF" d="M249.5,239.1l-3.6-34.6c-0.5-4.7,2.8-8.9,7.6-9.4l18.2-1.9c4.7-0.5,8.9,2.9,9.4,7.6l3.6,34.6
	c0.5,4.7-2.9,8.9-7.6,9.4l-18.2,1.9C254.1,247.2,250,243.8,249.5,239.1z M271.9,203.8c-0.1-1.2-1.1-1.9-2.3-1.8l-12.4,1.3
	c-1.2,0.1-2,1.1-1.9,2.2l3.2,30.5c0.1,1.2,1.1,1.9,2.3,1.8l12.4-1.3c1.2-0.1,2-1.1,1.9-2.2L271.9,203.8z"/>
<path fill="#FFFFFF" d="M332,239l-9,0.9l-23-31.4l3.5,33.4l-9,0.9l-5.4-51.6l9-0.9l23.1,31.5l-3.5-33.6l9-0.9L332,239z"/>
<path fill="#FFFFFF" d="M346.8,213.1c-4.7-0.9-8.7-2.8-9.2-7.5l-1.1-10.6c-0.5-4.7,2.8-8.9,7.6-9.4l16.4-1.7
	c4.7-0.5,8.9,2.9,9.4,7.6l0.6,6l-9.1,2.5l-0.6-5.6c-0.1-1.2-1.1-1.9-2.3-1.8l-10.6,1.1c-1.2,0.1-2,1.1-1.9,2.2l0.7,6.4
	c0.1,1.2,1.1,1.8,2.3,2c4.7,0.8,8.7,1.4,14.5,2.5c4.5,0.8,8.4,2.8,8.9,7.5l1.2,11.5c0.5,4.7-2.8,8.9-7.6,9.4l-16.7,1.8
	c-4.7,0.5-8.9-2.9-9.4-7.6l-0.6-5.9l9.1-2.5l0.6,5.4c0.1,1.2,1.1,1.9,2.3,1.8l10.9-1.1c1.2-0.1,2-1.1,1.9-2.2l-0.8-7.4
	c-0.1-1.2-1-1.8-2.3-2C355,214.6,352.7,214.2,346.8,213.1z"/>
<path fill="#FFFFFF" d="M39.7,290.6l31.3-3.3l0.9,8.5l-22,2.3l1.3,12.8l20.1-2.1l0.9,8.5l-20.1,2.1l1.4,13.3l22-2.3l0.9,8.5
	l-31.3,3.3L39.7,290.6z"/>
<path fill="#FFFFFF" d="M103.3,283.9l9.3-1l4.5,43.1c0.5,4.7-2.9,8.9-7.6,9.4l-17.4,1.8c-4.7,0.5-8.8-2.9-9.3-7.6l-4.5-43.1l9.3-1
	l4.3,41.1c0.1,1.2,1.1,1.9,2.3,1.8l11.6-1.2c1.2-0.1,2-1.1,1.9-2.2L103.3,283.9z"/>
<path fill="#FFFFFF" d="M143.8,311.7l-9.8,1l2.1,19.9l-9.3,1l-5.4-51.6l27-2.8c4.7-0.5,8.9,2.9,9.4,7.6l1.5,14.6
	c0.4,4-1.9,7.6-5.6,9l12,19.1l-10.2,1.1L143.8,311.7z M148.8,289.8c-0.1-1.2-1.1-1.9-2.3-1.8l-14.9,1.6l1.5,14.6l14.9-1.6
	c1.2-0.1,2-1.1,1.9-2.2L148.8,289.8z"/>
<path fill="#FFFFFF" d="M170.6,320.4l-3.6-34.6c-0.5-4.7,2.8-8.9,7.6-9.4l18.2-1.9c4.7-0.5,8.9,2.9,9.4,7.6l3.6,34.6
	c0.5,4.7-2.9,8.9-7.6,9.4l-18.2,1.9C175.3,328.6,171.1,325.2,170.6,320.4z M193.1,285.2c-0.1-1.2-1.1-1.9-2.3-1.8l-12.4,1.3
	c-1.2,0.1-2,1.1-1.9,2.2l3.2,30.5c0.1,1.2,1.1,1.9,2.3,1.8l12.4-1.3c1.2-0.1,2-1.1,1.9-2.2L193.1,285.2z"/>
<path fill="#FFFFFF" d="M210.1,272.7l26.3-2.8c4.7-0.5,8.9,2.9,9.4,7.6l1.5,14.6c0.5,4.7-2.9,8.9-7.6,9.4l-17,1.8l2.1,19.9l-9.3,1
	L210.1,272.7z"/>
<path fill="#FFFFFF" d="M250.5,268.5l31.3-3.3l0.9,8.5l-22,2.3l1.3,12.8l20.1-2.1l0.9,8.5l-20.1,2.1l1.4,13.2l22-2.3l0.9,8.5
	l-31.3,3.3L250.5,268.5z M263.8,262.8l-4.5-4.3l8.9-9.6l4.6,4.4L263.8,262.8z"/>
<path fill="#FFFFFF" d="M289.4,264.4l31.3-3.3l0.9,8.5l-22,2.3l1.3,12.8l20.1-2.1l0.9,8.5l-20.1,2.1l1.4,13.3l22-2.3l0.9,8.5
	l-31.3,3.3L289.4,264.4z"/>
<path fill="#FFFFFF" d="M371.3,308l-9,0.9l-23-31.4l3.5,33.4l-9,0.9l-5.4-51.6l9-0.9l23.1,31.5l-3.5-33.6l9-0.9L371.3,308z"/>
<path fill="#FFFFFF" d="M417.9,303.1l-9,0.9l-23-31.4l3.5,33.4l-9,0.9l-5.4-51.6l9-0.9l23,31.5l-3.5-33.6l9-0.9L417.9,303.1z"/>
<path fill="#FFFFFF" d="M421.6,250.5l31.3-3.3l0.9,8.5l-22,2.3l1.3,12.8l20.1-2.1l0.9,8.5l-20.1,2.1l1.4,13.2l22-2.3l0.9,8.5
	l-31.3,3.3L421.6,250.5z"/>
<path fill="#FFFFFF" d="M471.5,273.1c-4.7-0.9-8.7-2.8-9.2-7.5l-1.1-10.6c-0.5-4.7,2.8-8.9,7.6-9.4l16.4-1.7
	c4.7-0.5,8.9,2.9,9.4,7.6l0.6,6l-9.1,2.5l-0.6-5.6c-0.1-1.2-1.1-1.9-2.3-1.8l-10.6,1.1c-1.2,0.1-2,1.1-1.9,2.2l0.7,6.4
	c0.1,1.2,1.1,1.8,2.3,2c4.7,0.8,8.7,1.4,14.5,2.5c4.5,0.8,8.4,2.8,8.9,7.5l1.2,11.5c0.5,4.7-2.8,8.9-7.5,9.4l-16.7,1.8
	c-4.7,0.5-8.9-2.9-9.4-7.6l-0.6-5.9l9.1-2.5l0.6,5.4c0.1,1.2,1.1,1.9,2.3,1.8l10.9-1.1c1.2-0.1,2-1.1,1.9-2.2l-0.8-7.4
	c-0.1-1.2-1-1.8-2.3-1.9C479.7,274.6,477.4,274.2,471.5,273.1z"/>
<path fill="#FFFFFF" d="M49.8,397c-0.5-4.5,2.1-6,6-8.2c4.7-2.7,7-3.8,11.6-6.5c1-0.6,1.7-1.3,1.5-2.4L68,371
	c-0.1-1.2-1.1-1.9-2.3-1.8L58,370c-1.2,0.1-2,1.1-1.9,2.2l0.5,4.6l-9.1-0.6l-0.5-5c-0.5-4.5,2.7-8.5,7.2-9l13.4-1.4
	c4.6-0.5,8.6,2.8,9.1,7.3l1.3,12.8c0.4,3.5-1.1,5.2-4.5,7.3c-3.4,2.1-7.6,4.5-13,7.8c-1,0.7-1.7,1.1-1.6,2.3l0.8,7.4l21.2-2.2
	l0.9,8.1l-30.1,3.2L49.8,397z"/>
<path fill="#FFFFFF" d="M87.3,393c-0.5-4.5,2.1-6,6-8.2c4.7-2.7,7-3.8,11.6-6.5c1-0.6,1.7-1.3,1.5-2.4l-0.9-8.8
	c-0.1-1.2-1.1-1.9-2.3-1.8l-7.7,0.8c-1.2,0.1-2,1.1-1.9,2.2l0.5,4.6l-9.1-0.6l-0.5-5c-0.5-4.5,2.7-8.5,7.2-9l13.4-1.4
	c4.6-0.5,8.6,2.8,9.1,7.3l1.3,12.8c0.4,3.5-1.1,5.2-4.5,7.3c-3.4,2.1-7.6,4.5-13.1,7.8c-1,0.7-1.7,1.1-1.6,2.3l0.8,7.4l21.2-2.2
	l0.9,8.1l-30.1,3.2L87.3,393z"/>
<path fill="#FFFFFF" d="M121.9,388.6l-0.8-7.8l19.2-2l0.8,7.8L121.9,388.6z"/>
<path fill="#FFFFFF" d="M147.5,386.7c-0.5-4.5,2.1-6,6-8.2c4.7-2.7,7-3.8,11.6-6.5c1-0.6,1.7-1.3,1.5-2.4l-0.9-8.8
	c-0.1-1.2-1.1-1.9-2.3-1.8l-7.7,0.8c-1.2,0.1-2,1.1-1.9,2.2l0.5,4.6l-9.1-0.6l-0.5-5c-0.5-4.5,2.7-8.5,7.2-9l13.4-1.4
	c4.6-0.5,8.6,2.8,9.1,7.3l1.3,12.8c0.4,3.5-1.1,5.2-4.5,7.3c-3.4,2.1-7.6,4.5-13.1,7.8c-1,0.7-1.7,1.1-1.6,2.3l0.8,7.4l21.2-2.2
	l0.9,8.1l-30.1,3.2L147.5,386.7z"/>
<path fill="#FFFFFF" d="M210.7,345.8l0.9,8.1l-19.8,2.1l1.4,13c4.4-1.2,8.9-2.2,12.7-2.6c5.3-0.6,8.6,2.8,9.1,7.3l1.6,15.4
	c0.5,4.5-2.8,8.5-7.4,9l-14,1.5c-4.5,0.5-8.4-2.8-8.9-7.3l-0.3-2.6l8.7-2.5l0.2,2.1c0.1,1.2,1.1,1.9,2.3,1.8l8.3-0.9
	c1.2-0.1,2-1.1,1.9-2.2l-1.2-11.1c-0.1-1.2-1-1.9-2.3-1.8c-1.9,0.2-5.9,0.9-7.9,1.5c-1.5,0.5-1.9,1.6-1.8,2.8l0.2,2.1l-9,0
	l-3.4-32.7L210.7,345.8z"/>
<path fill="#FFFFFF" d="M245.7,363.1l3.2,30.8l-9,0.9l-5.4-51.6l9-0.9l17.1,30.2l10.5-33.1l9-0.9l5.4,51.6l-9,0.9l-3.2-30.8l-7.5,23
	l-7.9,0.8L245.7,363.1z"/>
<path fill="#FFFFFF" d="M333.9,385l-9.4,1l-4.9-10.8l-17.4,1.8l-2.4,11.6l-9.4,1l12-53.4l8.6-0.9L333.9,385z M304.1,368.4l11.9-1.3
	l-8-19.1L304.1,368.4z"/>
<path fill="#FFFFFF" d="M348.1,383.5l-9.3,1l-5.4-51.6l9.3-1L348.1,383.5z"/>
<path fill="#FFFFFF" d="M368.8,363.5c-0.5-4.5,2.1-6,6-8.2c4.7-2.7,7-3.8,11.6-6.5c1-0.6,1.7-1.3,1.5-2.4l-0.9-8.8
	c-0.1-1.2-1.1-1.9-2.3-1.8l-7.7,0.8c-1.2,0.1-2,1.1-1.9,2.2l0.5,4.6l-9.1-0.6l-0.5-5c-0.5-4.5,2.7-8.5,7.2-9l13.4-1.4
	c4.6-0.5,8.6,2.8,9.1,7.3l1.3,12.8c0.4,3.5-1.1,5.2-4.5,7.3c-3.4,2.1-7.6,4.5-13.1,7.8c-1,0.7-1.7,1.1-1.6,2.3l0.8,7.4l21.2-2.2
	l0.9,8.1l-30.1,3.2L368.8,363.5z"/>
<path fill="#FFFFFF" d="M408,369l-3.7-35.3c-0.5-4.5,2.7-8.5,7.2-9l15-1.6c4.6-0.5,8.6,2.8,9.1,7.3l3.7,35.3c0.5,4.5-2.8,8.5-7.4,9
	l-15,1.6C412.4,376.8,408.5,373.5,408,369z M426.8,333.3c-0.1-1.2-1.1-1.9-2.3-1.8l-9.2,1c-1.2,0.1-2,1.1-1.9,2.2l3.3,31.3
	c0.1,1.2,1.1,1.9,2.3,1.8l9.2-1c1.2-0.1,2-1.1,1.9-2.2L426.8,333.3z"/>
<path fill="#FFFFFF" d="M460.6,319.5l5.4,51.6l-8.9,0.9l-4.5-42.7l-12.7,5.6l-0.9-8.9l12.7-5.6L460.6,319.5z"/>
<path fill="#FFFFFF" d="M468.6,350.3l17.7-33.5l8.9-0.9l3.3,31.3l8.3-0.9l0.2,7.8l-7.7,0.8l1.3,12.6l-8.9,0.9l-1.3-12.6l-21,2.2
	L468.6,350.3z M489.6,348.1l-1.9-17.7l-9.4,18.9L489.6,348.1z"/>
<polygon fill="#FEE900" points="221.3,301.4 229.7,294 239.4,299.5 234.7,289.4 243.2,281.7 232,283 227.6,273.1 225.2,283.7 
	214,284.8 223.7,290.5 "/>
<g>
	<path fill="#FFFFFF" d="M121.6,446.5l3.9-0.4l6.3,16.5l0.8-17.2l4.4-0.5l-1.8,25.3l-4.5,0.5l-6.6-17.4l-2.8,18.4l-4.5,0.5l-7-24.4
		l4.4-0.5l4.4,16.7L121.6,446.5z"/>
	<path fill="#FFFFFF" d="M152.2,443.3l3.9-0.4l6.3,16.5l0.8-17.2l4.4-0.5l-1.8,25.3l-4.5,0.5l-6.6-17.4l-2.8,18.4l-4.5,0.5l-7-24.4
		l4.4-0.5l4.4,16.7L152.2,443.3z"/>
	<path fill="#FFFFFF" d="M182.8,440l3.9-0.4l6.3,16.5l0.8-17.2l4.4-0.5l-1.8,25.3l-4.5,0.5l-6.6-17.4l-2.8,18.4l-4.5,0.5l-7-24.4
		l4.4-0.5l4.4,16.7L182.8,440z"/>
	<path fill="#FFFFFF" d="M210.7,437.1l15.1-1.6l0.4,4.1l-10.6,1.1l0.6,6.2l9.7-1l0.4,4.1l-9.7,1l0.7,6.4l10.6-1.1l0.4,4.1l-15.1,1.6
		L210.7,437.1z"/>
	<path fill="#FFFFFF" d="M231,435l4.5-0.5l2.2,20.8l10.2-1.1l0.4,4.1l-14.6,1.5L231,435z"/>
	<path fill="#FFFFFF" d="M250.1,433l15.1-1.6l0.4,4.1l-10.6,1.1l0.6,6.2l9.7-1l0.4,4.1l-9.7,1l0.7,6.4l10.6-1.1l0.4,4.1l-15.1,1.6
		L250.1,433z"/>
	<path fill="#FFFFFF" d="M284,445.8l4.6,0.3l0.4,3.8c0.2,2.3-1.4,4.3-3.7,4.5l-8.4,0.9c-2.3,0.2-4.3-1.4-4.5-3.7l-1.8-16.7
		c-0.2-2.3,1.4-4.3,3.6-4.5l8.4-0.9c2.3-0.2,4.3,1.4,4.5,3.7l0.4,3.5l-4.4,1.2l-0.4-3.3c-0.1-0.6-0.6-0.9-1.1-0.9l-5.6,0.6
		c-0.6,0.1-1,0.5-0.9,1.1l1.5,14.7c0.1,0.6,0.5,0.9,1.1,0.9l5.6-0.6c0.6-0.1,1-0.5,0.9-1.1L284,445.8z"/>
	<path fill="#FFFFFF" d="M290,428.8l18-1.9l0.4,4.1l-6.8,0.7l2.2,20.8l-4.5,0.5l-2.2-20.8l-6.8,0.7L290,428.8z"/>
	<path fill="#FFFFFF" d="M319,450.9l-4.5,0.5l-2.6-24.9l4.5-0.5L319,450.9z"/>
	<path fill="#FFFFFF" d="M324.3,446.2l-1.7-16.7c-0.2-2.3,1.4-4.3,3.6-4.5l8.8-0.9c2.3-0.2,4.3,1.4,4.5,3.7l1.7,16.7
		c0.2,2.3-1.4,4.3-3.7,4.5l-8.8,0.9C326.5,450.1,324.5,448.5,324.3,446.2z M335.1,429.2c-0.1-0.6-0.5-0.9-1.1-0.9l-6,0.6
		c-0.6,0.1-1,0.5-0.9,1.1l1.5,14.7c0.1,0.6,0.6,0.9,1.1,0.9l6-0.6c0.6-0.1,1-0.5,0.9-1.1L335.1,429.2z"/>
	<path fill="#FFFFFF" d="M365.5,446l-4.3,0.5l-11.1-15.1l1.7,16.1l-4.3,0.5l-2.6-24.9l4.3-0.5l11.1,15.2l-1.7-16.2l4.3-0.5
		L365.5,446z"/>
	<path fill="#FFFFFF" d="M374.1,433.4c-2.3-0.4-4.2-1.3-4.4-3.6l-0.5-5.1c-0.2-2.3,1.4-4.3,3.6-4.5l7.9-0.8c2.3-0.2,4.3,1.4,4.5,3.7
		l0.3,2.9l-4.4,1.2l-0.3-2.7c-0.1-0.6-0.6-0.9-1.1-0.9l-5.1,0.5c-0.6,0.1-1,0.5-0.9,1.1l0.3,3.1c0.1,0.6,0.5,0.9,1.1,1
		c2.3,0.4,4.2,0.7,7,1.2c2.2,0.4,4.1,1.3,4.3,3.6l0.6,5.6c0.2,2.3-1.4,4.3-3.6,4.5l-8.1,0.8c-2.3,0.2-4.3-1.4-4.5-3.7l-0.3-2.8
		l4.4-1.2l0.3,2.6c0.1,0.6,0.6,0.9,1.1,0.9l5.3-0.6c0.6-0.1,1-0.5,0.9-1.1l-0.4-3.6c-0.1-0.6-0.5-0.9-1.1-0.9
		C378.1,434.1,377,433.9,374.1,433.4z"/>
	<path fill="#FFFFFF" d="M391.5,434.7c-0.2-2.2,1-2.9,2.9-4c2.2-1.3,3.4-1.8,5.6-3.1c0.5-0.3,0.8-0.6,0.7-1.2l-0.4-4.3
		c-0.1-0.6-0.6-0.9-1.1-0.9l-3.7,0.4c-0.6,0.1-1,0.5-0.9,1.1l0.2,2.2l-4.4-0.3l-0.3-2.4c-0.2-2.2,1.3-4.1,3.5-4.3l6.5-0.7
		c2.2-0.2,4.1,1.3,4.4,3.5l0.6,6.2c0.2,1.7-0.5,2.5-2.2,3.5c-1.6,1-3.7,2.2-6.3,3.8c-0.5,0.3-0.8,0.5-0.7,1.1l0.4,3.6l10.2-1.1
		l0.4,3.9l-14.5,1.5L391.5,434.7z"/>
	<path fill="#FFFFFF" d="M411.9,437.2l-1.8-17c-0.2-2.2,1.3-4.1,3.5-4.3l7.2-0.8c2.2-0.2,4.1,1.3,4.4,3.5l1.8,17
		c0.2,2.2-1.3,4.1-3.5,4.3l-7.2,0.8C414,440.9,412.1,439.4,411.9,437.2z M420.9,420c-0.1-0.6-0.5-0.9-1.1-0.9l-4.4,0.5
		c-0.6,0.1-1,0.5-0.9,1.1l1.6,15.1c0.1,0.6,0.5,0.9,1.1,0.9l4.4-0.5c0.6-0.1,1-0.5,0.9-1.1L420.9,420z"/>
	<path fill="#FFFFFF" d="M438.7,413.2l2.6,24.9l-4.3,0.4l-2.2-20.6l-6.1,2.7l-0.5-4.3l6.1-2.7L438.7,413.2z"/>
	<path fill="#FFFFFF" d="M444,427.9l8.5-16.2l4.3-0.4l1.6,15.1l4-0.4l0.1,3.8l-3.7,0.4l0.6,6.1l-4.3,0.5l-0.6-6.1l-10.1,1.1
		L444,427.9z M454.1,426.8l-0.9-8.6l-4.6,9.1L454.1,426.8z"/>
	<path fill="#FFFFFF" d="M466.2,435.4l-0.5-5.1l4.9-0.5l0.5,5.1L466.2,435.4z"/>
	<path fill="#FFFFFF" d="M474.2,409.4l15.1-1.6l0.4,4.1l-10.6,1.1l0.6,6.2l9.7-1l0.4,4.1l-9.7,1l0.7,6.4l10.6-1.1l0.4,4.1l-15.1,1.6
		L474.2,409.4z"/>
	<path fill="#FFFFFF" d="M506.4,406.1l4.5-0.5l2.2,20.8c0.2,2.3-1.4,4.3-3.7,4.5l-8.4,0.9c-2.3,0.2-4.3-1.4-4.5-3.7l-2.2-20.8
		l4.5-0.5l2.1,19.8c0.1,0.6,0.6,0.9,1.1,0.9l5.6-0.6c0.6-0.1,1-0.5,0.9-1.1L506.4,406.1z"/>
</g>
<path fill="#FFFFFF" d="M730.2,342l-6.4,0.7l-3.4-7.4l-12,1.3l-1.6,8l-6.4,0.7l8.2-36.7l5.9-0.6L730.2,342z M709.8,330.6l8.2-0.9
	l-5.5-13.1L709.8,330.6z"/>
<path fill="#FFFFFF" d="M742.1,321.7l12.5-1.3l1.4,13c0.3,3.2-2,6.1-5.2,6.5l-12,1.3c-3.2,0.3-6.1-2-6.4-5.2l-2.5-23.7
	c-0.3-3.2,1.9-6.1,5.2-6.5l12-1.3c3.2-0.3,6.1,2,6.5,5.2l0.4,3.9l-6.3,1.7l-0.4-3.6c-0.1-0.8-0.8-1.3-1.6-1.2l-8,0.8
	c-0.8,0.1-1.4,0.7-1.3,1.5l2.2,20.9c0.1,0.8,0.8,1.3,1.6,1.2l8-0.8c0.8-0.1,1.4-0.7,1.3-1.5l-0.6-6l-6.2,0.6L742.1,321.7z"/>
<path fill="#FFFFFF" d="M768.3,337.9l-6.4,0.7l-3.7-35.4l6.4-0.7L768.3,337.9z"/>
<path fill="#FFFFFF" d="M786.1,322.3l-6.7,0.7l1.4,13.7l-6.4,0.7l-3.7-35.4l18.6-2c3.2-0.3,6.1,2,6.5,5.2l1.1,10
	c0.3,2.8-1.3,5.3-3.8,6.2l8.3,13.1l-7,0.7L786.1,322.3z M789.5,307.2c-0.1-0.8-0.8-1.3-1.6-1.2l-10.2,1.1l1.1,10L789,316
	c0.8-0.1,1.4-0.7,1.3-1.5L789.5,307.2z"/>
<path fill="#FFFFFF" d="M805,334.1l-0.8-7.3l6.9-0.7l0.8,7.3L805,334.1z"/>
<path fill="#FFFFFF" d="M662.3,379.2l-6.7,0.7l1.4,13.7l-6.4,0.7l-3.7-35.4l18.6-2c3.2-0.3,6.1,2,6.5,5.2l1.1,10
	c0.3,2.8-1.3,5.2-3.8,6.2l8.3,13.1l-7,0.7L662.3,379.2z M665.8,364.2c-0.1-0.8-0.8-1.3-1.6-1.2L654,364l1.1,10l10.2-1.1
	c0.8-0.1,1.4-0.7,1.3-1.5L665.8,364.2z"/>
<path fill="#FFFFFF" d="M677.7,355.6l21.5-2.3l0.6,5.8l-15.1,1.6l0.9,8.8l13.8-1.5l0.6,5.8l-13.8,1.5l1,9.1l15.1-1.6l0.6,5.8
	l-21.5,2.3L677.7,355.6z M686.9,351.7l-3.1-3l6.1-6.6l3.2,3L686.9,351.7z"/>
<path fill="#FFFFFF" d="M734.8,385.4l-6.4,0.7l-3.4-7.4l-12,1.3l-1.6,8l-6.4,0.7l8.2-36.7l5.9-0.6L734.8,385.4z M714.4,374l8.2-0.9
	l-5.5-13.1L714.4,374z"/>
<path fill="#FFFFFF" d="M746.7,365.1l12.5-1.3l1.4,13c0.3,3.2-2,6.1-5.2,6.5l-12,1.3c-3.2,0.3-6.1-2-6.4-5.2l-2.5-23.7
	c-0.3-3.2,1.9-6.1,5.2-6.5l12-1.3c3.2-0.3,6.1,2,6.5,5.2l0.4,3.9l-6.3,1.7l-0.4-3.6c-0.1-0.8-0.8-1.3-1.6-1.2l-8,0.8
	c-0.8,0.1-1.4,0.7-1.3,1.5l2.2,20.9c0.1,0.8,0.8,1.3,1.6,1.2l8-0.8c0.8-0.1,1.4-0.7,1.3-1.5l-0.6-6l-6.2,0.6L746.7,365.1z"/>
<path fill="#FFFFFF" d="M772.9,381.4l-6.4,0.7l-3.7-35.4l6.4-0.7L772.9,381.4z"/>
<path fill="#FFFFFF" d="M790.7,365.7l-6.7,0.7l1.4,13.7l-6.4,0.7l-3.7-35.4l18.5-2c3.2-0.3,6.1,2,6.5,5.2l1.1,10
	c0.3,2.8-1.3,5.2-3.8,6.2l8.3,13.1l-7,0.7L790.7,365.7z M794.1,350.7c-0.1-0.8-0.8-1.3-1.6-1.2l-10.2,1.1l1.1,10l10.2-1.1
	c0.8-0.1,1.4-0.7,1.3-1.5L794.1,350.7z"/>
<path fill="#FFFFFF" d="M809.5,377.5l-0.8-7.3l6.9-0.7l0.8,7.3L809.5,377.5z"/>
<path fill="#FFFFFF" d="M590.7,444.5l-6.4,0.7l-3.4-7.4l-12,1.3l-1.6,8l-6.4,0.7l8.2-36.7l5.9-0.6L590.7,444.5z M570.3,433.1
	l8.2-0.9l-5.5-13.1L570.3,433.1z"/>
<path fill="#FFFFFF" d="M609.4,430.1l6.5,0.4l0.6,5.4c0.3,3.2-2,6.1-5.2,6.5l-12,1.3c-3.2,0.3-6.1-2-6.4-5.2l-2.5-23.7
	c-0.3-3.2,1.9-6.1,5.2-6.5l12-1.3c3.2-0.3,6.1,2,6.5,5.2l0.5,5l-6.3,1.7l-0.5-4.7c-0.1-0.8-0.8-1.3-1.6-1.2l-8,0.8
	c-0.8,0.1-1.4,0.7-1.3,1.5l2.2,21c0.1,0.8,0.8,1.3,1.6,1.2l8-0.8c0.8-0.1,1.4-0.7,1.3-1.5L609.4,430.1z"/>
<path fill="#FFFFFF" d="M638.4,427.1l6.5,0.4l0.6,5.4c0.3,3.2-2,6.1-5.2,6.5l-12,1.3c-3.2,0.3-6.1-2-6.4-5.2l-2.5-23.7
	c-0.3-3.2,1.9-6.1,5.2-6.5l12-1.3c3.2-0.3,6.1,2,6.5,5.2l0.5,5.1l-6.3,1.7l-0.5-4.7c-0.1-0.8-0.8-1.3-1.6-1.2l-8,0.8
	c-0.8,0.1-1.4,0.7-1.3,1.5l2.2,20.9c0.1,0.8,0.8,1.3,1.6,1.2l8-0.8c0.8-0.1,1.4-0.7,1.3-1.5L638.4,427.1z"/>
<path fill="#FFFFFF" d="M650.7,432.3l-2.5-23.7c-0.3-3.2,1.9-6.1,5.2-6.5l12.5-1.3c3.2-0.3,6.1,2,6.5,5.2l2.5,23.7
	c0.3,3.2-2,6.1-5.2,6.5l-12.5,1.3C653.9,437.8,651.1,435.5,650.7,432.3z M666.1,408.1c-0.1-0.8-0.8-1.3-1.6-1.2l-8.5,0.9
	c-0.8,0.1-1.4,0.7-1.3,1.5l2.2,20.9c0.1,0.8,0.8,1.3,1.6,1.2l8.5-0.9c0.8-0.1,1.4-0.7,1.3-1.5L666.1,408.1z"/>
<path fill="#FFFFFF" d="M685.3,413.1l2.2,21.2l-6.2,0.6l-3.7-35.4l6.2-0.7l11.7,20.7l7.2-22.7l6.2-0.6l3.7,35.4l-6.2,0.7l-2.2-21.2
	l-5.2,15.8l-5.4,0.6L685.3,413.1z"/>
<path fill="#FFFFFF" d="M715,395.6l18-1.9c3.2-0.3,6.1,2,6.5,5.2l1.1,10c0.3,3.2-2,6.1-5.2,6.5l-11.6,1.2l1.4,13.7l-6.4,0.7
	L715,395.6z M733.2,401c-0.1-0.8-0.8-1.3-1.6-1.2l-9.7,1l1.1,10l9.7-1c0.8-0.1,1.4-0.7,1.3-1.5L733.2,401z"/>
<path fill="#FFFFFF" d="M742.6,392.7l6.4-0.7l3.1,29.6l14.5-1.5l0.6,5.9l-20.8,2.2L742.6,392.7z"/>
<path fill="#FFFFFF" d="M777.5,424.8l-6.4,0.7l-3.7-35.4l6.4-0.7L777.5,424.8z"/>
<path fill="#FFFFFF" d="M795.2,409.1l-6.7,0.7l1.4,13.7l-6.4,0.7l-3.7-35.4l18.6-2c3.2-0.3,6.1,2,6.5,5.2l1.1,10
	c0.3,2.8-1.3,5.2-3.8,6.2l8.3,13.1l-7,0.7L795.2,409.1z M798.7,394.1c-0.1-0.8-0.8-1.3-1.6-1.2l-10.2,1.1l1.1,10l10.2-1.1
	c0.8-0.1,1.4-0.7,1.3-1.5L798.7,394.1z"/>
<path fill="#FFFFFF" d="M814.1,421l-0.8-7.3l6.9-0.7l0.8,7.3L814.1,421z"/>
<path fill="#9C9896" d="M649.6,275.4L649.6,275.4c-0.3-0.1-0.5,0.1-0.6,0.2c-0.6-0.6-1.3-0.2-1.7,0c-0.4,0.2-0.6,0.3-0.8,0.2
	c0,0,0,0,0,0l-0.2,0.3c0-0.2-0.1-0.4-0.3-0.7l-0.1-0.1l-1.3-0.2l-0.1,0.2c-0.2,0.7-0.7,0.6-1.5,0.6c-0.6-0.1-1.2-0.1-1.6,0.3
	c-0.1,0-0.8,0.2-0.8,0.2c-0.9,0.2-1.5,0.3-1.9-0.1c0-0.1-0.1-0.2-0.2-0.2l0,0c0,0-0.2,0.1-0.3,0.2c-0.5,0.1-0.9,0.2-1.4,0.3
	c-1.1,0.3-2.1,0.2-2.9-0.2l-0.4-0.2l0,0.5c0,0,0,0.1-0.1,0.1c0,0-0.1,0-0.1,0c-1.3,0.3-2.5,0.6-3.1-0.5l-0.5,0.2c0,0,0,0,0,0.1l0,0
	c0,0,0,0,0,0.1c0.1,0.1,0.2,0.3,0.2,0.3c0.1,0.1,0.2,0.2,0.2,0.3c0,0,0,0,0,0c-0.1,0-0.2,0-0.2,0c-0.3,0-0.4,0-0.5-0.1l-0.1-0.1
	l-0.2,0l-0.7,0c-0.6,0-1.2,0-1.8,0.5c-5.8,0.7-10.8,1.2-15.7,1.6l-2.1,0.2l0.2,1.5c0.8-0.2,1.6-0.3,2.5,0l0.4,0.2c0,0,0-0.2,0-0.3
	c1.7-0.4,3.4-0.5,5-0.6l2.7-0.2l0.1-0.1c0.1-0.1,0.1-0.1,0.4,0c0.2,0.1,0.4,0.3,0.7,0.2c0.1,0,0.2-0.2,0.3-0.3
	c0.8,0.2,1.6,0.1,2.3,0c0.7-0.1,1.3-0.2,1.9,0l0.4,0.1c0,0,0-0.3,0-0.4c0.5-0.1,6.1-0.7,6.1-0.7l0.1-0.1c0.6-0.5,1-0.7,1.3-0.3
	l0.3,0.3l0.2-0.3l0.2-0.4c0-0.1,0.1-0.2,0.1-0.2c0,0,0.1,0,0.1,0c0.1,0,0.1,0.1,0.2,0.2c0,0,0,0,0,0l0.1,0.2c0,0,0,0,0,0
	c0,0.1,0.1,0.5,0.1,0.5s0.1-0.2,0.2-0.3c0,0,0.2,0,0.2,0s0-0.2,0-0.2c0,0,0,0,0,0c0,0,0,0,0,0l0.4,0.3l0.1-0.1
	c1.1-0.6,3.1-1.1,4.5-0.2l0.4,0.2c0,0,0.1-0.7,0.1-0.9c1.3,0.1,2.5,0.1,3.7-0.2l0.2,0l0-0.2c0-0.2,0.1-0.3,0.1-0.3
	c0.2-0.1,0.5-0.1,0.8,0c0.4,0.1,0.7,0.1,0.9-0.1c0-0.1,0.1-0.1,0.1-0.2c0.1,0,0.1,0.1,0.2,0.1c0.3,0.1,0.7,0.2,1.3,0.2l0.1,0
	l0.1-0.1c0.1-0.2,0.2-0.2,0.2-0.2c0,0,0.2,0.1,0.3,0.2c0.2,0.2,0.4,0.4,0.7,0.3l0.2,0l0.1-0.2c0-0.1,0-0.1,0-0.2c0,0,0-0.1,0-0.1
	c0.2-0.1,0.7-0.5,0.7-0.5L649.6,275.4z M555,272.7c1.2,0.5,1.9,1,2.3,1.6l0.6,0.9l-0.2-1.9l0-0.1c-0.5-0.7-1.4-1-2.1-1.3
	c0,0-0.1,0-0.1,0c-0.8-0.9-2.4-1.5-3.5-1.8l-0.1,0l-0.1,0c-0.3,0-0.7,0.1-1,0.3c-0.5-0.4-1.1-0.4-1.8-0.3c-0.5,0.1-0.9,0.1-1.4,0
	l-0.1,0l-0.1,0c-0.3,0.1-0.5,0.3-0.8,0.4c-0.3,0.2-0.5,0.4-0.8,0.3l-0.1,0l-0.1,0c-0.4,0.1-0.6,0.3-0.6,0.5c-0.1,0.5,0.3,1,0.6,1.4
	l0.1,0.1l0.2-0.1c1.5-0.7,2.4-0.7,3.9-0.7l0,0l0,0c1.2-0.2,2.2,0.1,3.3,0.4C553.9,272.5,554.4,272.6,555,272.7 M650.4,276l-0.1,0.5
	l0.4,0.1l0.3-0.5l-0.2-0.2L650.4,276z M652.5,275.8c-0.1,0-0.1-0.1-0.2-0.2c0,0-0.1,0-0.1-0.1l0.4-0.5l-1.7,0.1l0,0.3l0.1,0.9l0.3,0
	c0.1,0,0.3,0,0.4,0.1c0.3,0.1,0.8,0.3,1.1-0.2l0.2-0.4L652.5,275.8z M563.1,284.3c-1.2,0.2-2.4,0.4-3.6,0.1l-0.2,0l-0.1,0.1
	c-0.1,0.1-0.3,0.2-0.4,0.3c-0.2,0.1-0.4,0.2-0.6,0.4c-0.7-0.6-1.4-0.2-1.9,0.1c-0.6,0.3-1,0.5-1.4,0.1l-0.2,0.1l-0.2,0.2
	c0.1,0.6,0.5,0.6,0.8,0.6c0.2,0,0.3,0,0.4,0.2l0.1,0.2l0.2-0.1l0.9-0.3c0.5-0.2,1-0.4,1.3-0.2l0.1,0.1l0.1,0c1-0.4,2.1-0.4,3.3-0.4
	c1.2,0,2.4,0,3.5-0.4l-0.2-1.5C564.4,284.1,563.7,284.2,563.1,284.3 M603.5,257.1c-0.6-0.7-1.3-1.1-2-1.5c-0.6-0.4-1.2-0.7-1.7-1.2
	c0,0,0,0,0,0c0-0.1,0-0.1,0.2-0.2c0.2-0.1,0.5-0.3,0.6-0.6l0.1-0.4h-0.4c-1.6,0-3.2,0-4.5-0.8l-0.1,0l-0.1,0
	c-0.6-0.1-0.7-0.4-0.9-0.9c-0.1-0.3-0.2-0.6-0.5-0.8c-0.2-0.1-0.6-0.1-0.9,0.1c-0.4-0.5-1-0.7-1.5-0.9c-0.6-0.2-1-0.3-1.1-0.8
	l-0.1-0.5l-0.3,0.3c-0.3,0.3-0.3,0.2-0.6,0c-0.1-0.1-0.2-0.2-0.4-0.3l0,0l0-0.5c0,0,0,0,0,0v0l-0.7-0.1c-0.5-0.1-1-0.1-1.6,0
	c-0.3,0-0.6-0.2-0.9-0.4c-0.4-0.3-0.9-0.6-1.5-0.2c0,0-0.1-0.1-0.1-0.1c0.3-0.7,0.9-1.1,1.5-1.5c0.6-0.4,1.2-0.8,1.5-1.4l-0.4-0.3
	c-0.4,0.4-0.9,0.8-1.4,1.1c-0.5,0.3-1,0.6-1.5,1.1c-0.1,0-0.2,0-0.4,0c-0.2-0.1-0.5-0.1-0.7,0c-0.1,0.1-0.2,0.1-0.2,0.2
	c-0.1,0-0.2-0.1-0.3-0.2c0,0-0.2-0.1-0.3-0.2c-0.3-0.5-0.9-0.5-1.4-0.5c-0.7,0-1.3,0-1.6-0.9l0-0.1l0,0c-0.2-0.2-0.4-0.3-0.7-0.2
	c-0.2,0.1-0.4,0.3-0.5,0.6c0,0,0,0-0.1,0c0-0.1,0.1-0.4,0.2-0.5l0.4-0.4l-0.5-0.1l-0.5-0.1c-0.6-0.1-1.2-0.1-1.8,0.2
	c0,0-0.1,0-0.1,0c-0.3-0.1-0.4-0.1-0.4-0.3c0,0,0-0.1,0-0.2l0.1-0.2l-0.2-0.1c-0.4-0.2-0.9-0.1-1.3-0.1c-0.6,0.1-0.7,0-0.7-0.2
	l0-0.3l-0.3,0.1c-0.6,0.1-1.1,0-1.7-0.2c-0.7-0.2-1.4-0.4-2.1,0l0,0c-0.3,0.1-0.4,0-0.6-0.3c-0.1-0.2-0.2-0.4-0.5-0.6l-0.2-0.1
	c0,0-0.6,0.5-0.8,0.6c-0.3-0.2-0.7-0.3-1-0.5l-0.8-0.3l-0.1,0c-0.4,0.2-0.9,0.1-1.4-0.1c-0.5-0.1-1-0.2-1.5-0.1c0,0,0-0.1,0-0.1
	s-1.5,0.1-1.6,0.2c-0.9-0.4-1.7-0.4-2.6-0.3c-0.9,0.1-1.7,0.2-2.5-0.4l-0.3-0.2l-0.1,0.3c-0.1,0.2-0.2,0.2-0.5,0.2l-0.4,0.1l0,0
	c-0.3,0.1-0.7,0-0.9-0.2c-0.3-0.3-0.5-0.7-0.4-1.1l0.2-0.9l-0.6,0.6c-0.2,0.2-0.3,0.5-0.3,0.8c-0.1,0.3-0.1,0.5-0.3,0.6
	c-0.1,0-2.5,0.4-2.5,0.4c-2.7,0.4-5.5,0.7-8.2,1.7l-0.1,0l-0.1,0.1c-0.4,0.6-0.5,1.1-0.5,1.4c0,0.3,0.2,0.5,0.3,0.7l0.1,0.1l5.8-0.5
	c0.6,0,1.2-0.1,1.7-0.1c0.8-0.1,1.6-0.2,2.4,0.1c-0.5,2.4-1.2,4.5-2,6.1l0,0.1l0,0.1c0,0.1,0,0.1,0,0.2c0.1,1-0.3,2.1-0.7,3.1
	c-0.3,0.8-0.6,1.5-0.7,2.3c-0.1,0.5-0.2,1-0.2,1.5c-0.1,0.9-0.2,1.8-0.6,2.5l-0.1,0.1l0.1,0.1c0,0.1,0.1,0.2,0.1,0.3
	c0.1,0.5-0.2,1.2-0.3,1.6l-0.1,0.3c0,0-0.1,0.7-0.1,0.7c-0.1,0.5-0.2,1.1-0.2,1.6c0,0.4,0.2,0.8,0.5,1l0.2,0.2l0.2-0.2
	c0.4-0.5,0.6-1.1,0.7-1.7c0.1-0.5,0.2-1,0.5-1.4l0.1-0.1l-0.1-0.1c-0.1-0.1-0.1-0.3-0.1-0.4c0-0.4,0.1-0.7,0.3-1.1
	c0.2-0.4,0.4-0.7,0.3-1.1c0-0.1,0-0.1,0-0.2c0-0.5,0.2-0.9,0.3-1.4c0.2-0.5,0.3-1,0.3-1.4c0.3-0.5,0.3-1,0.4-1.5
	c0.1-0.5,0.1-0.9,0.3-1.2l0,0l0-0.1c0.1-1.2,0.5-2.4,0.8-3.5c0.3-1.1,0.7-2.3,0.8-3.5c0.1-0.2,0.1-0.5,0.1-0.8
	c0-0.6,0.1-0.8,0.4-0.9l0.2,0l0-0.3c0,0,0-0.1,0-0.1c0-0.1,0-0.2-0.1-0.3c0.1-0.1,0.2-0.2,0.2-0.3c4-0.1,8.3,0.4,12.1,0.9l0.2,0
	c1.8,0.2,3.6,0.5,5.4,0.8c1.8,0.3,3.5,0.6,5.1,0.8c0,0.1,0,0.2,0,0.2s1.3,0.1,1.4,0.1c0.6,0.4,1.2,0.5,1.8,0.6
	c0.5,0.1,1,0.2,1.5,0.5c-0.3,0.2-0.5,0.6-0.5,1c-1.1,0.5-2.5,1.4-3.3,2.5c-0.1,0.1-0.2,0.1-0.4,0.1c-0.3,0-0.9,0-0.9,0.7v0.1
	c-0.4,0-0.5,0.3-0.6,0.5c0,0.1-0.1,0.2-0.1,0.2c-0.2-0.1-0.4-0.1-0.5-0.1l-0.2,0l-0.1,0.1c-0.6,1-1.6,1.7-2.7,2.4
	c-1.1,0.7-2.2,1.4-2.8,2.5c-1.7,0.7-2.9,1.8-4.1,2.8c-0.9,0.8-1.8,1.6-3,2.3l0.2,0.5c1.2-0.3,2.7-1.3,3.3-2.3l0,0c0,0,0,0,0-0.1
	c0,0,0.1,0,0.1,0l0.6,0.1l0-0.1c0.9-1,1.6-1.6,2.7-2.2l0,0l0,0c1.2-1.1,2.4-2,3.6-2.9c1.4-1,2.7-2,3.9-3.2l0.3-0.3l-0.2,0
	c0.5-0.2,1-0.5,1.4-0.9c0.3-0.2,0.8-0.6,1-0.6c0,0,0-0.1,0.1-0.2c0.7-0.3,1.1-0.8,1.6-1.2c0,0,0.1-0.1,0.1-0.1c0,0,0,0,0,0l0.2-0.1
	c0,0,0-0.1,0-0.1c0.3-0.3,0.5-0.5,0.8-0.7c0,0,0.2-0.1,0.3-0.1c0.2,0,0.6,0.1,0.6,0.1c0.8,0,1.7,0.1,2.2,0.8l0.3,0.3
	c0,0,0.2-0.4,0.2-0.4c0.2,0,0.4,0,0.5,0.2l0.1,0.1l0.2,0c0.5-0.1,0.9,0,1.3,0.2c0.4,0.2,0.9,0.4,1.4,0.3c1.2,0.8,2.7,1.2,3.9,1.5
	c0.1,0,0.2,0.1,0.2,0.1c0.1,0.1,0.3,0.2,0.3,0.3l0,0.3l0.3-0.1c0.7-0.2,1.5,0.4,2.3,1l0,0l0,0c0.3,0.1,0.6,0.1,0.8,0.1
	c0.5,0,0.8,0.1,1,0.3c0,0.1-0.1,0.1-0.1,0.1c0,0-0.2-0.1-0.3-0.1c-0.2-0.1-0.4-0.2-0.7-0.1c-0.2,0.1-0.3,0.4-0.4,0.6
	c-0.2,0.1-5.2,2.3-5.2,2.3c-7.7,3.5-14.9,6.8-22,11.8l7.8-0.8c0.4-0.3,0.9-0.4,1.5-0.4l0.1,0l0.1-0.1c0.5-0.5,1.1-0.8,1.7-1.1
	c0.7-0.4,1.4-0.7,1.9-1.3c0.2,0.1,0.8,0.6,0.8,0.6l0.1-0.5c0.1-0.6,0.4-0.7,1.1-0.9c0.5-0.1,1-0.2,1.3-0.7c0.2-0.2,0.3-0.1,0.6,0
	c0.2,0.1,0.4,0.1,0.7,0.1l0.1,0l0.2-0.3c0.2-0.2,0.4-0.4,0.5-0.7c0.7-0.2,1.4-0.7,2.1-1.1c0.9-0.6,1.7-1.2,2.4-1l0.2-0.5
	c0,0-0.1-0.1-0.3-0.2c0,0,0.1,0,0.2,0l0.5-0.1l0,0c0.3-0.2,0.6-0.4,0.9-0.5c0.5-0.2,1-0.4,1.5-1.1c0.7-0.1,1.2-0.5,1.6-0.8
	c0.2-0.2,0.4-0.3,0.6-0.4c0,0,1.9-0.4,1.9-0.4l0.3-0.1l0-0.3c0,0,0,0,0-0.1c0-0.3,0.1-0.3,0.6-0.4c0.2,0,0.4-0.1,0.5-0.2
	c0.1,0.1,0.2,0.1,0.2,0.1c0.1,0.1,0.2,0.1,0.2,0.2c0,0,0,0,0,0l0,0.3l0.3,0c0.9,0.2,1.8,0.8,2.7,1.3l1.5,0.9l0.1-0.1
	c0.1-0.1,0.2-0.1,0.2-0.1c0,0,0.1,0.1,0.1,0.1c0.1,0.2,0.3,0.6,0.8,0.5l0.3,0l-0.1-0.3C605.1,258.1,604.7,257.3,603.5,257.1
	 M649.9,275.4c0.1,0.1,0.3,0.4,0.7,0.2l0.2-0.1l-0.1-0.8l-0.9,0.1l-0.1,0.5C649.9,275.3,649.9,275.3,649.9,275.4 M611.1,249.7
	l-0.8,0.1l0,0.3l0,0.5l0.8-0.1L611.1,249.7z M606.1,248L606.1,248L606.1,248c0.8,0.7,1.7,1.1,2.6,1.5l1.2,0.5l0.3-0.5l-1.6-1.1
	c-1.2-0.8-2.5-1.6-3.7-2.3c0,0,0,0,0,0l-0.4-0.3c0,0,0,0.1-0.1,0.1c0,0-0.1-0.1-0.1-0.1c-0.1-0.1-0.4-0.3-0.7-0.3
	c-0.4-0.7-1.1-0.7-1.7-0.8c-0.4,0-0.7,0-0.9-0.2c0-0.1-0.1-0.1-0.1-0.2c0-0.1,0-0.2,0-0.3l-0.5-0.1l-0.3,0.7l-0.1,0.1l0-0.2
	c0.1-0.4-0.2-0.7-0.4-0.8c-0.1-0.1-0.2-0.2-0.2-0.2l0-0.3l-0.3,0c-0.4,0-0.7-0.1-1-0.3c-0.4-0.2-0.8-0.5-1.5-0.3l-0.2,0
	c0-0.1,0-0.3,0-0.4l0-0.3l-0.3,0c-0.9,0.1-1.9-0.7-2.6-1.3l-0.6-0.5l-0.1,0c0,0-0.4,0-0.6,0.1c-0.1-0.1-0.1-0.1-0.1-0.1s0,0,0,0
	c0-0.1,0.1-0.3,0.1-0.3l-1,0.1c0,0,0,0.3,0,0.3c0,0,0,0-0.1,0c-0.7-1-1.6-0.9-2.4-0.8c-0.5,0.1-1,0.1-1.5,0
	c-0.1-0.1-0.2-0.2-0.3-0.4l-0.2-0.4l-0.1,0c-0.8-0.4-1.7-0.6-2.5-0.8l-1.1-0.3l0,0l-0.2-0.1c-0.4-0.2-0.8-0.3-1.2-0.5
	c-0.6-0.2-1.1-0.4-1.5-0.7l-0.2-0.2c0,0-0.3,0.2-0.4,0.3c-0.3,0.1-0.5,0.1-0.6,0c-0.1-0.1-0.2-0.2-0.3-0.4l-0.1-0.6l-0.4,0.5
	c-0.2,0.2-0.2,0.2-0.3,0.2l0.1,0l-0.4-0.2c0,0-0.1-0.1-0.2-0.1c0,0,0.1-0.3,0.1-0.3l-0.3-0.1l-0.3-0.1c-0.3-0.1-0.8-0.2-1.2,0.1
	c-0.2-0.2-0.5-0.6-0.5-0.6l-0.2,0c-0.1,0-0.4,0-0.6,0.3c-0.2,0-0.4,0-0.6,0.1c-0.8,0.1-1.1,0.1-1.3-0.3l-0.2-0.5l-0.3,0.4
	c-0.1,0.1-0.1,0.1-0.1,0.1c0,0-0.1-0.1-0.1-0.1c-0.1-0.2-0.3-0.4-0.5-0.5c-0.2-0.1-0.3-0.3-0.6-0.2c-0.2,0.1-0.3,0.3-0.4,0.4
	c-0.1,0.3-0.1,0.3-0.2,0.2c0,0,0,0,0,0c0-0.1,0.2-0.6,0.2-0.6l-0.6,0.3c-0.2,0.1-0.5,0-0.6-0.1c0,0,0.1,0.1,0,0.2l-0.3-0.4
	c-0.8,0.4-1.7,0.1-2.6-0.1c-0.6-0.2-1.2-0.3-1.8-0.3c0-0.1,0-0.2,0-0.2l-0.3,0c-1.1,0.2-2,0.1-2.8-0.2l-0.1,0l-0.1,0
	c-0.8,0.3-1.8,0.2-2.7,0.1c-0.9-0.1-1.9-0.2-2.7,0.1c-0.6-0.6-1.3-0.3-1.7,0c-0.4,0.2-0.6,0.3-0.8,0.1c0,0,0-0.3,0-0.3l-2.8,0.1
	c-1.4,0.1-2.9,0.2-4.3,0.2l-0.1,0l0,0l-0.6,0.2c-0.5,0.2-0.8,0.3-1.1,0.1l-0.2-0.3c0,0-0.4,0.5-0.5,0.6c-0.6,0-1.5,0.2-2.5,0.4
	c-1.3,0.3-2.8,0.6-3.3,0.4l0,0l0,0c-1.2-0.1-2.3,0.3-3.4,0.7c-0.8,0.3-1.6,0.5-2.4,0.7c0,0,0,0,0,0c-0.3-0.3-1.1-0.1-4.2,1
	c0,0-0.7,0.3-1.1,0.4c-0.1-0.3-0.2-0.6-0.4-0.8c-0.2-0.2-0.2-0.3-0.2-0.4c0-0.1,0-0.2,0.1-0.3l0.3-0.4l-0.5-0.1c0,0-0.1-0.2-0.1-0.2
	l0-0.1l-0.1-0.1l-0.2-0.2c-0.3-0.2-0.7-0.5-1.1-0.2l-0.2,0.1l1.1,2.5c0.6,1.2,1.1,2.4,1.4,3.7l0,0l0,0c1.1,1.9,1.8,3.8,2.7,6
	l0.2,0.5c0,0,0.6,1.5,0.6,1.5c0.3,1,0.7,2,1.5,2.9c0.5,1,0.8,1.9,1.1,2.8c0.3,1,0.7,2,1.3,3.2c0.6,1,1.1,2.1,1.6,3.2
	c0.5,1,1,2,1.5,2.9c0,0.1,0,0.2,0,0.3c0.1,0.6,0.6,0.9,1,1.2c0.2,0.1,0.4,0.2,0.5,0.3c0.1,0.1,0.2,0.2,0.2,0.2c0,0,0,0,0,0
	c0.1,0.1,0.2,0.3,0.2,0.5c0,0,0,0,0,0.1h0.5c0,0,0,0,0,0l0,0c0,0,0,0,0,0c0-0.1,0-0.1,0-0.2c0-0.4-0.2-0.5-0.4-0.7
	c-0.1-0.1-0.1-0.2-0.2-0.2c0,0,0-0.1-0.1-0.1c0.1-0.1,0.1-0.2,0.1-0.4c0,0,0-0.1,0-0.1c-0.1-0.3-0.3-0.3-0.5-0.4
	c-0.1,0-0.3-0.1-0.4-0.2c0.1,0,0.3,0,0.5-0.1l0.2-0.5l-0.1,0c-0.2-0.3-0.4-0.4-0.6-0.5c0,0-0.1,0-0.1-0.1c0,0,0,0,0,0l0-0.1
	c0-0.2,0-0.4,0-0.6c-0.1-0.5-0.2-1.1-0.6-1.4c-0.2-0.1-0.3-0.2-0.5-0.3c0.1-0.2,0.3-0.6,0.3-0.6s-0.6-0.4-0.8-0.5c0,0,0-0.1,0-0.1
	l0-0.1c0-0.1,0-0.1,0-0.2c-0.1-0.8-0.5-1.5-0.9-2.3c-0.3-0.5-0.5-1-0.7-1.5l0,0l-1.2-2.8c-0.9-2.2-1.8-4.2-3.2-6.4
	c0,0-0.2-0.8-0.2-0.8c-0.1-0.5-0.2-1-0.7-1.4c0-0.1,0-0.2,0-0.4c-0.1-0.9-0.6-1.7-1.1-2.5c-0.5-0.7-1-1.4-1.1-2.2c0-0.1,0-0.2,0-0.3
	c1-0.5,2.3-0.9,4.1-1.3l0,0c1.6-0.5,3-0.6,4.1-0.7c1-0.1,1.8-0.1,2.2-0.5c0.1,0,0.2,0.1,0.2,0.1c0.4,0.4,1.8,0.1,5.4-0.9
	c1-0.3,2-0.6,2.6-0.7l0,0l0,0c0.3-0.1,0.6-0.1,1,0c0.6,0.1,1.2,0.2,1.8-0.4c0.2,0,2.9,0.1,2.9,0.1c2,0.1,4,0.1,6.1,0
	c1,0.4,2.2,0.4,3.3,0.4c0.5,0,0.9,0,1.3,0c0,0.1,0,0.2,0,0.2l0.5,0c0.2,0,0.5,0,0.7-0.2c1.1,0.3,2.4,0.4,3.6,0.4
	c0.8,0,1.6,0.1,2.3,0.2c1,0.7,2.1,0.7,3.1,0.7c1,0,1.9-0.1,2.7,0.5l0.1,0.1l0.1-0.1c0.5-0.3,0.8-0.1,1.1,0.2
	c0.4,0.3,0.8,0.6,1.5,0.5c0.6,0.6,1.2,0.2,1.7,0c0.2-0.1,0.4-0.2,0.6-0.2c0,0,0.2,0.1,0.3,0.6l0,0.2l0.2,0c0.1,0,0.3,0.1,0.5,0.2
	c0.4,0.1,0.8,0.3,1,0l0.1-0.2c0,0-0.2-0.2-0.2-0.2c0-0.1,0.1-0.2,0.2-0.3l0,0c0,0.3,0,0.5,0.2,0.7c0.2,0.3,0.7,0.3,1.1,0.3
	c0.7,0,1.1,0,1.2,0.6l0.1,0.7c0,0,0.4-0.7,0.4-0.7c0,0,0.1,0,0.1,0c0.1,0,0.1,0.1,0.1,0.1l0.1,0.1l0,0.2l0.2,0.1l1.5,0.4
	c1.1,0.3,2.1,0.7,3.2,0.6c0.2,0.4,0.5,0.5,0.8,0.6c0.2,0.1,0.4,0.1,0.5,0.3l0.1,0.2l0.2,0c0.5-0.1,0.8,0.2,1.4,0.7l0.1,0.1l0.2-0.1
	c0.2-0.1,0.5,0.1,0.8,0.3c0.3,0.2,0.7,0.4,0.9,0.2c0.1,0,0.1-0.1,0.1-0.2l0.2,0.1c0.8,0.4,1.8,0.9,3,1.7l0.3,0.2l0-0.1l1.2,0.6
	c0.6,0.3,1.2,0.6,1.8,1l0.1,0l0.1,0c0.9,0.1,1.4,0.4,1.5,0.8l0,0.1l0.1,0l0.6,0.2C605.6,247.6,605.9,247.7,606.1,248 M588.4,243.5
	l-0.8,0.1l0,0.3l0,0.5l0.8-0.1L588.4,243.5z"/>
<rect x="564.8" y="266.9" transform="matrix(-0.9943 0.1069 -0.1069 -0.9943 1200.7072 499.07)" fill="#FFFFFF" width="44.3" height="29.5"/>
<rect x="565.4" y="267.5" transform="matrix(0.9943 -0.1069 0.1069 0.9943 -26.7448 64.3567)" fill="#164194" width="43" height="28.3"/>
<path fill="#FFED00" d="M583.5,290l-0.4-1l-0.2,1.1l-1.1,0.1l1,0.6l-0.2,1.1l0.8-0.7l1,0.6l-0.5-1l0.8-0.8L583.5,290z M579.3,286.7
	l-0.4-1l-0.2,1.1l-1.1,0.1l1,0.6l-0.2,1.1l0.8-0.7l1,0.6l-0.5-1l0.8-0.8L579.3,286.7z M577.4,283.2l1,0.6l-0.5-1l0.8-0.8l-1.1,0.1
	l-0.4-1l-0.2,1.1l-1.1,0.1l1,0.6l-0.2,1.1L577.4,283.2z M578.2,276.1l-0.2,1.1l-1.1,0.1l1,0.6l-0.2,1.1l0.8-0.7l1,0.6l-0.5-1
	l0.8-0.8l-1.1,0.1L578.2,276.1z M580.4,275.4l0.8-0.7l1,0.6l-0.5-1l0.8-0.8l-1.1,0.1l-0.4-1l-0.2,1.1l-1.1,0.1l1,0.6L580.4,275.4z
	 M588.3,290.9l-0.4-1l-0.2,1.1l-1.1,0.1l1,0.6l-0.2,1.1l0.8-0.7l1,0.6l-0.5-1l0.8-0.8L588.3,290.9z M592.7,289l-0.4-1l-0.2,1.1
	l-1.1,0.1l1,0.6l-0.2,1.1l0.8-0.8l1,0.6l-0.5-1l0.8-0.8L592.7,289z M596.2,284.9l-0.4-1l-0.2,1.1l-1.1,0.1l1,0.6l-0.2,1.1l0.8-0.7
	l0.9,0.5l-0.5-1l0.8-0.8L596.2,284.9z M597.9,279.9l-1.1,0.1l-0.4-1l-0.2,1.1l-1.1,0.1l1,0.6l-0.2,1.1l0.8-0.7l1,0.5l-0.5-1
	L597.9,279.9z M593.8,277.2l0.8-0.7l1,0.6l-0.5-1l0.8-0.8l-1.1,0.1l-0.4-1l-0.2,1.1l-1.1,0.1l1,0.6L593.8,277.2z M590.9,271.5
	l-0.2,1.1l-1.1,0.1l1,0.6l-0.2,1.1l0.8-0.7l1,0.5l-0.5-1l0.8-0.8l-1.1,0.1L590.9,271.5z M585.8,270.7l-0.2,1.1l-1.1,0.1l1,0.6
	l-0.2,1.1l0.8-0.7l1,0.6l-0.5-1l0.8-0.8l-1.1,0.1L585.8,270.7z"/>
<path fill="#FFFFFF" d="M567.7,302.8c0.4-0.1,0.9-0.2,1.4-0.3c0.8-0.1,1.4,0,1.9,0.3c0.4,0.3,0.7,0.9,0.7,1.4
	c0.1,0.7-0.1,1.3-0.4,1.7c-0.4,0.5-1,0.8-1.6,0.8c-0.1,0-0.2,0-0.3,0l0.3,2.5l-1.3,0.1L567.7,302.8z M569.3,305.7c0.1,0,0.1,0,0.2,0
	c0.7-0.1,0.9-0.6,0.8-1.2c-0.1-0.6-0.4-1-1-1c-0.1,0-0.2,0-0.3,0.1L569.3,305.7z"/>
<path fill="#FFFFFF" d="M573.5,307.4l-0.1,1.6l-1.3,0.1l0.7-7l1.6-0.2l2.1,6.7l-1.3,0.1l-0.5-1.5L573.5,307.4z M574.5,306.2
	l-0.4-1.4c-0.1-0.4-0.3-1.1-0.4-1.5l0,0c0,0.5-0.1,1.2-0.1,1.6l-0.1,1.4L574.5,306.2z"/>
<path fill="#FFFFFF" d="M576.5,301.8c0.4-0.1,0.9-0.2,1.4-0.3c0.7-0.1,1.4,0,1.9,0.3c0.5,0.3,0.6,0.8,0.7,1.4
	c0.1,0.7-0.2,1.4-0.9,1.8l0,0c0.5,0.1,0.8,0.5,1,1.3c0.2,0.7,0.5,1.6,0.6,1.8l-1.4,0.2c-0.1-0.2-0.3-0.9-0.5-1.6
	c-0.2-0.8-0.4-1-0.9-1l-0.2,0l0.3,2.7l-1.3,0.1L576.5,301.8z M578.1,304.7l0.2,0c0.6-0.1,0.9-0.6,0.8-1.2c-0.1-0.6-0.3-1-0.9-0.9
	c-0.1,0-0.3,0-0.3,0.1L578.1,304.7z"/>
<path fill="#FFFFFF" d="M581.2,301.2l1.3-0.1l0.6,5.7l1.7-0.2l0.1,1.1L582,308L581.2,301.2z"/>
<path fill="#FFFFFF" d="M588.4,304.3l-1.5,0.2l0.2,1.8l1.7-0.2l0.1,1.2l-3.1,0.3l-0.7-6.8l3-0.3l0.1,1.2l-1.6,0.2l0.2,1.6l1.5-0.2
	L588.4,304.3z"/>
<path fill="#FFFFFF" d="M593.7,304.4c-0.1-0.6-0.2-1.5-0.3-2.2l0,0c0,0.7-0.1,1.6-0.2,2.1l-0.3,2.5l-0.9,0.1l-0.8-2.3
	c-0.2-0.5-0.5-1.4-0.7-2.1h0c0.1,0.7,0.1,1.6,0.1,2.3l0.1,2.4l-1.1,0.1l-0.2-6.9l1.4-0.2l0.8,2.4c0.3,0.8,0.5,1.6,0.7,2.3l0,0
	c0-0.8,0.1-1.6,0.2-2.4l0.3-2.5l1.4-0.2l1.1,6.8l-1.2,0.1L593.7,304.4z"/>
<path fill="#FFFFFF" d="M598.8,303.2l-1.5,0.2l0.2,1.8l1.7-0.2l0.1,1.2l-3.1,0.3l-0.7-6.8l3-0.3l0.1,1.2l-1.6,0.2l0.2,1.6l1.5-0.2
	L598.8,303.2z"/>
<path fill="#FFFFFF" d="M600.2,306.1l-0.7-6.8l1.2-0.1l1.3,2.6c0.3,0.5,0.7,1.3,0.9,1.9h0c-0.1-0.7-0.3-1.9-0.5-3.1l-0.2-1.5
	l1.2-0.1l0.7,6.8l-1.2,0.1l-1.3-2.5c-0.3-0.6-0.7-1.4-0.9-2l0,0c0.1,0.7,0.3,1.7,0.4,3.1l0.2,1.5L600.2,306.1z"/>
<path fill="#FFFFFF" d="M605.5,299.8l-1.2,0.1l-0.1-1.2l3.7-0.4l0.1,1.2l-1.2,0.1l0.6,5.6l-1.3,0.1L605.5,299.8z"/>
<path fill="#FFFFFF" d="M613.5,301.6l-1.5,0.2l0.2,1.8l1.7-0.2l0.1,1.1l-3.1,0.3l-0.7-6.8l3-0.3l0.1,1.2l-1.6,0.2l0.2,1.6l1.5-0.2
	L613.5,301.6z"/>
<path fill="#FFFFFF" d="M615.5,297.5l0.5,4.4c0.1,1,0.4,1.3,0.8,1.2c0.4,0,0.6-0.3,0.5-1.4l-0.5-4.4l1.3-0.1l0.5,4.2
	c0.2,1.8-0.4,2.8-1.7,2.9c-1.4,0.2-2.1-0.8-2.3-2.5l-0.5-4.2L615.5,297.5z"/>
<path fill="#FFFFFF" d="M619.3,297.2c0.4-0.1,0.9-0.2,1.4-0.3c0.7-0.1,1.4,0,1.9,0.3c0.5,0.3,0.6,0.8,0.7,1.4
	c0.1,0.7-0.2,1.4-0.9,1.8l0,0c0.5,0.1,0.8,0.5,1,1.3c0.2,0.7,0.5,1.6,0.6,1.8l-1.4,0.2c-0.1-0.2-0.3-0.9-0.5-1.6
	c-0.2-0.8-0.5-1.1-0.9-1l-0.2,0l0.3,2.7l-1.3,0.1L619.3,297.2z M620.9,300.1l0.2,0c0.6-0.1,0.8-0.6,0.8-1.2c-0.1-0.6-0.3-1-0.9-0.9
	c-0.1,0-0.3,0-0.3,0.1L620.9,300.1z"/>
<path fill="#FFFFFF" d="M628.4,299.5c0.3,2.6-0.5,3.7-1.8,3.8c-1.5,0.2-2.3-1.4-2.5-3.3c-0.2-1.9,0.4-3.5,1.9-3.7
	C627.6,296.1,628.2,297.9,628.4,299.5z M625.4,299.9c0.2,1.5,0.5,2.3,1.1,2.2c0.6-0.1,0.7-1.1,0.5-2.5c-0.1-1.2-0.4-2.3-1-2.2
	C625.5,297.5,625.3,298.4,625.4,299.9z"/>
<path fill="#FFFFFF" d="M628.9,296.2c0.4-0.1,0.9-0.2,1.4-0.3c0.8-0.1,1.4,0,1.9,0.3c0.4,0.3,0.7,0.9,0.7,1.4
	c0.1,0.7-0.1,1.3-0.4,1.7c-0.4,0.5-1,0.8-1.6,0.8c-0.1,0-0.2,0-0.3,0l0.3,2.5l-1.3,0.1L628.9,296.2z M630.5,299.1c0.1,0,0.1,0,0.2,0
	c0.7-0.1,0.9-0.6,0.8-1.2c-0.1-0.6-0.4-1-1-1c-0.1,0-0.2,0-0.3,0.1L630.5,299.1z"/>
<path fill="#FFFFFF" d="M636.8,299.1l-1.5,0.2l0.2,1.8l1.7-0.2l0.1,1.1l-3.1,0.3l-0.7-6.8l3-0.3l0.1,1.2l-1.6,0.2l0.2,1.6l1.5-0.2
	L636.8,299.1z M636.4,293.8l-1.1,1.3l-0.9,0.1l0.7-1.2L636.4,293.8z"/>
<path fill="#FFFFFF" d="M640.8,298.7l-1.5,0.2l0.2,1.8l1.7-0.2l0.1,1.2l-3.1,0.3l-0.7-6.8l3-0.3l0.1,1.2l-1.6,0.2l0.2,1.6l1.5-0.2
	L640.8,298.7z"/>
<path fill="#FFFFFF" d="M642.2,301.5l-0.7-6.8l1.2-0.1l1.3,2.6c0.3,0.5,0.7,1.4,0.9,1.9h0c-0.1-0.7-0.3-1.9-0.5-3.1l-0.2-1.5
	l1.2-0.1l0.7,6.8l-1.2,0.1l-1.3-2.5c-0.3-0.5-0.7-1.4-0.9-2h0c0.1,0.7,0.3,1.7,0.4,3.1l0.2,1.5L642.2,301.5z"/>
<path fill="#FFFFFF" d="M202.8,463.1l-0.5-5.1l4.9-0.5l0.5,5.1L202.8,463.1z"/>
</svg>
